<svg width="80" height="80" viewBox="0 0 187 200" fill="none" xmlns="http://www.w3.org/2000/svg"><path d="M0 30C0 13.4315 13.4315 0 30 0H157C173.569 0 187 13.4315 187 30V118C187 134.569 173.569 148 157 148H95L41 194.5V148H30C13.4315 148 0 134.569 0 118V30Z" fill="#EC4F5D"></path><path d="M112.374 39.25C124.778 39.25 134.833 49.4583 134.833 63.75C134.833 92.3333 104.208 108.667 93.9994 114.792C83.791 108.667 53.166 92.3333 53.166 63.75C53.166 49.4583 63.3743 39.25 75.6243 39.25C83.2192 39.25 89.916 43.3333 93.9994 47.4167C98.0827 43.3333 104.779 39.25 112.374 39.25Z" fill="white"></path></svg>