<svg width="217" height="71" viewBox="0 0 217 71" fill="none" xmlns="http://www.w3.org/2000/svg">
<g clip-path="url(#clip0_2289_288)">
<mask id="mask0_2289_288" style="mask-type:luminance" maskUnits="userSpaceOnUse" x="0" y="0" width="217" height="71">
<path d="M217 0H0V71H217V0Z" fill="white"/>
</mask>
<g mask="url(#mask0_2289_288)">
<path d="M184.849 0H32.1512C14.3946 0 0 15.8939 0 35.5C0 55.1061 14.3946 71 32.1512 71H184.849C202.605 71 217 55.1061 217 35.5C217 15.8939 202.605 0 184.849 0Z" fill="white"/>
<path d="M97.9065 11.0712C97.4096 11.4759 96.7991 11.6736 96.183 11.6292H94.7482V14.3596H93.3135V6.75636H96.2732C96.8647 6.72312 97.4464 6.93251 97.9065 7.34429C98.1225 7.58043 98.2887 7.8663 98.3932 8.18151C98.4977 8.49672 98.538 8.83351 98.5111 9.16787C98.5451 9.51482 98.5085 9.86578 98.4039 10.1951C98.2993 10.5244 98.1293 10.8237 97.9065 11.0712ZM96.8146 8.33081C96.5933 8.15115 96.3218 8.06299 96.0476 8.08169H94.7482V10.3138H96.0476C96.3245 10.3304 96.5972 10.2347 96.8146 10.0448C96.9128 9.92969 96.9877 9.79289 97.0343 9.64343C97.081 9.49397 97.0984 9.33527 97.0853 9.17783C97.0994 9.02335 97.0824 8.86736 97.0356 8.72096C96.9888 8.57456 96.9134 8.44135 96.8146 8.33081Z" fill="#606060"/>
<path d="M105.45 13.6919C104.81 14.2579 104.014 14.5663 103.194 14.5663C102.374 14.5663 101.578 14.2579 100.938 13.6919C100.573 13.2798 100.291 12.7871 100.111 12.2461C99.9302 11.7051 99.8555 11.1281 99.8915 10.5529C99.8496 9.9772 99.9215 9.39831 100.102 8.85632C100.283 8.31433 100.568 7.82219 100.938 7.41397C101.578 6.84795 102.374 6.53955 103.194 6.53955C104.014 6.53955 104.81 6.84795 105.45 7.41397C105.817 7.82396 106.099 8.31689 106.276 8.8588C106.454 9.4007 106.523 9.97869 106.479 10.5529C106.515 11.1264 106.442 11.7019 106.265 12.2424C106.088 12.783 105.81 13.2767 105.45 13.6919ZM104.548 12.5359C104.92 11.9563 105.099 11.2519 105.053 10.543C105.099 9.83406 104.92 9.12966 104.548 8.54997C104.389 8.32259 104.183 8.14057 103.948 8.01919C103.712 7.89781 103.454 7.84062 103.194 7.85243C102.933 7.84066 102.673 7.89781 102.436 8.01912C102.199 8.14044 101.992 8.32242 101.832 8.54997C101.455 9.12762 101.273 9.83269 101.317 10.543C101.274 11.253 101.456 11.9576 101.832 12.5359C101.994 12.7604 102.202 12.9396 102.439 13.0591C102.675 13.1785 102.934 13.2348 103.194 13.2235C103.453 13.2349 103.71 13.1785 103.946 13.059C104.181 12.9395 104.387 12.7603 104.548 12.5359Z" fill="#606060"/>
<path d="M109.005 6.75635L109.908 11.111L110.106 12.3267L110.305 11.1409L111.081 6.75635H112.597L113.418 11.111L113.626 12.3267L113.842 11.1608L114.744 6.75635H116.206L114.266 14.3596H112.895L112.083 9.96505L111.839 8.49024L111.604 9.96505L110.765 14.4094H109.43L107.48 6.80617L109.005 6.75635Z" fill="#606060"/>
<path d="M122.721 8.10161H119.112V9.71593H122.46V11.0413H119.112V13.0342H122.92V14.3994H117.704V6.75635H122.721V8.10161Z" fill="#606060"/>
<path d="M128.858 6.97561C129.107 7.09244 129.327 7.27357 129.499 7.50375C129.646 7.69407 129.765 7.90942 129.851 8.14151C129.927 8.40875 129.957 8.68912 129.941 8.96859C129.937 9.34028 129.854 9.70568 129.697 10.0348C129.519 10.3879 129.225 10.6519 128.876 10.7722C129.157 10.8801 129.396 11.0912 129.553 11.3701C129.704 11.7458 129.772 12.1556 129.751 12.5659V13.0741C129.731 13.3095 129.731 13.5463 129.751 13.7816C129.766 13.8693 129.796 13.9527 129.841 14.0265C129.886 14.1003 129.945 14.1628 130.013 14.2101V14.3995H128.497C128.459 14.2655 128.429 14.129 128.407 13.9909C128.372 13.7769 128.351 13.5605 128.344 13.3432V12.6357C128.382 12.2842 128.301 11.9296 128.118 11.6392C127.881 11.4499 127.588 11.3647 127.297 11.4H125.88V14.3895H124.473V6.75638H127.775C128.145 6.7545 128.513 6.82885 128.858 6.97561ZM125.88 8.10165V10.1445H127.432C127.677 10.1466 127.918 10.0852 128.136 9.96508C128.275 9.88508 128.388 9.76009 128.461 9.60689C128.534 9.4537 128.562 9.27964 128.542 9.1081C128.558 8.9284 128.53 8.74725 128.46 8.58402C128.39 8.42079 128.281 8.28161 128.145 8.18136C127.935 8.07952 127.706 8.03508 127.478 8.05182L125.88 8.10165Z" fill="#606060"/>
<path d="M136.924 8.10161H133.315V9.71593H136.663V11.0413H133.279V13.0342H137.096V14.3994H131.871V6.75635H136.924V8.10161Z" fill="#606060"/>
<path d="M142.727 6.97558C143.21 7.15477 143.625 7.50509 143.909 7.97207C144.125 8.32056 144.284 8.70851 144.378 9.11803C144.463 9.53 144.505 9.95118 144.505 10.3736C144.534 11.2697 144.344 12.1579 143.954 12.9446C143.731 13.392 143.399 13.7616 142.995 14.0116C142.592 14.2616 142.133 14.3822 141.671 14.3596H138.693V6.75635H141.671C142.031 6.76821 142.387 6.84218 142.727 6.97558ZM140.092 8.13151V13.114H141.418C141.739 13.1249 142.053 13.017 142.312 12.8075C142.57 12.598 142.758 12.2989 142.844 11.958C142.998 11.4957 143.072 11.0055 143.061 10.5131C143.092 9.89769 142.98 9.2837 142.736 8.7294C142.587 8.50493 142.386 8.32903 142.154 8.22029C141.922 8.11154 141.668 8.07398 141.418 8.11158L140.092 8.13151Z" fill="#606060"/>
<path d="M154.358 7.56361C154.57 7.90637 154.681 8.31401 154.673 8.7295C154.69 9.13091 154.578 9.52593 154.358 9.84557C154.211 10.0287 154.033 10.1778 153.834 10.284C154.16 10.4005 154.44 10.6359 154.628 10.9516C154.816 11.286 154.911 11.6743 154.899 12.0677C154.901 12.4966 154.795 12.9177 154.592 13.2834C154.459 13.5124 154.291 13.7145 154.096 13.8813C153.865 14.0687 153.601 14.1979 153.32 14.26C152.999 14.3305 152.672 14.3639 152.345 14.3596H149.241V6.75645H152.571C152.905 6.72608 153.241 6.78336 153.552 6.92362C153.862 7.06389 154.138 7.28317 154.358 7.56361ZM150.622 8.08178V9.75589H152.291C152.546 9.76907 152.799 9.7035 153.022 9.56655C153.119 9.49351 153.196 9.39288 153.245 9.27533C153.295 9.15779 153.314 9.02771 153.302 8.8989C153.316 8.75417 153.288 8.60817 153.221 8.48253C153.155 8.3569 153.053 8.2583 152.932 8.20136C152.669 8.11433 152.394 8.07397 152.12 8.08178H150.622ZM150.622 11.0114V13.0044H152.291C152.529 13.0161 152.767 12.9684 152.986 12.8649C153.127 12.7739 153.241 12.6399 153.315 12.479C153.388 12.3182 153.418 12.1373 153.401 11.9581C153.415 11.7891 153.38 11.6196 153.303 11.4732C153.225 11.3268 153.108 11.2107 152.968 11.141C152.748 11.0521 152.516 11.0082 152.282 11.0114H150.622Z" fill="#606060"/>
<path d="M160.539 6.75635H162.172L159.871 11.5096V14.3596H158.427V11.5096L156.045 6.75635H157.741L159.176 10.0747L160.539 6.75635Z" fill="#606060"/>
<path d="M85.4985 11.5594H64.9697C64.7304 11.5594 64.5009 11.4544 64.3317 11.2675C64.1625 11.0806 64.0674 10.8272 64.0674 10.5629C64.0674 10.2986 64.1625 10.0451 64.3317 9.85827C64.5009 9.67139 64.7304 9.56641 64.9697 9.56641H85.5075C85.7468 9.56641 85.9763 9.67139 86.1456 9.85827C86.3148 10.0451 86.4099 10.2986 86.4099 10.5629C86.4099 10.8272 86.3148 11.0806 86.1456 11.2675C85.9763 11.4544 85.7468 11.5594 85.5075 11.5594H85.4985Z" fill="#606060"/>
<path d="M190.172 11.5594H169.644C169.404 11.5594 169.175 11.4544 169.006 11.2675C168.836 11.0806 168.741 10.8272 168.741 10.5629C168.741 10.2986 168.836 10.0451 169.006 9.85827C169.175 9.67139 169.404 9.56641 169.644 9.56641H190.181C190.421 9.56641 190.65 9.67139 190.819 9.85827C190.989 10.0451 191.084 10.2986 191.084 10.5629C191.084 10.8272 190.989 11.0806 190.819 11.2675C190.65 11.4544 190.421 11.5594 190.181 11.5594H190.172Z" fill="#606060"/>
</g>
<rect x="54" y="33.4624" width="4.77273" height="22.9091" transform="rotate(90 54 33.4624)" fill="url(#paint0_linear_2289_288)"/>
<path d="M33.9551 38.2351V33.4624L35.3869 38.2351H33.9551Z" fill="#993080"/>
<rect x="29.1826" y="18.6675" width="4.77273" height="32.9318" fill="url(#paint1_linear_2289_288)"/>
<mask id="path-17-inside-1_2289_288" fill="white">
<rect x="12" y="14.0098" width="42" height="42" rx="3.81818"/>
</mask>
<rect x="12" y="14.0098" width="42" height="42" rx="3.81818" stroke="url(#paint2_linear_2289_288)" stroke-width="9.41379" mask="url(#path-17-inside-1_2289_288)"/>
<path d="M29.1824 18.6675L33.9551 18.6675L29.1824 20.0993L29.1824 18.6675Z" fill="#993080"/>
<path d="M200.256 46.3517C198.113 46.3517 196.558 45.3602 195.647 44.2615C195.486 44.0739 195.486 43.8059 195.674 43.538L196.371 42.5732C196.558 42.3053 196.8 42.3321 197.014 42.5196C197.979 43.3504 198.917 43.8863 200.122 43.8863C201.302 43.8863 202.132 43.404 202.132 42.3589C202.132 41.4477 201.516 41.019 200.444 40.5634L198.836 39.9203C197.175 39.2503 195.915 38.1784 195.915 36.3293C195.915 33.9711 197.925 32.5776 200.256 32.5776C201.864 32.5776 203.365 33.2476 204.383 34.5071C204.544 34.6947 204.517 34.9091 204.357 35.0698L203.526 36.0614C203.311 36.3025 203.124 36.2757 202.883 36.0614C202.052 35.2842 201.248 34.9091 200.39 34.9091C199.372 34.9091 198.675 35.4182 198.675 36.3025C198.675 37.2137 199.372 37.6156 200.39 38.0176L201.972 38.6608C203.66 39.3307 205 40.4294 205 42.4393C204.973 45.0118 202.775 46.3517 200.256 46.3517Z" fill="#212121"/>
<path d="M189.961 46.0301C189.72 46.0301 189.586 45.8693 189.586 45.6281V27.2716C189.586 27.0304 189.72 26.8696 189.961 26.8696H192.105C192.346 26.8696 192.48 27.0304 192.48 27.2716V45.6281C192.48 45.8693 192.346 46.0301 192.105 46.0301H189.961Z" fill="#212121"/>
<path d="M183.471 46.0301C183.23 46.0301 183.096 45.8693 183.096 45.6281V27.2716C183.096 27.0304 183.23 26.8696 183.471 26.8696H185.615C185.856 26.8696 185.99 27.0304 185.99 27.2716V45.6281C185.99 45.8693 185.856 46.0301 185.615 46.0301H183.471Z" fill="#212121"/>
<path d="M172.107 46.3517C168.355 46.3517 165.782 43.3772 165.782 39.4647C165.782 35.579 168.355 32.5776 172.107 32.5776C174.277 32.5776 175.831 33.5424 176.743 35.0698L176.796 33.3012C176.796 33.06 176.93 32.8992 177.171 32.8992H179.128C179.369 32.8992 179.503 33.06 179.503 33.3012V45.6282C179.503 45.8694 179.369 46.0302 179.128 46.0302H177.171C176.93 46.0302 176.796 45.8694 176.796 45.6282L176.743 43.8863C175.805 45.4138 174.25 46.3517 172.107 46.3517ZM168.596 39.4647C168.596 42.0105 170.311 43.6988 172.669 43.6988C175.001 43.6988 176.635 42.0105 176.635 39.4915C176.635 36.9457 175.001 35.2306 172.669 35.2306C170.311 35.2306 168.596 36.9457 168.596 39.4647Z" fill="#212121"/>
<path d="M145.169 46.03C144.928 46.03 144.74 45.9228 144.687 45.7084L139.247 27.727C139.166 27.4591 139.273 27.2715 139.568 27.2715H141.846C142.06 27.2715 142.248 27.3519 142.301 27.5931L146.482 41.9835L151.011 27.5931C151.091 27.3519 151.225 27.2715 151.466 27.2715H153.691C153.932 27.2715 154.066 27.3519 154.146 27.5931L158.675 41.9835L162.855 27.5931C162.936 27.3519 163.097 27.2715 163.311 27.2715H165.589C165.884 27.2715 165.991 27.4591 165.91 27.727L160.47 45.7084C160.417 45.9228 160.229 46.03 159.988 46.03H157.576C157.362 46.03 157.148 45.9228 157.094 45.7084L152.592 31.0232L148.063 45.7084C148.009 45.9228 147.795 46.03 147.581 46.03H145.169Z" fill="#212121"/>
<path d="M128.488 46.0301C128.247 46.0301 128.113 45.8693 128.113 45.6281V27.2716C128.113 27.0304 128.247 26.8696 128.488 26.8696H130.632C130.873 26.8696 131.007 27.0304 131.007 27.2716V45.6281C131.007 45.8693 130.873 46.0301 130.632 46.0301H128.488Z" fill="#212121"/>
<path d="M117.124 46.3517C113.372 46.3517 110.799 43.3772 110.799 39.4647C110.799 35.579 113.372 32.5776 117.124 32.5776C119.294 32.5776 120.849 33.5424 121.76 35.0698L121.813 33.3012C121.813 33.06 121.947 32.8992 122.188 32.8992H124.145C124.386 32.8992 124.52 33.06 124.52 33.3012V45.6282C124.52 45.8694 124.386 46.0302 124.145 46.0302H122.188C121.947 46.0302 121.813 45.8694 121.813 45.6282L121.76 43.8863C120.822 45.4138 119.267 46.3517 117.124 46.3517ZM113.613 39.4647C113.613 42.0105 115.328 43.6988 117.686 43.6988C120.018 43.6988 121.652 42.0105 121.652 39.4915C121.652 36.9457 120.018 35.2306 117.686 35.2306C115.328 35.2306 113.613 36.9457 113.613 39.4647Z" fill="#212121"/>
<path d="M106.427 30.0856C105.462 30.0856 104.739 29.3352 104.739 28.3973C104.739 27.4862 105.462 26.7358 106.427 26.7358C107.365 26.7358 108.089 27.4862 108.089 28.3973C108.089 29.3352 107.365 30.0856 106.427 30.0856ZM104.953 45.6283V33.3013C104.953 33.0601 105.087 32.8993 105.328 32.8993H107.499C107.74 32.8993 107.874 33.0601 107.874 33.3013V45.6283C107.874 45.8695 107.74 46.0303 107.499 46.0303H105.328C105.087 46.0303 104.953 45.8695 104.953 45.6283Z" fill="#212121"/>
<path d="M96.9339 46.3517C92.9946 46.3517 90.0469 43.3772 90.0469 39.4379C90.0469 35.5254 92.9678 32.5776 96.8803 32.5776C99.0242 32.5776 100.766 33.462 101.892 34.8555C102.052 35.0698 102.052 35.2574 101.892 35.4182L100.686 36.5705C100.471 36.7849 100.203 36.7313 100.042 36.5437C99.2653 35.7666 98.381 35.2574 97.0143 35.2574C94.5489 35.2574 92.8339 37.0261 92.8339 39.4379C92.8339 41.8497 94.5489 43.672 97.0679 43.672C98.4078 43.672 99.2921 43.1628 100.042 42.3857C100.23 42.1981 100.498 42.1445 100.712 42.3589L101.918 43.5112C102.079 43.672 102.079 43.8595 101.918 44.0739C100.793 45.4674 99.051 46.3517 96.9339 46.3517Z" fill="#212121"/>
<path d="M81.0205 46.3517C77.108 46.3517 74.2139 43.3504 74.2139 39.4647C74.2139 35.579 77.108 32.5776 81.0205 32.5776C84.9062 32.5776 87.8004 35.579 87.8004 39.4647C87.8004 43.3504 84.9062 46.3517 81.0205 46.3517ZM77.0008 39.4647C77.0008 41.9837 78.7427 43.672 81.0205 43.672C83.2715 43.672 85.0134 41.9837 85.0134 39.4647C85.0134 36.9457 83.2715 35.2574 81.0205 35.2574C78.7427 35.2574 77.0008 36.9457 77.0008 39.4647Z" fill="#212121"/>
<path d="M65.6963 46.3521C62.8826 46.3521 60.9263 45.0122 59.8544 43.4847C59.7204 43.2971 59.7204 43.1095 59.908 42.8952L61.0335 41.6089C61.2479 41.3677 61.4623 41.3945 61.6499 41.5821C62.7486 42.8416 63.9009 43.5919 65.6695 43.5919C67.6258 43.5919 68.8317 42.654 68.8317 41.0193C68.8317 39.4114 67.6526 38.7683 66.0715 38.0179L63.7937 36.946C61.8106 36.0081 60.2296 34.5878 60.2296 32.0688C60.2296 28.9067 62.695 27.0576 65.7499 27.0576C67.9474 27.0576 69.6624 27.9419 71.0291 29.4962C71.2435 29.7106 71.2167 29.8982 71.0291 30.1126L69.9304 31.4257C69.7428 31.6668 69.5284 31.6668 69.314 31.4793C68.2153 30.3806 67.197 29.8178 65.8571 29.8178C64.276 29.8178 63.1505 30.6217 63.1505 32.0688C63.1505 33.3015 63.9009 33.9179 65.4552 34.6682L67.5186 35.6329C69.6356 36.6513 71.7527 37.9375 71.7527 41.0193C71.7527 44.5298 68.9657 46.3521 65.6963 46.3521Z" fill="#212121"/>
</g>
<defs>
<linearGradient id="paint0_linear_2289_288" x1="56.3864" y1="33.4624" x2="56.3864" y2="56.3715" gradientUnits="userSpaceOnUse">
<stop stop-color="#9248B2"/>
<stop offset="1" stop-color="#BC5798"/>
</linearGradient>
<linearGradient id="paint1_linear_2289_288" x1="31.569" y1="18.6675" x2="31.569" y2="51.5993" gradientUnits="userSpaceOnUse">
<stop stop-color="#9C43AC"/>
<stop offset="1" stop-color="#E4707D"/>
</linearGradient>
<linearGradient id="paint2_linear_2289_288" x1="54" y1="13.8946" x2="12" y2="55.8946" gradientUnits="userSpaceOnUse">
<stop stop-color="#4A66D6"/>
<stop offset="0.479167" stop-color="#CE2E93"/>
<stop offset="1" stop-color="#F9B161"/>
</linearGradient>
<clipPath id="clip0_2289_288">
<rect width="217" height="71" fill="white"/>
</clipPath>
</defs>
</svg>
