<svg width="493" height="98" viewBox="0 0 493 98" fill="none" xmlns="http://www.w3.org/2000/svg">
<rect x="96" y="45.7056" width="10.9091" height="52.3636" transform="rotate(90 96 45.7056)" fill="url(#paint0_linear_2118_534)"/>
<path d="M50.1816 56.6147V45.7056L53.4544 56.6147H50.1816Z" fill="#993080"/>
<path d="M39.2734 9.88721L50.1825 9.88721L50.1825 89.1599H39.2734L39.2734 9.88721Z" fill="url(#paint1_linear_2118_534)"/>
<mask id="path-4-inside-1_2118_534" fill="white">
<rect y="1.24121" width="96" height="96" rx="7.65354"/>
</mask>
<rect y="1.24121" width="96" height="96" rx="7.65354" stroke="url(#paint2_linear_2118_534)" stroke-width="18.8699" mask="url(#path-4-inside-1_2118_534)"/>
<path d="M39.2725 9.88721L50.1816 9.88721L39.2725 13.1599L39.2725 9.88721Z" fill="#993080"/>
<path d="M348.986 91.963C348.697 91.963 348.581 91.7891 348.697 91.5284L350.696 86.5164L345.249 72.7552C345.133 72.4365 345.249 72.2627 345.568 72.2627H347.422C347.654 72.2627 347.798 72.3786 347.885 72.6103L351.999 83.5034L356.113 72.6103C356.2 72.3786 356.374 72.2627 356.606 72.2627H358.431C358.749 72.2627 358.894 72.4365 358.778 72.7552L351.275 91.6153C351.188 91.8471 351.014 91.963 350.782 91.963H348.986Z" fill="#212121"/>
<path d="M336.764 86.8061C334.331 86.8061 332.563 85.7052 331.52 83.9379L331.463 86.0528C331.463 86.3136 331.347 86.4584 331.086 86.4584H329.406C329.145 86.4584 329 86.3136 329 86.0528V66.1497C329 65.889 329.145 65.7441 329.406 65.7441H331.231C331.492 65.7441 331.636 65.889 331.636 66.1497V74.6672C332.65 72.9579 334.418 71.915 336.764 71.915C340.849 71.915 343.688 75.1307 343.688 79.3605C343.688 83.6192 340.849 86.8061 336.764 86.8061ZM331.578 79.3895C331.578 82.4025 333.519 84.4015 336.301 84.4015C339.111 84.4015 341.139 82.3735 341.139 79.3605C341.139 76.3765 339.111 74.3196 336.301 74.3196C333.519 74.3196 331.578 76.3765 331.578 79.3895Z" fill="#212121"/>
<path d="M379.554 88.6856C377.136 88.6856 374.771 87.9684 372.76 86.6246C370.749 85.2809 369.182 83.3709 368.256 81.1363C367.33 78.9017 367.088 76.4428 367.56 74.0705C368.032 71.6983 369.197 69.5192 370.907 67.8089C372.617 66.0986 374.796 64.9339 377.169 64.462C379.541 63.9902 382 64.2323 384.234 65.158C386.469 66.0836 388.379 67.651 389.723 69.6621C391.067 71.6732 391.784 74.0376 391.784 76.4564C391.778 79.6981 390.488 82.8055 388.196 85.0977C385.904 87.39 382.796 88.6802 379.554 88.6856ZM379.554 65.213C377.331 65.213 375.157 65.8724 373.308 67.1079C371.459 68.3433 370.018 70.0993 369.167 72.1537C368.316 74.2082 368.093 76.4688 368.527 78.6498C368.961 80.8308 370.032 82.8342 371.604 84.4066C373.177 85.979 375.18 87.0498 377.361 87.4837C379.542 87.9175 381.803 87.6948 383.857 86.8438C385.912 85.9929 387.668 84.5518 388.903 82.7028C390.138 80.8539 390.798 78.6801 390.798 76.4564C390.798 74.9799 390.507 73.5178 389.942 72.1537C389.377 70.7896 388.549 69.5502 387.505 68.5061C386.461 67.4621 385.221 66.6339 383.857 66.0689C382.493 65.5038 381.031 65.213 379.554 65.213Z" fill="#212121"/>
<path d="M390.326 76.4586C390.326 78.5934 389.693 80.6803 388.507 82.4553C387.321 84.2303 385.636 85.6137 383.663 86.4306C381.691 87.2476 379.521 87.4613 377.427 87.0449C375.333 86.6284 373.41 85.6004 371.901 84.0909C370.391 82.5814 369.363 80.6581 368.947 78.5644C368.53 76.4706 368.744 74.3004 369.561 72.3281C370.378 70.3558 371.761 68.6701 373.536 67.4841C375.311 66.2981 377.398 65.665 379.533 65.665C382.395 65.666 385.14 66.8034 387.164 68.8274C389.188 70.8514 390.326 73.5963 390.326 76.4586Z" fill="#212121"/>
<path d="M387.283 72.0625H371.819V76.8885H376.299V82.7696L382.976 76.8885H387.283V72.0625Z" fill="white"/>
<path d="M407.143 86.1607C407.284 86.2972 407.396 86.4614 407.47 86.643C407.544 86.8246 407.58 87.0196 407.576 87.2158V87.2504C407.574 87.6397 407.418 88.0125 407.143 88.2883C407.011 88.4313 406.851 88.5451 406.672 88.6225C406.493 88.7 406.3 88.7393 406.106 88.738H404.808C404.2 88.7451 403.598 88.6293 403.036 88.3974C402.474 88.1656 401.965 87.8225 401.539 87.3888C401.104 86.9673 400.76 86.4614 400.528 85.9022C400.296 85.343 400.181 84.7423 400.19 84.1369V74.0525H398.529C398.14 74.0502 397.767 73.8949 397.491 73.62C397.351 73.4869 397.24 73.3258 397.165 73.147C397.091 72.9682 397.054 72.7758 397.059 72.5822V72.5476C397.061 72.1531 397.216 71.7748 397.491 71.4924C397.624 71.3495 397.784 71.2356 397.963 71.1582C398.142 71.0808 398.335 71.0414 398.529 71.0427H400.19V65.8708C400.192 65.4763 400.347 65.098 400.622 64.8156C400.756 64.6774 400.918 64.5689 401.097 64.4974C401.276 64.4259 401.468 64.3928 401.66 64.4005H401.712C402.099 64.3963 402.472 64.5455 402.75 64.8156C402.89 64.9531 403 65.1175 403.074 65.2989C403.148 65.4803 403.185 65.6748 403.182 65.8708V70.9735H403.303V71.0254H406.106C406.3 71.0258 406.492 71.0659 406.671 71.1432C406.849 71.2205 407.01 71.3335 407.143 71.4752C407.283 71.6127 407.393 71.7771 407.468 71.9584C407.542 72.1398 407.579 72.3343 407.576 72.5303V72.5649C407.574 72.9542 407.418 73.327 407.143 73.6027C407.01 73.7434 406.849 73.8546 406.67 73.9291C406.492 74.0036 406.299 74.0397 406.106 74.0352H403.303V74.1044H403.182V84.1023C403.178 84.3118 403.217 84.5199 403.298 84.7135C403.378 84.907 403.498 85.0818 403.649 85.2266C403.797 85.3807 403.974 85.5031 404.17 85.5864C404.367 85.6697 404.578 85.712 404.791 85.711H406.088C406.482 85.7306 406.856 85.8901 407.143 86.1607Z" fill="#212121"/>
<path d="M415.066 72.6154C413.999 72.6096 412.941 72.8155 411.954 73.2212C410.968 73.6269 410.071 74.2242 409.317 74.9787C408.562 75.7331 407.965 76.6297 407.559 77.6166C407.153 78.6034 406.948 79.6609 406.953 80.7279C406.953 85.2425 410.551 88.6155 415.066 88.6155C416.899 88.6155 418.439 88.1831 419.823 87.0068C419.823 87.9236 420.722 88.6155 421.362 88.6155C421.575 88.6227 421.788 88.5861 421.986 88.5078C422.185 88.4295 422.365 88.3113 422.516 88.1604C422.666 88.0096 422.785 87.8293 422.863 87.6309C422.941 87.4324 422.978 87.22 422.971 87.0068V80.7106C422.953 76.2132 419.58 72.6154 415.066 72.6154ZM415.066 85.4674C412.367 85.4674 410.084 83.4263 410.084 80.7106C410.102 79.3949 410.633 78.1382 411.563 77.2078C412.493 76.2774 413.75 75.7468 415.066 75.7289C417.764 75.7289 419.823 78.0295 419.823 80.7279C419.823 83.4263 417.764 85.4674 415.066 85.4674Z" fill="#212121"/>
<path d="M433.572 72.5464C431.435 72.5464 429.384 73.3956 427.873 74.9073C426.361 76.4189 425.512 78.4692 425.512 80.607C425.512 82.7448 426.361 84.7951 427.873 86.3067C429.384 87.8184 431.435 88.6676 433.572 88.6676C435.333 88.6436 437.041 88.0623 438.45 87.0071V88.7714C438.428 89.8689 438.037 90.927 437.34 91.7753C436.643 92.6237 435.682 93.2131 434.609 93.4487C433.537 93.6843 432.417 93.5524 431.429 93.0743C430.441 92.5961 429.642 91.7995 429.161 90.8125C428.968 90.4415 428.638 90.1603 428.241 90.028C427.844 89.8956 427.411 89.9227 427.034 90.1033C426.843 90.1919 426.673 90.3178 426.532 90.4736C426.391 90.6293 426.282 90.8117 426.213 91.0101C426.143 91.2084 426.115 91.4186 426.128 91.6283C426.141 91.838 426.196 92.0429 426.29 92.2309C426.95 93.5935 427.983 94.741 429.269 95.5401C430.555 96.3392 432.041 96.7572 433.555 96.7455C435.69 96.7373 437.736 95.8854 439.246 94.3756C440.756 92.8657 441.607 90.8202 441.616 88.6849V80.6243C441.598 76.1616 437.983 72.5464 433.572 72.5464ZM433.572 85.4676C432.608 85.4676 431.664 85.1815 430.862 84.6455C430.06 84.1095 429.435 83.3477 429.066 82.4564C428.697 81.5651 428.6 80.5843 428.788 79.6381C428.976 78.6919 429.441 77.8227 430.123 77.1405C430.805 76.4583 431.674 75.9938 432.621 75.8055C433.567 75.6173 434.548 75.7139 435.439 76.0831C436.33 76.4523 437.092 77.0775 437.628 77.8797C438.164 78.6819 438.45 79.6249 438.45 80.5897C438.446 81.882 437.93 83.1201 437.016 84.0338C436.103 84.9476 434.865 85.463 433.572 85.4676Z" fill="#212121"/>
<path d="M451.483 72.493C449.724 72.4911 448.012 73.0618 446.606 74.1189V66.1275C446.606 65.7054 446.438 65.3007 446.139 65.0022C445.841 64.7038 445.436 64.5361 445.014 64.5361C444.592 64.5361 444.187 64.7038 443.889 65.0022C443.591 65.3007 443.423 65.7054 443.423 66.1275V80.5363C443.423 84.9298 447.038 88.5969 451.466 88.5969C452.525 88.5973 453.573 88.3892 454.551 87.9842C455.53 87.5793 456.418 86.9856 457.167 86.237C457.915 85.4884 458.509 84.5996 458.914 83.6215C459.319 82.6433 459.527 81.5949 459.527 80.5363C459.536 79.4774 459.334 78.4274 458.933 77.4473C458.532 76.4673 457.94 75.577 457.192 74.8282C456.443 74.0795 455.552 73.4874 454.572 73.0864C453.592 72.6855 452.542 72.4837 451.483 72.493ZM451.483 85.4142C450.519 85.4142 449.576 85.1281 448.773 84.5921C447.971 84.0561 447.346 83.2943 446.977 82.403C446.608 81.5116 446.511 80.5309 446.699 79.5846C446.888 78.6384 447.352 77.7693 448.034 77.0871C448.716 76.4049 449.586 75.9403 450.532 75.7521C451.478 75.5639 452.459 75.6605 453.35 76.0297C454.241 76.3989 455.003 77.0241 455.539 77.8263C456.075 78.6284 456.361 79.5715 456.361 80.5363C456.362 81.177 456.236 81.8116 455.991 82.4038C455.747 82.9959 455.387 83.5339 454.934 83.987C454.481 84.4401 453.943 84.7993 453.351 85.0442C452.759 85.2891 452.124 85.4148 451.483 85.4142Z" fill="#212121"/>
<path d="M469.471 72.5464C467.877 72.5464 466.318 73.0191 464.993 73.9048C463.667 74.7906 462.634 76.0495 462.024 77.5223C461.414 78.9952 461.254 80.6159 461.565 82.1795C461.876 83.7431 462.644 85.1794 463.771 86.3067C464.898 87.434 466.335 88.2017 467.898 88.5127C469.462 88.8237 471.083 88.6641 472.555 88.054C474.028 87.4439 475.287 86.4108 476.173 85.0852C477.059 83.7597 477.531 82.2012 477.531 80.607C477.529 78.4699 476.679 76.421 475.168 74.9098C473.657 73.3987 471.608 72.5487 469.471 72.5464ZM469.471 85.4676C468.506 85.4676 467.563 85.1815 466.761 84.6455C465.959 84.1095 465.333 83.3477 464.964 82.4564C464.595 81.5651 464.498 80.5843 464.687 79.6381C464.875 78.6919 465.339 77.8227 466.022 77.1405C466.704 76.4583 467.573 75.9938 468.519 75.8055C469.465 75.6173 470.446 75.7139 471.337 76.0831C472.229 76.4523 472.991 77.0775 473.527 77.8797C474.063 78.6819 474.349 79.6249 474.349 80.5897C474.344 81.882 473.829 83.1201 472.915 84.0338C472.001 84.9476 470.763 85.463 469.471 85.4676Z" fill="#212121"/>
<path d="M487.646 80.6068L491.884 75.1063C492.012 74.9394 492.107 74.7488 492.161 74.5454C492.216 74.342 492.23 74.1298 492.203 73.9209C492.176 73.712 492.107 73.5106 492.002 73.3281C491.897 73.1457 491.757 72.9858 491.59 72.8576C491.428 72.7274 491.242 72.6314 491.042 72.5755C490.842 72.5197 490.633 72.505 490.428 72.5325C490.222 72.5601 490.025 72.6291 489.847 72.7356C489.669 72.842 489.514 72.9836 489.393 73.1516L485.639 77.9949L481.886 73.1516C481.761 72.9844 481.605 72.8439 481.426 72.7382C481.246 72.6326 481.047 72.564 480.841 72.5366C480.634 72.5092 480.424 72.5234 480.224 72.5786C480.023 72.6337 479.835 72.7286 479.672 72.8576C479.504 72.9856 479.364 73.1455 479.258 73.3279C479.153 73.5104 479.085 73.7119 479.057 73.9208C479.03 74.1298 479.044 74.3421 479.099 74.5455C479.154 74.7489 479.249 74.9395 479.378 75.1063L483.615 80.6068L479.378 86.1074C479.249 86.2709 479.154 86.4587 479.099 86.6595C479.043 86.8603 479.029 87.0702 479.057 87.2766C479.084 87.4831 479.152 87.6819 479.258 87.8614C479.364 88.0409 479.504 88.1973 479.672 88.3215C479.833 88.4524 480.019 88.5496 480.218 88.6075C480.418 88.6654 480.627 88.6827 480.833 88.6585C481.04 88.6344 481.239 88.5691 481.42 88.4667C481.601 88.3642 481.759 88.2267 481.886 88.0621L485.639 83.2188L489.393 88.0621C489.542 88.2493 489.732 88.4009 489.947 88.5056C490.162 88.6104 490.399 88.6657 490.638 88.6675C490.986 88.666 491.322 88.5437 491.59 88.3215C491.757 88.1973 491.897 88.0409 492.003 87.8614C492.109 87.6819 492.177 87.4831 492.205 87.2766C492.232 87.0702 492.218 86.8603 492.163 86.6595C492.107 86.4587 492.013 86.2709 491.884 86.1074L487.646 80.6068Z" fill="#212121"/>
<path d="M480.945 49.8163C475.505 49.8163 471.561 47.3003 469.249 44.5123C468.841 44.0363 468.841 43.3563 469.317 42.6763L471.085 40.2283C471.561 39.5483 472.173 39.6163 472.717 40.0923C475.165 42.2003 477.545 43.5603 480.605 43.5603C483.597 43.5603 485.705 42.3363 485.705 39.6843C485.705 37.3723 484.141 36.2843 481.421 35.1283L477.341 33.4963C473.125 31.7963 469.929 29.0763 469.929 24.3843C469.929 18.4003 475.029 14.8643 480.945 14.8643C485.025 14.8643 488.833 16.5643 491.417 19.7603C491.825 20.2363 491.757 20.7803 491.349 21.1883L489.241 23.7043C488.697 24.3163 488.221 24.2483 487.609 23.7043C485.501 21.7323 483.461 20.7803 481.285 20.7803C478.701 20.7803 476.933 22.0723 476.933 24.3163C476.933 26.6283 478.701 27.6483 481.285 28.6683L485.297 30.3003C489.581 32.0003 492.981 34.7883 492.981 39.8883C492.913 46.4163 487.337 49.8163 480.945 49.8163Z" fill="#212121"/>
<path d="M454.82 48.9999C454.208 48.9999 453.868 48.5919 453.868 47.9799V1.39988C453.868 0.787883 454.208 0.379883 454.82 0.379883H460.26C460.872 0.379883 461.212 0.787883 461.212 1.39988V47.9799C461.212 48.5919 460.872 48.9999 460.26 48.9999H454.82Z" fill="#212121"/>
<path d="M438.351 48.9999C437.739 48.9999 437.399 48.5919 437.399 47.9799V1.39988C437.399 0.787883 437.739 0.379883 438.351 0.379883H443.791C444.403 0.379883 444.743 0.787883 444.743 1.39988V47.9799C444.743 48.5919 444.403 48.9999 443.791 48.9999H438.351Z" fill="#212121"/>
<path d="M409.513 49.8163C399.993 49.8163 393.465 42.2683 393.465 32.3403C393.465 22.4803 399.993 14.8643 409.513 14.8643C415.021 14.8643 418.965 17.3123 421.277 21.1883L421.413 16.7003C421.413 16.0883 421.753 15.6803 422.365 15.6803H427.329C427.941 15.6803 428.281 16.0883 428.281 16.7003V47.9803C428.281 48.5923 427.941 49.0003 427.329 49.0003H422.365C421.753 49.0003 421.413 48.5923 421.413 47.9803L421.277 43.5603C418.897 47.4363 414.953 49.8163 409.513 49.8163ZM400.605 32.3403C400.605 38.8003 404.957 43.0843 410.941 43.0843C416.857 43.0843 421.005 38.8003 421.005 32.4083C421.005 25.9483 416.857 21.5963 410.941 21.5963C404.957 21.5963 400.605 25.9483 400.605 32.3403Z" fill="#212121"/>
<path d="M341.159 48.9999C340.547 48.9999 340.071 48.7279 339.935 48.1839L326.131 2.5559C325.927 1.8759 326.199 1.3999 326.947 1.3999H332.727C333.271 1.3999 333.747 1.6039 333.883 2.2159L344.491 38.7319L355.983 2.2159C356.187 1.6039 356.527 1.3999 357.139 1.3999H362.783C363.395 1.3999 363.735 1.6039 363.939 2.2159L375.431 38.7319L386.039 2.2159C386.243 1.6039 386.651 1.3999 387.195 1.3999H392.975C393.723 1.3999 393.995 1.8759 393.791 2.5559L379.987 48.1839C379.851 48.7279 379.375 48.9999 378.763 48.9999H372.643C372.099 48.9999 371.555 48.7279 371.419 48.1839L359.995 10.9199L348.503 48.1839C348.367 48.7279 347.823 48.9999 347.279 48.9999H341.159Z" fill="#212121"/>
<path d="M298.832 48.9999C298.22 48.9999 297.88 48.5919 297.88 47.9799V1.39988C297.88 0.787883 298.22 0.379883 298.832 0.379883H304.272C304.884 0.379883 305.224 0.787883 305.224 1.39988V47.9799C305.224 48.5919 304.884 48.9999 304.272 48.9999H298.832Z" fill="#212121"/>
<path d="M269.993 49.8163C260.473 49.8163 253.945 42.2683 253.945 32.3403C253.945 22.4803 260.473 14.8643 269.993 14.8643C275.501 14.8643 279.445 17.3123 281.757 21.1883L281.893 16.7003C281.893 16.0883 282.233 15.6803 282.845 15.6803H287.809C288.421 15.6803 288.761 16.0883 288.761 16.7003V47.9803C288.761 48.5923 288.421 49.0003 287.809 49.0003H282.845C282.233 49.0003 281.893 48.5923 281.893 47.9803L281.757 43.5603C279.377 47.4363 275.433 49.8163 269.993 49.8163ZM261.085 32.3403C261.085 38.8003 265.437 43.0843 271.421 43.0843C277.337 43.0843 281.485 38.8003 281.485 32.4083C281.485 25.9483 277.337 21.5963 271.421 21.5963C265.437 21.5963 261.085 25.9483 261.085 32.3403Z" fill="#212121"/>
<path d="M242.85 8.54004C240.402 8.54004 238.566 6.63604 238.566 4.25604C238.566 1.94404 240.402 0.0400391 242.85 0.0400391C245.23 0.0400391 247.066 1.94404 247.066 4.25604C247.066 6.63604 245.23 8.54004 242.85 8.54004ZM239.11 47.98V16.7C239.11 16.088 239.45 15.68 240.062 15.68H245.57C246.182 15.68 246.522 16.088 246.522 16.7V47.98C246.522 48.592 246.182 49 245.57 49H240.062C239.45 49 239.11 48.592 239.11 47.98Z" fill="#212121"/>
<path d="M218.761 49.8163C208.765 49.8163 201.285 42.2683 201.285 32.2723C201.285 22.3443 208.697 14.8643 218.625 14.8643C224.065 14.8643 228.485 17.1083 231.341 20.6443C231.749 21.1883 231.749 21.6643 231.341 22.0723L228.281 24.9963C227.737 25.5403 227.057 25.4043 226.649 24.9283C224.677 22.9563 222.433 21.6643 218.965 21.6643C212.709 21.6643 208.357 26.1523 208.357 32.2723C208.357 38.3923 212.709 43.0163 219.101 43.0163C222.501 43.0163 224.745 41.7243 226.649 39.7523C227.125 39.2763 227.805 39.1403 228.349 39.6843L231.409 42.6083C231.817 43.0163 231.817 43.4923 231.409 44.0363C228.553 47.5723 224.133 49.8163 218.761 49.8163Z" fill="#212121"/>
<path d="M178.381 49.8163C168.453 49.8163 161.109 42.2003 161.109 32.3403C161.109 22.4803 168.453 14.8643 178.381 14.8643C188.241 14.8643 195.585 22.4803 195.585 32.3403C195.585 42.2003 188.241 49.8163 178.381 49.8163ZM168.181 32.3403C168.181 38.7323 172.601 43.0163 178.381 43.0163C184.093 43.0163 188.513 38.7323 188.513 32.3403C188.513 25.9483 184.093 21.6643 178.381 21.6643C172.601 21.6643 168.181 25.9483 168.181 32.3403Z" fill="#212121"/>
<path d="M139.496 49.816C132.356 49.816 127.392 46.416 124.672 42.54C124.332 42.064 124.332 41.588 124.808 41.044L127.664 37.78C128.208 37.168 128.752 37.236 129.228 37.712C132.016 40.908 134.94 42.812 139.428 42.812C144.392 42.812 147.452 40.432 147.452 36.284C147.452 32.204 144.46 30.572 140.448 28.668L134.668 25.948C129.636 23.568 125.624 19.964 125.624 13.572C125.624 5.54795 131.88 0.855957 139.632 0.855957C145.208 0.855957 149.56 3.09996 153.028 7.04396C153.572 7.58796 153.504 8.06395 153.028 8.60796L150.24 11.94C149.764 12.552 149.22 12.552 148.676 12.076C145.888 9.28795 143.304 7.85996 139.904 7.85996C135.892 7.85996 133.036 9.89996 133.036 13.572C133.036 16.7 134.94 18.264 138.884 20.168L144.12 22.616C149.492 25.2 154.864 28.464 154.864 36.284C154.864 45.192 147.792 49.816 139.496 49.816Z" fill="#212121"/>
<defs>
<linearGradient id="paint0_linear_2118_534" x1="101.455" y1="45.7056" x2="101.455" y2="98.0692" gradientUnits="userSpaceOnUse">
<stop stop-color="#9248B2"/>
<stop offset="1" stop-color="#BC5798"/>
</linearGradient>
<linearGradient id="paint1_linear_2118_534" x1="44.728" y1="11.8872" x2="44.728" y2="87.1599" gradientUnits="userSpaceOnUse">
<stop stop-color="#9C43AC"/>
<stop offset="1" stop-color="#E4707D"/>
</linearGradient>
<linearGradient id="paint2_linear_2118_534" x1="96" y1="0.978065" x2="0" y2="96.9781" gradientUnits="userSpaceOnUse">
<stop stop-color="#4A66D6"/>
<stop offset="0.479167" stop-color="#CE2E93"/>
<stop offset="1" stop-color="#F9B161"/>
</linearGradient>
</defs>
</svg>
