<svg width="190" height="38" viewBox="0 0 190 38" fill="none" xmlns="http://www.w3.org/2000/svg">
<path d="M33.6421 22.1313V18.3083H15.2919V22.1313H33.6421Z" fill="white"/>
<path d="M17.5854 22.1314V18.3083L18.7322 22.1314H17.5854Z" fill="white"/>
<path d="M17.5856 6.45752H13.7627V32.8358H17.5856V6.45752Z" fill="white"/>
<mask id="mask0_1282_2" style="mask-type:luminance" maskUnits="userSpaceOnUse" x="0" y="2" width="34" height="35">
<path d="M30.5835 2.72656H3.05835C1.36927 2.72656 0 4.09583 0 5.78492V33.3101C0 34.9991 1.36927 36.3684 3.05835 36.3684H30.5835C32.2726 36.3684 33.6419 34.9991 33.6419 33.3101V5.78492C33.6419 4.09583 32.2726 2.72656 30.5835 2.72656Z" fill="white"/>
</mask>
<g mask="url(#mask0_1282_2)">
<path d="M30.5835 2.72656H3.05835C1.36927 2.72656 0 4.09583 0 5.78492V33.3101C0 34.9991 1.36927 36.3684 3.05835 36.3684H30.5835C32.2726 36.3684 33.6419 34.9991 33.6419 33.3101V5.78492C33.6419 4.09583 32.2726 2.72656 30.5835 2.72656Z" stroke="white" stroke-width="7.26"/>
</g>
<path d="M13.7622 6.45752H17.5852L13.7622 7.60441V6.45752Z" fill="white"/>
<path d="M50.2702 29.4222C47.5406 29.4222 45.6429 28.1224 44.6029 26.6405C44.4731 26.4586 44.4731 26.2766 44.6551 26.0686L45.7468 24.8209C45.9547 24.587 46.1629 24.6129 46.3447 24.7949C47.4106 26.0167 48.5284 26.7446 50.2442 26.7446C52.1419 26.7446 53.3117 25.8347 53.3117 24.249C53.3117 22.6892 52.1679 22.0652 50.6341 21.3374L48.4244 20.2975C46.5007 19.3878 44.9669 18.0098 44.9669 15.5663C44.9669 12.4988 47.3586 10.705 50.3221 10.705C52.4538 10.705 54.1176 11.5629 55.4434 13.0707C55.6513 13.2786 55.6254 13.4606 55.4434 13.6686L54.3775 14.9424C54.1955 15.1763 53.9875 15.1763 53.7796 14.9944C52.7138 13.9285 51.7258 13.3826 50.4262 13.3826C48.8924 13.3826 47.8005 14.1625 47.8005 15.5663C47.8005 16.7621 48.5284 17.36 50.0362 18.0879L52.0379 19.0238C54.0916 20.0116 56.1452 21.2594 56.1452 24.249C56.1452 27.6543 53.4416 29.4222 50.2702 29.4222ZM65.136 29.4222C61.3405 29.4222 58.5331 26.5107 58.5331 22.7412C58.5331 18.9717 61.3405 16.0602 65.136 16.0602C68.9053 16.0602 71.713 18.9717 71.713 22.7412C71.713 26.5107 68.9053 29.4222 65.136 29.4222ZM61.2366 22.7412C61.2366 25.1849 62.9263 26.8225 65.136 26.8225C67.3196 26.8225 69.0094 25.1849 69.0094 22.7412C69.0094 20.2975 67.3196 18.6598 65.136 18.6598C62.9263 18.6598 61.2366 20.2975 61.2366 22.7412ZM80.5729 29.4222C76.7515 29.4222 73.892 26.5367 73.892 22.7152C73.892 18.9197 76.7255 16.0602 80.521 16.0602C82.6007 16.0602 84.2904 16.9181 85.3822 18.2699C85.5382 18.4779 85.5382 18.6598 85.3822 18.8159L84.2124 19.9335C84.0044 20.1415 83.7445 20.0896 83.5885 19.9076C82.8346 19.1537 81.9768 18.6598 80.651 18.6598C78.2593 18.6598 76.5956 20.3756 76.5956 22.7152C76.5956 25.0548 78.2593 26.8225 80.7029 26.8225C82.0028 26.8225 82.8606 26.3287 83.5885 25.5748C83.7705 25.3928 84.0304 25.3407 84.2383 25.5488L85.4081 26.6665C85.5641 26.8225 85.5641 27.0045 85.4081 27.2125C84.3164 28.5642 82.6266 29.4222 80.5729 29.4222ZM89.782 13.6426C88.8461 13.6426 88.1443 12.9147 88.1443 12.0048C88.1443 11.121 88.8461 10.3931 89.782 10.3931C90.6919 10.3931 91.3938 11.121 91.3938 12.0048C91.3938 12.9147 90.6919 13.6426 89.782 13.6426ZM88.3523 28.7203V16.7621C88.3523 16.5281 88.4823 16.3722 88.7162 16.3722H90.8219C91.0558 16.3722 91.1859 16.5281 91.1859 16.7621V28.7203C91.1859 28.9542 91.0558 29.1102 90.8219 29.1102H88.7162C88.4823 29.1102 88.3523 28.9542 88.3523 28.7203ZM100.159 29.4222C96.5193 29.4222 94.0237 26.5367 94.0237 22.7412C94.0237 18.9717 96.5193 16.0602 100.159 16.0602C102.264 16.0602 103.772 16.9961 104.656 18.4779L104.708 16.7621C104.708 16.5281 104.838 16.3722 105.072 16.3722H106.97C107.204 16.3722 107.334 16.5281 107.334 16.7621V28.7203C107.334 28.9542 107.204 29.1102 106.97 29.1102H105.072C104.838 29.1102 104.708 28.9542 104.708 28.7203L104.656 27.0305C103.746 28.5123 102.238 29.4222 100.159 29.4222ZM96.7532 22.7412C96.7532 25.2108 98.417 26.8485 100.705 26.8485C102.966 26.8485 104.552 25.2108 104.552 22.7672C104.552 20.2975 102.966 18.6339 100.705 18.6339C98.417 18.6339 96.7532 20.2975 96.7532 22.7412ZM111.183 29.1102C110.95 29.1102 110.82 28.9542 110.82 28.7203V10.913C110.82 10.679 110.95 10.5231 111.183 10.5231H113.263C113.497 10.5231 113.627 10.679 113.627 10.913V28.7203C113.627 28.9542 113.497 29.1102 113.263 29.1102H111.183ZM127.365 29.1102C127.131 29.1102 126.949 29.0061 126.897 28.7982L121.62 11.3549C121.542 11.095 121.646 10.913 121.932 10.913H124.141C124.349 10.913 124.531 10.991 124.583 11.225L128.639 25.1849L133.032 11.225C133.11 10.991 133.24 10.913 133.474 10.913H135.631C135.865 10.913 135.995 10.991 136.073 11.225L140.467 25.1849L144.522 11.225C144.6 10.991 144.756 10.913 144.964 10.913H147.174C147.46 10.913 147.564 11.095 147.486 11.3549L142.208 28.7982C142.156 29.0061 141.974 29.1102 141.741 29.1102H139.401C139.193 29.1102 138.985 29.0061 138.933 28.7982L134.566 14.5524L130.172 28.7982C130.12 29.0061 129.912 29.1102 129.704 29.1102H127.365ZM153.496 29.4222C149.857 29.4222 147.361 26.5367 147.361 22.7412C147.361 18.9717 149.857 16.0602 153.496 16.0602C155.602 16.0602 157.11 16.9961 157.994 18.4779L158.045 16.7621C158.045 16.5281 158.176 16.3722 158.409 16.3722H160.307C160.541 16.3722 160.671 16.5281 160.671 16.7621V28.7203C160.671 28.9542 160.541 29.1102 160.307 29.1102H158.409C158.176 29.1102 158.045 28.9542 158.045 28.7203L157.994 27.0305C157.084 28.5123 155.576 29.4222 153.496 29.4222ZM150.091 22.7412C150.091 25.2108 151.754 26.8485 154.042 26.8485C156.304 26.8485 157.889 25.2108 157.889 22.7672C157.889 20.2975 156.304 18.6339 154.042 18.6339C151.754 18.6339 150.091 20.2975 150.091 22.7412ZM164.521 29.1102C164.287 29.1102 164.157 28.9542 164.157 28.7203V10.913C164.157 10.679 164.287 10.5231 164.521 10.5231H166.601C166.835 10.5231 166.965 10.679 166.965 10.913V28.7203C166.965 28.9542 166.835 29.1102 166.601 29.1102H164.521ZM170.817 29.1102C170.583 29.1102 170.453 28.9542 170.453 28.7203V10.913C170.453 10.679 170.583 10.5231 170.817 10.5231H172.897C173.13 10.5231 173.26 10.679 173.26 10.913V28.7203C173.26 28.9542 173.13 29.1102 172.897 29.1102H170.817ZM180.803 29.4222C178.724 29.4222 177.216 28.4604 176.332 27.3944C176.177 27.2125 176.177 26.9526 176.359 26.6925L177.035 25.7568C177.216 25.4967 177.451 25.5227 177.659 25.7047C178.595 26.5107 179.505 27.0305 180.674 27.0305C181.818 27.0305 182.623 26.5626 182.623 25.5488C182.623 24.6649 182.025 24.249 180.987 23.8069L179.426 23.1831C177.814 22.5332 176.592 21.4933 176.592 19.6996C176.592 17.412 178.543 16.0602 180.803 16.0602C182.364 16.0602 183.819 16.7101 184.807 17.9319C184.964 18.1139 184.938 18.3219 184.781 18.4779L183.976 19.4397C183.769 19.6736 183.585 19.6477 183.352 19.4397C182.547 18.6858 181.766 18.3219 180.934 18.3219C179.946 18.3219 179.271 18.8159 179.271 19.6736C179.271 20.5576 179.946 20.9475 180.934 21.3374L182.468 21.9613C184.105 22.6111 185.405 23.6771 185.405 25.6267C185.379 28.1224 183.247 29.4222 180.803 29.4222Z" fill="white"/>
</svg>
