<svg width="91" height="36" viewBox="0 0 91 36" fill="none" xmlns="http://www.w3.org/2000/svg">
<path fill-rule="evenodd" clip-rule="evenodd" d="M47.9599 11.035C47.9588 11.2762 47.9101 11.5147 47.8166 11.737C47.723 11.9593 47.5864 12.1609 47.4147 12.3302C47.243 12.4995 47.0395 12.6333 46.8159 12.7237C46.5923 12.8141 46.353 12.8594 46.1119 12.857C45.8708 12.8591 45.6317 12.8136 45.4082 12.7231C45.1847 12.6326 44.9813 12.4989 44.8097 12.3296C44.638 12.1604 44.5014 11.9589 44.4077 11.7367C44.3141 11.5146 44.2652 11.2761 44.2639 11.035C44.2639 10.026 45.0599 9.214 46.1119 9.214C47.1639 9.241 47.9599 10.054 47.9599 11.035ZM40.3409 14.707V15.155C40.3409 15.155 39.4599 14.035 37.5839 14.035C34.4849 14.035 32.0689 16.36 32.0689 19.583C32.0689 22.779 34.4569 25.133 37.5839 25.133C39.4889 25.133 40.3409 23.983 40.3409 23.983V24.461C40.3409 24.685 40.5119 24.853 40.7389 24.853H43.0419V14.314H40.7389C40.6347 14.3155 40.535 14.3572 40.4609 14.4305C40.3867 14.5037 40.3437 14.6028 40.3409 14.707ZM40.3409 21.462C39.9149 22.078 39.0609 22.611 38.0379 22.611C36.2189 22.611 34.8269 21.489 34.8269 19.583C34.8269 17.678 36.2189 16.557 38.0389 16.557C39.0339 16.557 39.9429 17.117 40.3409 17.706V21.462ZM44.7479 24.852H47.4769V14.314H44.7469L44.7479 24.852ZM85.5129 14.034C83.6369 14.034 82.7559 15.155 82.7559 15.155V9.241H80.0259V24.853H82.3289C82.4329 24.8515 82.5324 24.8099 82.6066 24.7369C82.6807 24.6638 82.7238 24.565 82.7269 24.461V23.984C82.7269 23.984 83.6079 25.134 85.4849 25.134C88.5839 25.134 90.9999 22.779 90.9999 19.584C90.9999 16.388 88.5839 14.034 85.5129 14.034ZM85.0589 22.582C84.0059 22.582 83.1819 22.05 82.7559 21.433V17.678C83.1819 17.117 84.0909 16.529 85.0589 16.529C86.8779 16.529 88.2709 17.649 88.2709 19.556C88.2709 21.462 86.8779 22.582 85.0589 22.582ZM78.6049 18.603V24.881H75.8759V18.911C75.8759 17.173 75.3069 16.473 73.7719 16.473C72.9479 16.473 72.0949 16.893 71.5549 17.509V24.853H68.8249V14.314H70.9859C71.2139 14.314 71.3839 14.511 71.3839 14.707V15.155C72.1809 14.343 73.2319 14.035 74.2839 14.035C75.4779 14.035 76.4729 14.37 77.2689 15.043C78.2359 15.828 78.6049 16.837 78.6049 18.603ZM62.2019 14.034C60.3259 14.034 59.4449 15.155 59.4449 15.155V9.241H56.7149V24.853H59.0179C59.1219 24.8513 59.2212 24.8096 59.2953 24.7366C59.3694 24.6636 59.4126 24.5649 59.4159 24.461V23.984C59.4159 23.984 60.2979 25.134 62.1739 25.134C65.2729 25.134 67.6889 22.779 67.6889 19.584C67.7179 16.388 65.3009 14.034 62.2019 14.034ZM61.7469 22.582C60.6959 22.582 59.8709 22.05 59.4449 21.433V17.678C59.8709 17.117 60.7809 16.529 61.7469 16.529C63.5669 16.529 64.9599 17.649 64.9599 19.556C64.9599 21.462 63.5669 22.582 61.7469 22.582ZM54.3569 14.034C55.1809 14.034 55.6069 14.174 55.6069 14.174V16.669C55.6069 16.669 53.3329 15.912 51.9119 17.509V24.881H49.1819V14.314H51.4849C51.7129 14.314 51.8829 14.511 51.8829 14.707V15.155C52.3949 14.567 53.5029 14.035 54.3559 14.035L54.3569 14.034ZM26.0129 23.9C25.8709 23.563 25.7279 23.2 25.5859 22.89C25.3589 22.387 25.1309 21.91 24.9319 21.462L24.9039 21.433C22.9126 17.1602 20.818 12.9363 18.6219 8.765L18.5359 8.597C18.3089 8.177 18.0819 7.727 17.8539 7.28C17.5689 6.775 17.2849 6.242 16.8299 5.738C16.3975 5.19587 15.8485 4.75811 15.2237 4.45723C14.5989 4.15634 13.9144 4.00007 13.2209 4C11.8009 4 10.5209 4.617 9.58289 5.682C9.15589 6.186 8.84289 6.719 8.55889 7.224C8.33089 7.672 8.10389 8.12 7.87689 8.541L7.79089 8.709C5.60289 12.913 3.47089 17.173 1.50889 21.377L1.48089 21.433C1.28089 21.882 1.05389 22.358 0.826887 22.863C0.683887 23.171 0.541887 23.507 0.399887 23.872C0.0298874 24.909 -0.0831126 25.89 0.0598874 26.899C0.216022 27.9294 0.639157 28.9009 1.28722 29.7171C1.93528 30.5332 2.78569 31.1655 3.75389 31.551C4.49389 31.86 5.26189 32 6.05689 32C7.31646 31.9663 8.54784 31.6196 9.63989 30.991C10.8049 30.346 11.9129 29.421 13.1639 28.076C14.4139 29.421 15.5519 30.346 16.6889 30.991C17.7806 31.6196 19.0116 31.9663 20.2709 32C21.0669 32 21.8629 31.86 22.5739 31.551C23.5429 31.1667 24.3941 30.5349 25.0427 29.7188C25.6912 28.9027 26.1144 27.9308 26.2699 26.9C26.4969 25.918 26.3829 24.938 26.0129 23.9ZM13.1919 25.357C11.6559 23.451 10.6619 21.658 10.3209 20.144C10.1789 19.5 10.1499 18.939 10.2349 18.434C10.2916 18.0116 10.4475 17.6086 10.6899 17.258C11.2299 16.5 12.1399 16.024 13.1919 16.024C14.2439 16.024 15.1819 16.473 15.6929 17.258C15.9209 17.593 16.0909 17.987 16.1479 18.434C16.2329 18.939 16.2049 19.527 16.0629 20.144C15.7219 21.63 14.7269 23.424 13.1919 25.357ZM24.5339 26.675C24.3349 28.132 23.3409 29.393 21.9469 29.954C21.2649 30.234 20.5269 30.318 19.7869 30.234C19.0247 30.1408 18.2896 29.8928 17.6269 29.505C16.6029 28.945 15.5799 28.076 14.3859 26.787C16.2619 24.517 17.3989 22.442 17.8259 20.593C18.0105 19.8128 18.0586 19.0066 17.9679 18.21C17.8614 17.5242 17.5987 16.872 17.1999 16.304C16.3199 15.043 14.8399 14.314 13.1919 14.314C11.5429 14.314 10.0649 15.072 9.18289 16.304C8.78365 16.8721 8.52115 17.5247 8.41589 18.211C8.29548 19.0062 8.34386 19.8178 8.55789 20.593C8.98389 22.443 10.1499 24.545 11.9979 26.815C10.8319 28.104 9.78089 28.973 8.75789 29.534C8.01789 29.954 7.30789 30.179 6.59689 30.262C5.86486 30.3423 5.12425 30.2463 4.43689 29.982C3.04289 29.422 2.04689 28.16 1.84889 26.702C1.75547 25.9634 1.84333 25.2131 2.10489 24.516C2.19089 24.236 2.33189 23.956 2.47489 23.62C2.67389 23.171 2.90089 22.695 3.12789 22.218L3.15689 22.162C5.145 17.9199 7.23055 13.7241 9.41189 9.578L9.49689 9.41C9.72489 8.989 9.95189 8.541 10.1799 8.12C10.4069 7.672 10.6629 7.251 10.9749 6.887C11.5719 6.215 12.3679 5.85 13.2489 5.85C14.1309 5.85 14.9269 6.215 15.5239 6.887C15.8359 7.251 16.0919 7.672 16.3199 8.12C16.5469 8.541 16.7739 8.989 17.0019 9.41L17.0869 9.578C19.2421 13.7424 21.3178 17.9475 23.3129 22.191V22.218C23.5399 22.667 23.7389 23.171 23.9669 23.62C24.1089 23.956 24.2509 24.236 24.3369 24.516C24.5639 25.245 24.6479 25.946 24.5339 26.675Z" fill="#FF5A5F"/>
</svg>
