<svg width="95" height="36" viewBox="0 0 95 36" fill="none" xmlns="http://www.w3.org/2000/svg">
<g clip-path="url(#clip0_10717_13644)">
<path d="M24.1484 23.6791V9.146H32.7381V10.9681H25.9271V15.4364H32.044V17.2585H25.9271V21.8136H33.2153V23.6357H24.1484V23.6791Z" fill="#E43225"/>
<path d="M42.2383 23.6792L39.2883 19.8182L36.3383 23.6792H34.256L38.2905 18.5167L34.0391 13.1807H36.3817L39.2883 17.1718L42.2383 13.1807H44.5376L40.503 18.5167L44.3207 23.6792H42.2383Z" fill="#E43225"/>
<path d="M47.1849 22.1175V29.2756H45.4062V18.5601C45.4062 15.827 47.4886 12.9204 50.7423 12.9204C54.0393 12.9204 56.5121 15.0028 56.5121 18.43C56.5121 21.7704 53.996 24.0697 51.1327 24.0697C49.7445 24.0697 47.879 23.4623 47.1849 22.1175ZM54.6467 18.43C54.6467 16.0873 53.1283 14.6991 50.4386 14.8292C49.1371 14.8726 47.1415 15.827 47.3151 19.1675C47.3585 20.252 48.4864 22.291 50.9592 22.291C53.0849 22.291 54.6467 21.0763 54.6467 18.43Z" fill="#E43225"/>
<path d="M58.0312 23.6788V13.1803H59.8099V14.3082C60.6776 13.3104 62.0224 12.9634 63.454 12.9634V14.8722C63.2371 14.8288 61.1114 14.5685 59.8099 17.345V23.7222H58.0312V23.6788Z" fill="#E43225"/>
<path d="M63.9297 18.43C63.9297 15.3932 66.0988 12.9204 69.0922 12.9204C72.8231 12.9204 74.2113 15.3932 74.2113 18.5601V19.4278H65.8819C66.012 21.4234 67.7907 22.4645 69.4392 22.4211C70.6539 22.3778 71.4782 22.0307 72.3459 21.1631L73.5172 22.3778C72.4326 23.4189 71.0444 24.1131 69.3525 24.1131C66.1856 24.0697 63.9297 21.727 63.9297 18.43ZM68.962 14.6991C67.2701 14.6991 65.9687 16.1741 65.8819 17.7792H72.3459C72.3459 16.2175 71.2179 14.6991 68.962 14.6991Z" fill="#E43225"/>
<path d="M75.125 22.2039L76.4265 21.0326C76.3831 21.0326 77.0772 21.7267 77.164 21.7701C77.4677 22.0304 77.7713 22.2039 78.1618 22.2907C79.2897 22.5944 81.3287 22.5076 81.5022 20.9458C81.589 20.0782 80.9382 19.601 80.2007 19.2973C79.2463 18.9502 78.2051 18.8201 77.2507 18.3863C76.1662 17.9091 75.4721 17.0848 75.4721 15.8701C75.4721 12.7032 79.9838 12.1826 82.0228 13.6576C82.1096 13.7444 83.1073 14.6554 83.064 14.6554L81.7625 15.6966C81.1118 14.9157 80.5044 14.5252 79.1162 14.5252C78.4221 14.5252 77.4676 14.8289 77.2941 15.5664C77.0338 16.6076 78.2051 16.998 78.986 17.2149C80.0272 17.4752 81.1551 17.6488 82.0662 18.2127C83.3243 18.9936 83.6279 20.6855 83.1507 21.987C82.6301 23.4186 81.0684 23.9826 79.6801 24.026C78.0316 24.1127 76.6 23.5921 75.4287 22.4208C75.3419 22.4208 75.125 22.2039 75.125 22.2039Z" fill="#E43225"/>
<path d="M84.2734 22.2039L85.5749 21.0326C85.5315 21.0326 86.2256 21.7267 86.3124 21.7701C86.6161 22.0304 86.9198 22.2039 87.3102 22.2907C88.4381 22.5944 90.4771 22.5076 90.6506 20.9458C90.7374 20.0782 90.0867 19.601 89.3492 19.2973C88.3948 18.9502 87.3536 18.8201 86.3992 18.3863C85.3146 17.9091 84.6205 17.0848 84.6205 15.8701C84.6205 12.7032 89.1323 12.1826 91.1712 13.6576C91.258 13.7444 92.2558 14.6554 92.2124 14.6554L90.9109 15.6966C90.2602 14.9157 89.6528 14.5252 88.2646 14.5252C87.5705 14.5252 86.6161 14.8289 86.4426 15.5664C86.1823 16.6076 87.3536 16.998 88.1345 17.2149C89.1756 17.4752 90.3036 17.6488 91.2146 18.2127C92.4727 18.9936 92.7764 20.6855 92.2992 21.987C91.7786 23.4186 90.2168 23.9826 88.8286 24.026C87.1801 24.1127 85.7484 23.5921 84.5771 22.4208C84.4903 22.4208 84.2734 22.2039 84.2734 22.2039Z" fill="#E43225"/>
<path d="M92.742 13.1803V12.0524H92.3516V11.8354H93.3927V12.0524H93.0023V13.1803H92.742Z" fill="#E43225"/>
<path d="M94.6939 13.1803V12.1391L94.3035 13.1803H94.2167L93.8263 12.1391V13.1803H93.6094V11.8354H93.9564L94.3035 12.7465L94.6505 11.8354H94.9976V13.1803H94.6939Z" fill="#E43225"/>
<path d="M12.0901 23.6796L10.7886 20.209H3.76066L2.45919 23.6796H0.59375L6.23346 9.14648H8.27242L13.8688 23.6796H12.0901ZM7.18787 11.2288L4.54155 18.4303H10.0511L7.18787 11.2288Z" fill="#F7971D"/>
<path d="M15.0391 23.6796V9.14648H16.8611V23.6796H15.0391Z" fill="#F7971D"/>
<path d="M19.5938 23.6796V13.3979H21.4158V23.6796H19.5938Z" fill="#F7971D"/>
<path d="M23.1528 10.0573C23.1528 10.0139 23.1528 10.0139 23.1528 9.97054C23.1528 9.92716 23.1528 9.92716 23.1528 9.88377C21.7646 9.84039 20.6367 8.71245 20.5933 7.32422C20.5499 7.32422 20.5065 7.32422 20.4631 7.32422C20.4198 7.32422 20.3764 7.32422 20.333 7.32422C20.2896 8.71245 19.1617 9.84039 17.7734 9.88377C17.7734 9.92716 17.7734 9.92716 17.7734 9.97054C17.7734 10.0139 17.7734 10.0139 17.7734 10.0573C19.1617 10.1007 20.2896 11.2286 20.333 12.6169C20.3764 12.6169 20.4198 12.6169 20.4631 12.6169C20.5065 12.6169 20.5499 12.6169 20.5933 12.6169C20.6367 11.2286 21.7646 10.1007 23.1528 10.0573Z" fill="#F7971D"/>
</g>
<defs>
<clipPath id="clip0_10717_13644">
<rect width="94.4" height="21.9515" fill="white" transform="translate(0.601562 7.32422)"/>
</clipPath>
</defs>
</svg>
