<svg width="74" height="36" viewBox="0 0 74 36" fill="none" xmlns="http://www.w3.org/2000/svg">
<g clip-path="url(#clip0_10717_13735)">
<mask id="mask0_10717_13735" style="mask-type:luminance" maskUnits="userSpaceOnUse" x="0" y="0" width="74" height="36">
<path d="M0 0H73.773V36H0V0Z" fill="white"/>
</mask>
<g mask="url(#mask0_10717_13735)">
<path fill-rule="evenodd" clip-rule="evenodd" d="M45.7715 29.2697C41.4845 32.4337 35.2715 34.1157 29.9195 34.1157C22.4195 34.1157 15.6665 31.3437 10.5555 26.7287C10.1555 26.3667 10.5125 25.8717 10.9955 26.1517C16.5085 29.3607 23.3275 31.2926 30.3695 31.2926C35.1205 31.2926 40.3425 30.3066 45.1485 28.2686C45.8725 27.9616 46.4805 28.7447 45.7715 29.2697Z" fill="#EC912D"/>
<path fill-rule="evenodd" clip-rule="evenodd" d="M47.5486 27.2338C46.9996 26.5318 43.9246 26.9018 42.5426 27.0668C42.1236 27.1168 42.0596 26.7508 42.4356 26.4868C44.8896 24.7628 48.9106 25.2608 49.3776 25.8368C49.8476 26.4198 49.2536 30.4508 46.9546 32.3738C46.6006 32.6698 46.2646 32.5118 46.4216 32.1208C46.9386 30.8288 48.0976 27.9358 47.5486 27.2338Z" fill="#EC912D"/>
<path fill-rule="evenodd" clip-rule="evenodd" d="M42.643 14.3118V12.6378C42.6416 12.5816 42.6517 12.5258 42.6726 12.4737C42.6934 12.4216 42.7247 12.3742 42.7645 12.3346C42.8042 12.2949 42.8516 12.2637 42.9038 12.243C42.956 12.2222 43.0119 12.2123 43.068 12.2138H50.573C50.813 12.2138 51.006 12.3868 51.006 12.6358V14.0718C51.003 14.3118 50.8 14.6268 50.441 15.1258L46.553 20.6758C47.996 20.6428 49.523 20.8588 50.833 21.5958C51.129 21.7618 51.209 22.0078 51.232 22.2498V24.0368C51.232 24.2818 50.962 24.5668 50.679 24.4188C48.369 23.2088 45.304 23.0768 42.749 24.4338C42.488 24.5728 42.215 24.2918 42.215 24.0458V22.3468C42.215 22.0748 42.22 21.6108 42.495 21.1968L46.999 14.7338H43.077C43.0204 14.7361 42.9639 14.7269 42.911 14.7066C42.8581 14.6864 42.8099 14.6556 42.7693 14.6161C42.7287 14.5766 42.6965 14.5293 42.6748 14.4769C42.6531 14.4246 42.6423 14.3684 42.643 14.3118ZM15.266 24.7708H12.983C12.8798 24.7663 12.7817 24.7248 12.7066 24.6539C12.6316 24.583 12.5845 24.4875 12.574 24.3848L12.576 12.6658C12.5772 12.6092 12.5895 12.5535 12.6122 12.5017C12.635 12.4499 12.6678 12.4031 12.7086 12.364C12.7495 12.3249 12.7977 12.2942 12.8504 12.2738C12.9032 12.2533 12.9594 12.2435 13.016 12.2448L15.143 12.2438C15.2485 12.2471 15.349 12.2891 15.4256 12.3617C15.5021 12.4344 15.5492 12.5326 15.558 12.6378V14.1678H15.601C16.155 12.6878 17.2 11.9978 18.606 11.9978C20.034 11.9978 20.929 12.6878 21.569 14.1678C22.123 12.6878 23.381 11.9978 24.723 11.9978C25.683 11.9978 26.727 12.3918 27.366 13.2798C28.091 14.2658 27.942 15.6958 27.942 16.9538L27.94 24.3488C27.939 24.4054 27.9267 24.4613 27.904 24.5132C27.8813 24.5651 27.8486 24.612 27.8077 24.6512C27.7668 24.6905 27.7186 24.7212 27.6658 24.7417C27.613 24.7622 27.5566 24.7721 27.5 24.7708H25.219C25.11 24.7662 25.0069 24.7202 24.9307 24.6421C24.8545 24.5641 24.8109 24.4599 24.809 24.3508V18.1368C24.809 17.6448 24.851 16.4118 24.744 15.9428C24.574 15.1528 24.063 14.9318 23.402 14.9318C22.848 14.9318 22.272 15.3018 22.037 15.8928C21.803 16.4848 21.824 17.4708 21.824 18.1368V24.3488C21.823 24.4054 21.8107 24.4613 21.788 24.5132C21.7653 24.5651 21.7326 24.612 21.6917 24.6512C21.6508 24.6905 21.6026 24.7212 21.5498 24.7417C21.497 24.7622 21.4406 24.7721 21.384 24.7708H19.104C18.995 24.7662 18.8919 24.7202 18.8157 24.6421C18.7395 24.5641 18.6959 24.4599 18.694 24.3508L18.691 18.1368C18.691 16.8308 18.904 14.9068 17.285 14.9068C15.643 14.9068 15.707 16.7808 15.707 18.1368V24.3488C15.706 24.4054 15.6937 24.4613 15.671 24.5132C15.6483 24.5651 15.6156 24.612 15.5747 24.6512C15.5338 24.6905 15.4856 24.7212 15.4328 24.7417C15.38 24.7622 15.3236 24.7721 15.267 24.7708H15.266ZM57.488 14.3898C55.804 14.3898 55.698 16.6818 55.698 18.1128C55.698 19.5428 55.676 22.6008 57.467 22.6008C59.237 22.6008 59.321 20.1348 59.321 18.6308C59.321 17.6448 59.279 16.4608 58.98 15.5238C58.724 14.7098 58.212 14.3898 57.488 14.3898ZM57.467 11.9968C60.856 11.9968 62.688 14.9068 62.688 18.6068C62.688 22.1818 60.664 25.0178 57.467 25.0178C54.142 25.0178 52.33 22.1078 52.33 18.4828C52.33 14.8328 54.163 11.9968 57.467 11.9968ZM67.084 24.7708H64.808C64.699 24.7662 64.5959 24.7202 64.5197 24.6421C64.4435 24.5641 64.3999 24.4599 64.398 24.3508L64.395 12.6268C64.4074 12.5199 64.4593 12.4214 64.5405 12.3508C64.6217 12.2801 64.7264 12.2423 64.834 12.2448L66.951 12.2438C67.151 12.2538 67.316 12.3898 67.357 12.5718V14.3648H67.4C68.04 12.7608 68.934 11.9968 70.512 11.9968C71.535 11.9968 72.537 12.3668 73.176 13.3788C73.773 14.3148 73.773 15.8928 73.773 17.0278V24.4018C73.7577 24.5063 73.7047 24.6015 73.624 24.6697C73.5434 24.7378 73.4406 24.7741 73.335 24.7718H71.047C70.9466 24.7674 70.851 24.728 70.7766 24.6604C70.7023 24.5928 70.6539 24.5013 70.64 24.4018V18.0398C70.64 16.7568 70.79 14.8828 69.212 14.8828C68.658 14.8828 68.146 15.2528 67.891 15.8198C67.571 16.5348 67.528 17.2498 67.528 18.0398V24.3498C67.5238 24.4643 67.4748 24.5726 67.3916 24.6513C67.3084 24.7301 67.1986 24.773 67.084 24.7708ZM38.962 24.7418C38.8884 24.8052 38.7971 24.8444 38.7004 24.8539C38.6037 24.8633 38.5065 24.8427 38.422 24.7948C37.665 24.1648 37.529 23.8738 37.114 23.2728C35.861 24.5498 34.974 24.9328 33.35 24.9328C31.427 24.9328 29.932 23.7468 29.932 21.3748C29.932 19.5208 30.936 18.2608 32.367 17.6428C33.605 17.0988 35.336 16.9998 36.661 16.8508V16.5548C36.661 16.0108 36.703 15.3688 36.383 14.8988C36.105 14.4788 35.571 14.3058 35.101 14.3058C34.231 14.3058 33.456 14.7518 33.266 15.6768C33.226 15.8828 33.076 16.0868 32.869 16.0968L30.656 15.8568C30.469 15.8148 30.262 15.6648 30.316 15.3798C30.824 12.6948 33.249 11.8838 35.421 11.8838C36.532 11.8838 37.984 12.1798 38.861 13.0208C39.971 14.0588 39.864 15.4428 39.864 16.9508V20.5068C39.864 21.5778 40.309 22.0468 40.726 22.6228C40.872 22.8318 40.904 23.0788 40.718 23.2308C40.1288 23.7293 39.5454 24.2346 38.968 24.7468L38.962 24.7418ZM36.66 19.1748C36.66 20.0648 36.682 20.8048 36.233 21.5968C35.87 22.2388 35.293 22.6348 34.653 22.6348C33.777 22.6348 33.264 21.9668 33.264 20.9788C33.264 19.0338 35.009 18.6808 36.66 18.6808V19.1748ZM9.03 24.7418C8.95637 24.8051 8.86501 24.8442 8.76838 24.8536C8.67174 24.8631 8.57453 24.8426 8.49 24.7948C7.732 24.1648 7.596 23.8738 7.182 23.2728C5.928 24.5498 5.041 24.9328 3.418 24.9328C1.495 24.9328 0 23.7468 0 21.3748C0 19.5208 1.004 18.2608 2.435 17.6428C3.674 17.0988 5.404 16.9998 6.728 16.8508V16.5548C6.728 16.0108 6.771 15.3688 6.451 14.8988C6.173 14.4788 5.639 14.3058 5.169 14.3058C4.299 14.3058 3.524 14.7518 3.334 15.6768C3.294 15.8828 3.144 16.0868 2.937 16.0968L0.724 15.8568C0.537 15.8148 0.329 15.6648 0.384 15.3798C0.892 12.6948 3.316 11.8838 5.489 11.8838C6.6 11.8838 8.052 12.1798 8.929 13.0208C10.039 14.0588 9.932 15.4428 9.932 16.9508V20.5068C9.932 21.5778 10.376 22.0468 10.794 22.6228C10.939 22.8318 10.973 23.0788 10.787 23.2308C10.197 23.7292 9.61299 24.2345 9.035 24.7468L9.03 24.7418ZM6.728 19.1748C6.728 20.0648 6.749 20.8048 6.301 21.5968C5.938 22.2388 5.361 22.6348 4.721 22.6348C3.845 22.6348 3.331 21.9668 3.331 20.9788C3.331 19.0338 5.077 18.6808 6.728 18.6808V19.1748Z" fill="#0A0B09"/>
</g>
</g>
<defs>
<clipPath id="clip0_10717_13735">
<rect width="74" height="36" fill="white"/>
</clipPath>
</defs>
</svg>
