<svg width="51" height="36" viewBox="0 0 51 36" fill="none" xmlns="http://www.w3.org/2000/svg">
<g clip-path="url(#clip0_10717_13743)">
<mask id="mask0_10717_13743" style="mask-type:luminance" maskUnits="userSpaceOnUse" x="0" y="0" width="51" height="36">
<path d="M0 0H50.657V36H0V0Z" fill="white"/>
</mask>
<g mask="url(#mask0_10717_13743)">
<path d="M5.43 7.82589V14.6389C5.43 14.6389 7.831 14.6389 9.116 14.5409C10.126 14.3639 10.313 14.2669 10.499 13.2569L10.87 11.7769H11.97L11.783 15.0109L11.881 18.3239H10.773L10.499 17.0299C10.224 16.1099 9.852 15.9219 9.116 15.8339C8.196 15.7359 5.431 15.7359 5.431 15.7359V21.4509C5.431 22.5499 5.989 23.0189 7.273 23.0189H11.145C12.341 23.0189 13.537 22.9219 14.282 21.1759L15.282 18.9619H16.212C16.115 19.4219 15.655 23.4799 15.566 24.3919C15.566 24.3919 12.066 24.3039 10.596 24.3039H3.96L0 24.3919V23.3909L1.285 23.1079C2.215 22.9219 2.489 22.6479 2.489 21.9109C2.489 21.9109 2.587 19.4219 2.587 15.2749C2.587 11.1379 2.489 8.64789 2.489 8.64789C2.489 7.82289 2.215 7.63789 1.285 7.45189L0 7.17889V6.16989L3.871 6.24989H11.242C12.713 6.24989 15.193 5.98389 15.193 5.98389C15.193 5.98389 15.105 7.54389 15.007 11.2289H13.997L13.625 9.93489C13.262 8.27789 12.712 7.45389 11.694 7.45389H5.9C5.43 7.45389 5.43 7.54289 5.43 7.82589ZM20.35 8.55289H21.457V12.4239L25.241 12.2379L25.055 13.9919L21.369 13.7089V20.5309C21.369 22.4619 22.015 23.2059 23.123 23.2059C24.125 23.2059 24.869 22.6479 25.143 22.1879L25.692 22.8339C25.143 24.1189 23.584 24.7649 22.104 24.7649C20.27 24.7649 18.781 23.6669 18.781 21.5489V13.8049H16.584V12.8849C18.427 12.6979 19.801 11.5909 20.35 8.55289ZM28.279 20.4329L29.013 22.1869C29.288 22.9219 29.934 23.6669 31.405 23.6669C32.973 23.6669 33.62 22.8339 33.62 21.8239C33.62 18.6869 27.445 19.6089 27.445 15.3739C27.445 12.9819 29.376 11.8649 31.865 11.8649C32.973 11.8649 34.63 12.0509 35.462 12.4229C35.276 13.3429 35.179 14.5399 35.179 15.4629L34.266 15.5509L33.62 13.7079C33.434 13.2569 32.69 12.8829 31.777 12.8829C30.669 12.8829 29.562 13.3429 29.562 14.5399C29.562 17.3929 35.922 16.7549 35.922 20.9899C35.922 23.3909 33.806 24.6759 31.219 24.6759C29.288 24.6759 27.347 23.9319 27.347 23.9319C27.533 22.8329 27.445 21.6379 27.347 20.4319H28.279V20.4329ZM35.464 29.2739C35.738 28.2639 35.924 26.9799 36.11 25.7739L37.12 25.6859L37.492 27.6169C37.581 28.0769 37.855 28.4499 38.592 28.4499C39.788 28.4499 41.356 27.7149 42.835 25.1359C42.179 23.5679 40.248 18.5089 38.494 14.6379C38.034 13.6189 37.944 13.5299 37.306 13.3439L36.836 13.1669V12.2369L39.609 12.3349L43.011 12.1489V13.0699L42.179 13.2569C41.533 13.3449 41.266 13.7069 41.266 14.0809C41.266 14.1779 41.266 14.2669 41.355 14.4529C41.532 15.0109 43.012 19.1489 44.119 21.9129C45.032 19.9809 46.787 15.6489 47.061 14.9129C47.158 14.5409 47.247 14.4529 47.247 14.1779C47.247 13.7079 46.972 13.4339 46.334 13.2579L45.679 13.0699V12.1499L48.265 12.2379L50.657 12.1499V13.0699L50.197 13.4329C49.276 13.8049 49.178 13.8929 48.814 14.6379L44.766 24.1169C42.366 29.5569 39.876 30.0169 38.13 30.0169C37.023 30.0179 36.19 29.7349 35.464 29.2739Z" fill="#F45800"/>
</g>
</g>
<defs>
<clipPath id="clip0_10717_13743">
<rect width="51" height="36" fill="white"/>
</clipPath>
</defs>
</svg>
