<svg width="94" height="36" viewBox="0 0 94 36" fill="none" xmlns="http://www.w3.org/2000/svg">
<path d="M63.058 13.5022C67.231 13.5022 68.892 16.1762 68.892 19.5012C68.892 23.3892 66.273 25.5002 63.058 25.5002C59.12 25.5002 57.224 23.1432 57.224 19.5002C57.224 16.0702 58.687 13.5022 63.058 13.5022ZM75.937 13.5022C80.109 13.5022 81.771 16.1762 81.771 19.5012C81.771 23.3892 79.152 25.5002 75.937 25.5002C71.999 25.5002 70.103 23.1432 70.103 19.5002C70.103 16.0702 71.566 13.5022 75.937 13.5022ZM13.692 13.3432C15.065 13.3432 16.292 14.0472 17.178 15.1732V13.6782H20.538V25.0952H17.196L17.214 23.6182C16.329 24.7612 15.064 25.4822 13.692 25.4822C11 25.4822 8.815 23.1422 8.815 19.4122C8.815 15.6482 11 13.3432 13.692 13.3432ZM47.777 7.64322L47.759 15.1912C48.644 14.0472 49.909 13.3262 51.281 13.3262C53.972 13.3262 56.158 15.6662 56.158 19.3962C56.158 23.1602 53.972 25.4652 51.281 25.4652C49.908 25.4652 48.68 24.7612 47.795 23.6352V25.1482L44.309 25.0782V8.03022L47.777 7.64322ZM37.589 13.4132C44.084 13.4652 42.961 20.1762 42.885 20.5892L42.882 20.6092V20.5922H35.44C35.44 20.5922 35.277 22.6322 37.318 22.8082C39.341 22.9842 41.924 22.2102 41.924 22.2102L42.664 24.5152C42.664 24.5152 40.244 25.7112 37.065 25.3422C33.868 24.9722 32.008 23.8292 31.863 19.8882C31.863 19.8882 30.888 13.3772 37.589 13.4132ZM23.554 14.7682C25.524 13.0092 29.912 13.1852 31.357 14.2232L30.509 16.6862C30.509 16.6862 29.876 16.0702 28.069 16.0882C28.069 16.0882 25.397 15.9292 25.397 19.3082V19.4832C25.397 22.8432 28.07 22.7032 28.07 22.7032C29.876 22.7382 30.509 22.1232 30.509 22.1052L31.357 24.5682C29.894 25.6062 25.523 25.7812 23.554 24.0222C21.856 22.5092 21.856 20.0292 21.892 19.3952C21.856 18.7622 21.856 16.2992 23.554 14.7682ZM86.54 7.60822V18.7802L90.098 13.6422H93.838L90.188 19.3782L94 25.1302H90.387L86.54 19.2902V25.1302H83.036V7.96022L86.54 7.60822ZM6.369 7.50222H8.833V10.2822H7.26C7.26 10.2822 5.833 10.0892 5.833 11.4262V13.6072H8.832L8.471 16.6332H5.816V25.0782H2.348V16.5802H0V13.6062H2.439V11.0732C2.439 11.0732 2.131 9.68322 3.414 8.54022C4.647 7.44022 6.248 7.49622 6.369 7.50222ZM14.758 16.1232C13.529 16.1232 12.518 17.2132 12.518 18.3572V20.5392C12.518 21.6822 13.511 22.7732 14.758 22.7732C15.986 22.7732 16.998 21.6832 16.998 20.5392V18.3572C16.998 17.2142 16.004 16.1232 14.758 16.1232ZM63.022 16.0702C61.739 16.0702 60.71 17.1612 60.71 18.3052V20.4862C60.71 21.6302 61.757 22.7202 63.022 22.7202C64.304 22.7202 65.334 21.6302 65.334 20.4862V18.3052C65.334 17.1612 64.286 16.0702 63.022 16.0702ZM75.901 16.0702C74.618 16.0702 73.589 17.1612 73.589 18.3052V20.4862C73.589 21.6302 74.636 22.7202 75.901 22.7202C77.183 22.7202 78.213 21.6302 78.213 20.4862V18.3052C78.213 17.1612 77.165 16.0702 75.901 16.0702ZM50.233 16.0532C49.005 16.0532 47.993 17.1432 47.993 18.2872V20.4682C47.993 21.6122 49.005 22.7032 50.233 22.7032C51.462 22.7032 52.473 21.6122 52.473 20.4682V18.2872C52.473 17.1432 51.462 16.0532 50.233 16.0532ZM37.535 15.7712C35.187 15.7712 35.367 18.3052 35.367 18.3052H39.703C39.703 18.3052 39.883 15.7712 37.535 15.7712Z" fill="#0076FB"/>
</svg>
