<svg width="124" height="36" viewBox="0 0 124 36" fill="none" xmlns="http://www.w3.org/2000/svg">
<path d="M39.2683 16.3548V14.6978H36.6883V24.5528H39.2683V18.6438C39.2683 17.5738 39.9663 17.0478 41.0533 17.0478H42.4663V14.6978H41.2603C40.3153 14.6978 39.4943 15.1828 39.2683 16.3548ZM44.8843 10.7998C44.0013 10.7998 43.3243 11.4858 43.3243 12.3548C43.3243 13.2038 44.0013 13.8898 44.8843 13.8898C45.7673 13.8898 46.4443 13.2038 46.4443 12.3548C46.4443 11.4858 45.7673 10.7998 44.8843 10.7998ZM43.5963 24.5538H46.1723V14.6978H43.5973V24.5538H43.5963ZM58.4403 19.6258C58.4403 22.4388 56.1223 24.7198 53.2623 24.7198C52.1083 24.7198 51.0623 24.3478 50.2233 23.7198V27.4468H47.6483V14.6978H50.2233V15.5318C51.0633 14.9038 52.1093 14.5318 53.2633 14.5318C56.1223 14.5318 58.4403 16.8118 58.4403 19.6258ZM55.8483 19.6258C55.8483 18.0978 54.5883 16.8588 53.0363 16.8588C51.4833 16.8588 50.2233 18.0988 50.2233 19.6258C50.2233 21.1528 51.4833 22.3928 53.0363 22.3928C54.5883 22.3928 55.8483 21.1548 55.8483 19.6258ZM103.201 18.7608L101.699 18.3558C100.71 18.1018 100.326 17.8038 100.326 17.2898C100.326 16.7898 100.867 16.4388 101.641 16.4388C102.379 16.4388 102.957 16.9138 102.957 17.5218V17.5778H105.331V17.5218C105.331 15.7328 103.849 14.5318 101.641 14.5318C99.4563 14.5318 97.8683 15.7318 97.8683 17.3868C97.8683 18.6738 98.7353 19.6448 100.248 20.0468L101.687 20.4338C102.78 20.7318 103.187 21.0618 103.187 21.6538C103.187 22.2788 102.599 22.6988 101.725 22.6988C100.814 22.6988 100.201 22.1308 100.201 21.2888V21.2318H97.6813V21.2878C97.6813 23.3098 99.3353 24.7228 101.705 24.7228C103.987 24.7228 105.644 23.3428 105.644 21.4428C105.644 20.5108 105.22 19.2908 103.201 18.7608ZM67.5763 14.6978H70.1513V24.5528H67.5763V23.7188C66.6988 24.3742 65.6315 24.7256 64.5363 24.7198C61.6773 24.7198 59.3593 22.4398 59.3593 19.6258C59.3593 16.8118 61.6773 14.5318 64.5373 14.5318C65.6903 14.5318 66.7373 14.9038 67.5763 15.5318V14.6978ZM67.5763 19.6258C67.5763 18.0958 66.3163 16.8588 64.7633 16.8588C63.2113 16.8588 61.9513 18.0988 61.9513 19.6258C61.9513 21.1528 63.2113 22.3928 64.7633 22.3928C66.3173 22.3928 67.5763 21.1548 67.5763 19.6258ZM79.4503 11.1908H82.0263V24.5548H79.4503V23.7208C78.6123 24.3488 77.5653 24.7208 76.4113 24.7208C73.5523 24.7208 71.2343 22.4408 71.2343 19.6268C71.2343 16.8138 73.5523 14.5328 76.4113 14.5328C77.5653 14.5328 78.6113 14.9048 79.4513 15.5328L79.4503 11.1908ZM79.4503 19.6258C79.4503 18.0978 78.1903 16.8588 76.6383 16.8588C75.0853 16.8588 73.8263 18.0988 73.8263 19.6258C73.8263 21.1528 75.0843 22.3928 76.6383 22.3928C78.1913 22.3928 79.4503 21.1548 79.4503 19.6258ZM93.9833 24.5538H96.5583V14.6978H93.9833V24.5538ZM95.2713 10.7998C94.3883 10.7998 93.7113 11.4858 93.7113 12.3548C93.7113 13.2038 94.3883 13.8898 95.2713 13.8898C96.1543 13.8898 96.8313 13.2038 96.8313 12.3548C96.8313 11.4858 96.1543 10.7998 95.2713 10.7998ZM116.776 19.6258C116.776 22.4388 114.458 24.7198 111.599 24.7198C108.739 24.7198 106.421 22.4398 106.421 19.6258C106.421 16.8118 108.739 14.5318 111.599 14.5318C114.458 14.5318 116.776 16.8118 116.776 19.6258ZM114.411 19.6258C114.411 18.0978 113.151 16.8588 111.599 16.8588C110.046 16.8588 108.786 18.0988 108.786 19.6258C108.786 21.1528 110.045 22.3928 111.599 22.3928C113.151 22.3928 114.411 21.1548 114.411 19.6258ZM37.9503 11.1898H28.0703V13.4498H31.7283V24.5518H34.2943V13.4508H37.9513V11.1908H37.9503V11.1898ZM87.9103 21.8528L85.6203 14.6968H82.9153L86.3513 24.5528H89.4513L92.9073 14.6968H90.2033L87.9123 21.8528H87.9103ZM120.549 16.3528V14.6968H117.968V24.5518H120.549V18.6428C120.549 17.5728 121.247 17.0468 122.334 17.0468H123.747V14.6968H122.54C121.595 14.6968 120.776 15.1808 120.549 16.3528Z" fill="black"/>
<path d="M12 30C18.627 30 24 24.627 24 18C24 11.373 18.627 6 12 6C5.373 6 0 11.373 0 18C0 24.627 5.373 30 12 30Z" fill="#34E0A1"/>
<path d="M20.0304 15.3378L21.5994 13.6368H18.1194C16.3149 12.4086 14.1813 11.7543 11.9984 11.7598C9.72544 11.7598 7.62744 12.4518 5.88844 13.6368H2.39844L3.96844 15.3378C3.47503 15.7846 3.08075 16.3298 2.81102 16.9383C2.54129 17.5469 2.40211 18.2052 2.40244 18.8708C2.40244 21.5108 4.55044 23.6508 7.19944 23.6508C8.40791 23.6526 9.57239 23.1975 10.4594 22.3768L11.9984 24.0448L13.5354 22.3778C14.3914 23.1688 15.5354 23.6508 16.7944 23.6508C19.4434 23.6508 21.5944 21.5108 21.5944 18.8708C21.5957 18.2052 21.4571 17.5468 21.1877 16.9382C20.9183 16.3296 20.524 15.7843 20.0304 15.3378ZM7.20144 22.1058C6.77587 22.1066 6.35432 22.0235 5.96086 21.8614C5.56739 21.6992 5.20973 21.4611 4.9083 21.1607C4.60687 20.8603 4.36757 20.5035 4.20408 20.1105C4.04058 19.7176 3.95609 19.2964 3.95544 18.8708C3.95609 18.4452 4.04058 18.024 4.20408 17.6311C4.36757 17.2381 4.60687 16.8813 4.9083 16.5809C5.20973 16.2805 5.56739 16.0424 5.96086 15.8802C6.35432 15.7181 6.77587 15.635 7.20144 15.6358C7.627 15.635 8.04856 15.7181 8.44202 15.8802C8.83548 16.0424 9.19314 16.2805 9.49458 16.5809C9.79601 16.8813 10.0353 17.2381 10.1988 17.6311C10.3623 18.024 10.4468 18.4452 10.4474 18.8708C10.4468 19.2964 10.3623 19.7176 10.1988 20.1105C10.0353 20.5035 9.79601 20.8603 9.49458 21.1607C9.19314 21.4611 8.83548 21.6992 8.44202 21.8614C8.04856 22.0235 7.627 22.1066 7.20144 22.1058ZM11.9994 18.7768C11.9994 16.6488 10.4464 14.8208 8.39644 14.0408C9.53768 13.5651 10.762 13.3207 11.9984 13.3218C13.2754 13.3218 14.4924 13.5788 15.6014 14.0408C13.5524 14.8228 11.9994 16.6488 11.9994 18.7768ZM16.7954 22.1068C16.3698 22.1076 15.9482 22.0245 15.5546 21.8623C15.1611 21.7001 14.8034 21.4619 14.5019 21.1614C14.2005 20.8608 13.9612 20.5039 13.7978 20.1109C13.6344 19.7178 13.55 19.2965 13.5494 18.8708C13.5501 18.4452 13.6346 18.024 13.7981 17.6311C13.9616 17.2381 14.2009 16.8813 14.5023 16.5809C14.8037 16.2805 15.1614 16.0424 15.5549 15.8802C15.9483 15.7181 16.3699 15.635 16.7954 15.6358C17.221 15.635 17.6426 15.7181 18.036 15.8802C18.4295 16.0424 18.7871 16.2805 19.0886 16.5809C19.39 16.8813 19.6293 17.2381 19.7928 17.6311C19.9563 18.024 20.0408 18.4452 20.0414 18.8708C20.0408 19.2964 19.9563 19.7176 19.7928 20.1105C19.6293 20.5035 19.39 20.8603 19.0886 21.1607C18.7871 21.4611 18.4295 21.6992 18.036 21.8614C17.6426 22.0235 17.221 22.1076 16.7954 22.1068ZM16.7954 17.1738C15.8554 17.1738 15.0944 17.9328 15.0944 18.8698C15.0944 19.8068 15.8554 20.5658 16.7954 20.5658C17.246 20.5663 17.6783 20.388 17.9974 20.07C18.3165 19.752 18.4964 19.3203 18.4974 18.8698C18.4964 18.4193 18.3165 17.9876 17.9974 17.6696C17.6783 17.3516 17.246 17.1733 16.7954 17.1738ZM8.90344 18.8708C8.90344 19.8078 8.14144 20.5668 7.20144 20.5668C6.26144 20.5668 5.50044 19.8078 5.50044 18.8708C5.50044 17.9348 6.26144 17.1758 7.20144 17.1758C7.42454 17.1751 7.64559 17.2185 7.85192 17.3033C8.05826 17.3882 8.24584 17.5129 8.40392 17.6704C8.56201 17.8278 8.6875 18.0149 8.77321 18.2208C8.85892 18.4268 8.90318 18.6477 8.90344 18.8708Z" fill="black"/>
</svg>
