<svg width="107" height="36" viewBox="0 0 107 36" fill="none" xmlns="http://www.w3.org/2000/svg">
<g clip-path="url(#clip0_10717_13629)">
<path d="M28.1272 13.5142H38.9517V15.5293H34.6897V26.8887H32.3536V15.5293H28.1094L28.1272 13.5142ZM38.488 17.2055H40.4853V19.078H40.521C40.5923 18.8105 40.7171 18.5608 40.8954 18.3112C41.0738 18.0615 41.2878 17.8297 41.5553 17.6335C41.8049 17.4195 42.0902 17.259 42.4112 17.1342C42.7144 17.0094 43.0354 16.938 43.3564 16.938C43.606 16.938 43.7843 16.9559 43.8735 16.9559C43.9627 16.9737 44.0697 16.9915 44.1588 16.9915V19.0423C44.0162 19.0066 43.8557 18.9888 43.6952 18.971C43.5347 18.9531 43.392 18.9353 43.2315 18.9353C42.8749 18.9353 42.5361 19.0066 42.2151 19.1493C41.8941 19.292 41.6266 19.506 41.3769 19.7734C41.1451 20.0588 40.9489 20.3976 40.8063 20.8077C40.6636 21.2179 40.5923 21.6994 40.5923 22.2344V26.8352H38.4524L38.488 17.2055ZM53.9668 26.8887H51.8626V25.5334H51.8269C51.5594 26.0327 51.1671 26.4072 50.6499 26.7104C50.1328 27.0135 49.5978 27.1562 49.0628 27.1562C47.7967 27.1562 46.8694 26.853 46.2988 26.2111C45.7281 25.5869 45.4428 24.6239 45.4428 23.3578V17.2055H47.5827V23.1438C47.5827 23.9998 47.7432 24.6061 48.082 24.9449C48.403 25.3016 48.8667 25.4799 49.4552 25.4799C49.901 25.4799 50.2755 25.4086 50.5786 25.2659C50.8818 25.1233 51.1314 24.9449 51.3098 24.7131C51.5059 24.4813 51.6307 24.196 51.7199 23.875C51.8091 23.554 51.8447 23.1973 51.8447 22.8228V17.2055H53.9847V26.8887H53.9668ZM57.6047 23.7858C57.676 24.41 57.9079 24.8379 58.318 25.1054C58.7282 25.3551 59.2275 25.4799 59.7981 25.4799C59.9943 25.4799 60.2261 25.4621 60.4758 25.4264C60.7254 25.3908 60.9751 25.3373 61.1891 25.2481C61.4209 25.1589 61.5992 25.0341 61.7419 24.8558C61.8846 24.6774 61.9559 24.4635 61.9381 24.196C61.9202 23.9285 61.8311 23.6966 61.6349 23.5183C61.4388 23.34 61.2069 23.2152 60.9216 23.0903C60.6363 22.9833 60.2975 22.8942 59.923 22.8228C59.5485 22.7515 59.174 22.6624 58.7817 22.5732C58.3894 22.484 57.997 22.377 57.6225 22.2522C57.2481 22.1274 56.9271 21.9669 56.6239 21.735C56.3386 21.5211 56.0889 21.2536 55.9284 20.9147C55.7501 20.5759 55.6609 20.1836 55.6609 19.6843C55.6609 19.1493 55.7858 18.7213 56.0533 18.3647C56.3029 18.008 56.6417 17.7227 57.0341 17.5087C57.4264 17.2947 57.8722 17.1342 58.3537 17.045C58.8352 16.9559 59.2988 16.9202 59.7268 16.9202C60.2261 16.9202 60.7076 16.9737 61.1534 17.0807C61.5992 17.1877 62.0272 17.3482 62.3839 17.5979C62.7584 17.8297 63.0615 18.1507 63.2934 18.5252C63.543 18.8996 63.6857 19.3633 63.757 19.8983H61.5279C61.4209 19.3811 61.1891 19.0423 60.8324 18.864C60.458 18.6857 60.0478 18.5965 59.5663 18.5965C59.4237 18.5965 59.2275 18.6143 59.0313 18.6322C58.8173 18.6678 58.639 18.7035 58.4429 18.7748C58.2645 18.8461 58.104 18.9531 57.9792 19.078C57.8544 19.2028 57.783 19.3811 57.783 19.5951C57.783 19.8626 57.8722 20.0588 58.0505 20.2193C58.2289 20.3798 58.4607 20.5046 58.7638 20.6294C59.0492 20.7364 59.388 20.8256 59.7625 20.8969C60.137 20.9682 60.5293 21.0574 60.9216 21.1466C61.3139 21.2357 61.6884 21.3427 62.0629 21.4676C62.4374 21.5924 62.7762 21.7529 63.0615 21.9847C63.3469 22.1987 63.5965 22.4662 63.7748 22.7872C63.9532 23.1082 64.0423 23.5183 64.0423 23.982C64.0423 24.5526 63.9175 25.0341 63.65 25.4443C63.3825 25.8366 63.0437 26.1754 62.6335 26.4251C62.2234 26.6747 61.7419 26.853 61.2426 26.9779C60.7254 27.0849 60.2261 27.1562 59.7268 27.1562C59.1205 27.1562 58.5498 27.0849 58.0327 26.9422C57.5155 26.7995 57.0519 26.5856 56.6774 26.3181C56.3029 26.0327 55.9998 25.6939 55.7858 25.2659C55.5718 24.8558 55.447 24.3565 55.4291 23.768H57.5869V23.7858H57.6047ZM64.6486 17.2055H66.2714V14.281H68.4113V17.1877H70.3373V18.7748H68.4113V23.9463C68.4113 24.1781 68.4292 24.3565 68.447 24.5348C68.4648 24.6953 68.5183 24.8379 68.5718 24.9449C68.6432 25.0519 68.7502 25.1411 68.875 25.1946C69.0177 25.2481 69.196 25.2838 69.4456 25.2838C69.5883 25.2838 69.7488 25.2838 69.8915 25.2659C70.0341 25.2481 70.1946 25.2303 70.3373 25.1946V26.853C70.1055 26.8887 69.8736 26.9065 69.6418 26.9244C69.41 26.96 69.196 26.96 68.9463 26.96C68.3757 26.96 67.9299 26.9065 67.591 26.7995C67.2522 26.6926 66.9847 26.5321 66.7886 26.3359C66.5924 26.1219 66.4676 25.8722 66.3962 25.5691C66.3249 25.2659 66.2893 24.8914 66.2714 24.4991V18.7926H64.6486V17.1699V17.2055ZM71.8352 17.2055H73.8503V18.5252H73.886C74.1892 17.9545 74.5993 17.5622 75.1343 17.3125C75.6693 17.0629 76.2399 16.938 76.8819 16.938C77.6487 16.938 78.3085 17.0629 78.8792 17.3482C79.4498 17.6157 79.9135 17.9723 80.288 18.4538C80.6624 18.9175 80.9478 19.4703 81.1261 20.0944C81.3044 20.7186 81.4114 21.3962 81.4114 22.0917C81.4114 22.7515 81.3222 23.3757 81.1618 23.982C80.9834 24.5883 80.7338 25.1411 80.3949 25.6048C80.0561 26.0684 79.6281 26.4429 79.0932 26.7282C78.5582 27.0135 77.9519 27.1562 77.2386 27.1562C76.9354 27.1562 76.6144 27.1205 76.3112 27.067C76.0081 27.0135 75.7049 26.9244 75.4196 26.7995C75.1343 26.6747 74.8668 26.5142 74.635 26.3181C74.3853 26.1219 74.1892 25.8901 74.0287 25.6404H73.993V30.4731H71.8531V17.2055H71.8352ZM79.3072 22.056C79.3072 21.6281 79.2537 21.2001 79.1288 20.7899C79.0218 20.3798 78.8435 20.0231 78.6117 19.7021C78.3798 19.3811 78.0945 19.1315 77.7735 18.9353C77.4347 18.7392 77.0424 18.65 76.6144 18.65C75.7228 18.65 75.0451 18.9531 74.5815 19.5773C74.1357 20.2014 73.9038 21.0396 73.9038 22.0739C73.9038 22.5732 73.9573 23.019 74.0822 23.4292C74.207 23.8393 74.3675 24.196 74.6171 24.4991C74.849 24.8023 75.1343 25.0341 75.4731 25.2124C75.8119 25.3908 76.1864 25.4799 76.6322 25.4799C77.1316 25.4799 77.5239 25.3729 77.8627 25.1768C78.2015 24.9806 78.469 24.7131 78.7008 24.41C78.9148 24.089 79.0753 23.7323 79.1645 23.3222C79.2536 22.8942 79.3072 22.484 79.3072 22.056ZM83.0699 13.5142H85.2098V15.5293H83.0699V13.5142ZM83.0699 17.2055H85.2098V26.8887H83.0699V17.2055ZM87.1179 13.5142H89.2578V26.8887H87.1179V13.5142ZM95.7846 27.1562C95.0178 27.1562 94.3223 27.0314 93.716 26.7639C93.1097 26.4964 92.6104 26.1576 92.1824 25.7117C91.7722 25.2659 91.4512 24.7131 91.2372 24.089C91.0232 23.4648 90.8984 22.7693 90.8984 22.0382C90.8984 21.3071 91.0054 20.6294 91.2372 20.0053C91.4512 19.3811 91.7722 18.8461 92.1824 18.3825C92.5925 17.9367 93.1097 17.58 93.716 17.3304C94.3223 17.0807 95.0178 16.938 95.7846 16.938C96.5514 16.938 97.2469 17.0629 97.8532 17.3304C98.4595 17.58 98.9588 17.9367 99.3868 18.3825C99.797 18.8283 100.118 19.3811 100.332 20.0053C100.546 20.6294 100.671 21.3071 100.671 22.0382C100.671 22.7872 100.564 23.4648 100.332 24.089C100.1 24.7131 99.797 25.2481 99.3868 25.7117C98.9766 26.1576 98.4595 26.5142 97.8532 26.7639C97.2469 27.0135 96.5692 27.1562 95.7846 27.1562ZM95.7846 25.4621C96.2482 25.4621 96.6762 25.3551 97.0151 25.1589C97.3717 24.9628 97.6392 24.6953 97.871 24.3743C98.1028 24.0533 98.2633 23.6788 98.3703 23.2865C98.4773 22.8763 98.5308 22.4662 98.5308 22.0382C98.5308 21.6281 98.4773 21.2179 98.3703 20.8077C98.2633 20.3976 98.1028 20.0409 97.871 19.7199C97.6392 19.399 97.3539 19.1493 97.0151 18.9531C96.6584 18.757 96.2482 18.65 95.7846 18.65C95.3209 18.65 94.893 18.757 94.5541 18.9531C94.1975 19.1493 93.93 19.4168 93.6982 19.7199C93.4663 20.0409 93.3058 20.3976 93.1988 20.8077C93.0918 21.2179 93.0384 21.6281 93.0384 22.0382C93.0384 22.4662 93.0918 22.8763 93.1988 23.2865C93.3058 23.6966 93.4663 24.0533 93.6982 24.3743C93.93 24.6953 94.2153 24.9628 94.5541 25.1589C94.9108 25.3729 95.3209 25.4621 95.7846 25.4621ZM101.313 17.2055H102.936V14.281H105.075V17.1877H107.001V18.7748H105.075V23.9463C105.075 24.1781 105.093 24.3565 105.111 24.5348C105.129 24.6953 105.182 24.8379 105.236 24.9449C105.307 25.0519 105.414 25.1411 105.539 25.1946C105.682 25.2481 105.86 25.2838 106.11 25.2838C106.252 25.2838 106.413 25.2838 106.556 25.2659C106.698 25.2481 106.859 25.2303 107.001 25.1946V26.853C106.77 26.8887 106.538 26.9065 106.306 26.9244C106.074 26.96 105.86 26.96 105.61 26.96C105.04 26.96 104.594 26.9065 104.255 26.7995C103.916 26.6926 103.649 26.5321 103.453 26.3359C103.257 26.1219 103.132 25.8722 103.06 25.5691C102.989 25.2659 102.953 24.8914 102.936 24.4991V18.7926H101.313V17.1699V17.2055Z" fill="black"/>
<path d="M25.6178 13.5138H15.8277L12.8139 4.20508L9.78236 13.5138L-0.0078125 13.4959L7.90992 19.2559L4.87836 28.5646L12.7961 22.8046L20.7138 28.5646L17.7001 19.2559L25.6178 13.5138Z" fill="#00B67A"/>
<path d="M18.3841 21.3606L17.7065 19.2563L12.8203 22.8051L18.3841 21.3606Z" fill="#005128"/>
</g>
<defs>
<clipPath id="clip0_10717_13629">
<rect width="107" height="36" fill="white"/>
</clipPath>
</defs>
</svg>
