<svg width="60" height="36" viewBox="0 0 60 36" fill="none" xmlns="http://www.w3.org/2000/svg">
<mask id="mask0_10717_13758" style="mask-type:luminance" maskUnits="userSpaceOnUse" x="0" y="4" width="60" height="24">
<path d="M60 4.55469H0V27.5547H60V4.55469Z" fill="white"/>
</mask>
<g mask="url(#mask0_10717_13758)">
<path d="M48.1793 17.8764L49.1546 17.6542C49.1916 17.6419 49.2163 17.6419 49.2534 17.6295C49.8089 17.4814 50.1546 16.9135 50.0188 16.3579L50.0065 16.3456C49.9694 16.2221 49.92 16.0863 49.846 15.9876C49.7349 15.8518 49.5991 15.7406 49.4509 15.6419C49.2657 15.5431 49.0805 15.4567 48.883 15.3826L47.8213 14.9876C47.2287 14.7653 46.6237 14.5555 46.0188 14.3456C45.6237 14.2098 45.2904 14.0863 45.0065 13.9876C44.9571 13.9752 44.8954 13.9505 44.846 13.9382C44.5003 13.8271 44.2534 13.79 44.0435 13.79C43.9077 13.79 43.7719 13.8147 43.6361 13.8641C43.5003 13.9258 43.3768 14.0122 43.2781 14.111C43.2287 14.1604 43.1793 14.2221 43.1423 14.2839C43.0558 14.4073 42.9941 14.5555 42.9447 14.6913C42.7472 15.2715 42.6484 15.8888 42.6484 16.5061C42.6484 17.0616 42.6731 17.7777 42.9818 18.2715C43.0558 18.395 43.1546 18.5061 43.2657 18.5801C43.4879 18.7283 43.7102 18.753 43.9324 18.7653C44.2657 18.79 44.5991 18.7036 44.9324 18.6295L48.1793 17.8764ZM59.0188 12.716C58.7472 12.1604 58.4015 11.6542 57.9694 11.2098C57.9077 11.1604 57.8583 11.0987 57.7842 11.0616C57.7225 11.0122 57.6608 10.9752 57.5991 10.9382C57.5373 10.9011 57.4633 10.8764 57.4015 10.8394C57.2657 10.79 57.1176 10.7653 56.9694 10.7653C56.8336 10.7777 56.6978 10.8147 56.5744 10.8764C56.3892 10.9752 56.1916 11.1234 55.92 11.3703C55.883 11.4073 55.8336 11.4443 55.7966 11.4814C55.5744 11.6913 55.3274 11.9505 55.0435 12.2468C54.5991 12.7036 54.1546 13.1604 53.7102 13.6172L52.92 14.432C52.7719 14.5801 52.6484 14.7406 52.525 14.9135C52.4262 15.0616 52.3521 15.2221 52.3151 15.395C52.2904 15.5308 52.2904 15.6666 52.3274 15.79L52.3398 15.8024C52.4633 16.3703 53.0188 16.7283 53.5867 16.6172C53.6237 16.6048 53.6608 16.6048 53.6855 16.5925L57.883 15.6172C58.2163 15.5431 58.5497 15.469 58.846 15.2962C59.0435 15.1851 59.241 15.0616 59.3645 14.8271C59.4386 14.7036 59.4756 14.5555 59.4879 14.4197C59.5497 13.8641 59.2534 13.2221 59.0188 12.716ZM51.5003 14.4814C51.8089 14.0987 51.8089 13.5308 51.8336 13.0616C51.92 11.5061 52.0188 9.95052 52.0929 8.38262C52.1299 7.80237 52.1916 7.20978 52.1546 6.61719C52.1176 6.12336 52.1176 5.5678 51.8089 5.1604C51.2657 4.45669 50.0929 4.51842 49.3028 4.61719C49.0558 4.65422 48.8089 4.69126 48.5744 4.75299C48.3275 4.81472 48.0929 4.87645 47.8583 4.95052C47.0929 5.19743 46.0188 5.65422 45.8336 6.53077C45.7349 7.03694 45.9694 7.54311 46.167 7.98756C46.3892 8.54311 46.7102 9.03694 46.9941 9.55546C47.7349 10.9382 48.5003 12.2962 49.2657 13.6542C49.5003 14.0616 49.7472 14.5678 50.1793 14.7777C50.2163 14.79 50.241 14.8024 50.2657 14.8147C50.4633 14.8888 50.6855 14.9011 50.883 14.8518L50.92 14.8394C51.1052 14.79 51.2781 14.6789 51.4139 14.5431C51.4509 14.5308 51.4756 14.5061 51.5003 14.4814ZM51.1299 18.6542C50.883 18.3085 50.4509 18.1604 50.0435 18.2962C49.9941 18.3085 49.9571 18.3332 49.9077 18.3456C49.8336 18.3826 49.7719 18.4197 49.7225 18.469C49.5497 18.5925 49.4015 18.7653 49.2657 18.9382C49.2287 18.9752 49.204 19.0369 49.1546 19.074L48.4756 19.9999C48.0929 20.5184 47.7102 21.0369 47.3398 21.5678C47.0929 21.9135 46.883 22.1974 46.7102 22.4567C46.6731 22.5061 46.6484 22.5678 46.6114 22.6048C46.4139 22.9135 46.3028 23.1357 46.241 23.3332C46.204 23.469 46.1793 23.6172 46.204 23.753C46.2163 23.9011 46.2657 24.0369 46.3398 24.1604C46.3768 24.2221 46.4262 24.2839 46.4756 24.3456C46.5744 24.4567 46.6855 24.5678 46.8213 24.6542C47.2904 24.9752 47.7966 25.2098 48.3398 25.395C48.7842 25.5431 49.2534 25.6295 49.7225 25.6542C49.8089 25.6542 49.883 25.6542 49.9694 25.6542C50.0435 25.6419 50.1176 25.6419 50.1916 25.6172C50.2657 25.6048 50.3398 25.5801 50.4015 25.5555C50.6731 25.4567 50.8954 25.2468 50.9941 24.9752C51.0682 24.7777 51.1176 24.5308 51.1546 24.1604C51.1546 24.111 51.167 24.0493 51.167 23.9876C51.1916 23.6789 51.204 23.3209 51.2287 22.9011C51.2657 22.2592 51.2904 21.6172 51.3028 20.9629L51.3398 19.8147C51.3521 19.5431 51.3398 19.2592 51.2657 18.9876C51.2534 18.8764 51.204 18.7653 51.1299 18.6542ZM58.7596 20.4443C58.6238 20.2839 58.4139 20.1357 58.1052 19.9505C58.0558 19.9258 58.0065 19.8888 57.9571 19.8641C57.6978 19.7036 57.3768 19.5431 57.0065 19.3456C56.4386 19.0369 55.8707 18.7283 55.3028 18.432L54.2904 17.9011C54.241 17.8888 54.1793 17.8518 54.1299 17.8271C53.9324 17.7283 53.7225 17.6542 53.5126 17.6048C53.4386 17.5925 53.3645 17.5801 53.2904 17.5801C53.241 17.5801 53.1916 17.5801 53.1423 17.5925C52.7225 17.6542 52.4015 17.9752 52.3274 18.395C52.3151 18.5184 52.3151 18.6542 52.3398 18.7777C52.3892 19.0493 52.5126 19.3085 52.6361 19.5431L53.1793 20.5555C53.4756 21.1357 53.7842 21.6913 54.0929 22.2592C54.2904 22.6295 54.4633 22.9382 54.6237 23.2098C54.6484 23.2592 54.6855 23.3085 54.7102 23.3579C54.8954 23.6789 55.0558 23.8764 55.2163 24.0122C55.3151 24.111 55.4386 24.1851 55.562 24.2345C55.6978 24.2839 55.846 24.2962 55.9941 24.2839C56.0682 24.2715 56.1423 24.2592 56.2163 24.2468C56.2904 24.2221 56.3645 24.2098 56.4262 24.1851C56.5003 24.148 56.5744 24.1234 56.6361 24.0863C57.0558 23.8518 57.4262 23.5678 57.7595 23.2468C58.167 22.8518 58.525 22.4197 58.7966 21.9135C58.8336 21.8394 58.8707 21.7653 58.8954 21.6913C58.92 21.6172 58.9447 21.5555 58.9694 21.4814C58.9818 21.4073 58.9941 21.3332 59.0065 21.2592C59.0188 21.111 59.0065 20.9629 58.9571 20.8271C58.9324 20.6666 58.8583 20.5431 58.7596 20.4443Z" fill="#FF1A1A"/>
</g>
<mask id="mask1_10717_13758" style="mask-type:luminance" maskUnits="userSpaceOnUse" x="0" y="4" width="60" height="24">
<path d="M60 4.55469H0V27.5547H60V4.55469Z" fill="white"/>
</mask>
<g mask="url(#mask1_10717_13758)">
<path fill-rule="evenodd" clip-rule="evenodd" d="M23.8887 10.5922C23.8887 9.75274 24.5677 9.07373 25.3949 9.07373C26.2097 9.07373 26.864 9.75274 26.9011 10.6046V22.4441C26.9011 23.2836 26.222 23.9626 25.3949 23.9626C24.5677 23.9626 23.8887 23.2836 23.8887 22.4441V10.5922ZM22.4936 17.9009C22.4813 18.1355 22.4196 18.5676 22.1233 18.8885C21.7899 19.2342 21.3455 19.3083 21.0862 19.3083C20.0122 19.3206 18.9381 19.3206 17.864 19.3206C16.7899 19.3206 15.7159 19.3206 14.6418 19.333C14.7406 19.6293 14.9257 20.0737 15.3455 20.4811C15.6048 20.7281 15.8517 20.8639 15.9504 20.9256C16.0739 21.012 16.5307 21.2466 17.0739 21.2466C17.6541 21.2466 18.1727 21.0614 18.6788 20.8021L18.7159 20.7774C19.0739 20.5922 19.4319 20.4071 19.8146 20.3453C20.185 20.2836 20.5924 20.3577 20.8887 20.6169C21.2467 20.9256 21.3825 21.37 21.2467 21.8268C21.0986 22.3453 20.6665 22.7898 20.1973 23.0614C19.9381 23.2095 19.6541 23.3453 19.3702 23.4441C18.6418 23.7034 17.8764 23.8268 17.1109 23.8021C16.9257 23.8021 16.7282 23.8021 16.5307 23.7774C16.3208 23.7527 16.1109 23.7157 15.9011 23.654C15.5801 23.5799 15.2591 23.4811 14.9628 23.333C14.6665 23.1972 14.3825 23.0367 14.1109 22.8515C13.8393 22.654 13.5924 22.4441 13.3578 22.1972C13.1233 21.9626 12.9257 21.691 12.7406 21.4194C12.1109 20.4564 11.8146 19.2713 11.864 18.1108C11.9134 16.9873 12.2838 15.8515 12.9751 14.9379C13.0492 14.8268 13.1233 14.7281 13.2097 14.6293C13.2467 14.5922 13.2838 14.5552 13.3085 14.5058C14.148 13.4811 15.2714 13.1601 15.7406 13.0243L15.7652 13.012C16.7035 12.7404 17.7035 12.7404 18.6418 13.012C18.864 13.0737 20.1233 13.4564 21.0986 14.5058C21.148 14.5552 21.2714 14.7034 21.4443 14.9256C21.864 15.4935 22.1727 16.1355 22.3455 16.8145C22.4319 17.1231 22.4936 17.4688 22.4936 17.9009ZM15.6048 15.9626C15.148 16.3453 14.8146 16.8639 14.6912 17.4441H19.8023C19.6665 16.8639 19.3455 16.333 18.8764 15.9626C18.4072 15.5922 17.8393 15.3824 17.2344 15.3824C17.0245 15.3824 16.2961 15.4194 15.6048 15.9626ZM35.0615 12.8515C33.7159 12.8515 32.506 13.4441 31.6294 14.4194V14.3947C31.5801 12.4071 28.5801 12.4811 28.6418 14.4811V25.7898C28.6418 26.6169 29.3085 27.296 30.148 27.296C30.9751 27.296 31.6418 26.6293 31.6418 25.7898V22.2589C32.506 23.2219 33.7159 23.8392 35.0615 23.8392C37.7406 23.8392 39.9257 21.4071 39.9257 18.37C39.9257 15.3206 37.7406 12.8515 35.0615 12.8515ZM34.3949 21.3577C32.8764 21.3577 31.6294 20.0243 31.6294 18.37C31.6294 16.7034 32.864 15.37 34.3949 15.37C35.9257 15.37 37.1603 16.7034 37.1603 18.37C37.1603 20.0367 35.9257 21.3577 34.3949 21.3577ZM9.64179 19.1355L9.14797 20.2219C8.92574 20.691 8.70352 21.1725 8.49365 21.654C8.41957 21.8021 8.35784 21.9503 8.29611 22.0984C7.35784 24.1848 6.24673 26.6663 3.81463 27.1848C2.64179 27.4441 0.864016 27.0861 0.209695 25.9873C-0.444626 24.8639 0.530683 23.5799 1.7776 23.8762C1.97513 23.9132 2.17266 24.012 2.37019 24.1108C2.70352 24.2713 3.02451 24.4441 3.39488 24.37C3.72821 24.3083 3.95044 24.0614 4.20969 23.7527C4.49364 23.4071 4.70352 23.012 4.81463 22.5799C4.80229 22.5676 4.80229 22.5552 4.80229 22.5429C4.78994 22.5305 4.78994 22.5182 4.7776 22.5058C4.46895 21.9379 4.20969 21.4194 3.98747 20.9997C3.83932 20.7281 3.71587 20.4811 3.60476 20.2836L3.09858 19.3206C2.72821 18.6046 2.66648 18.4935 2.49365 18.1848C2.13562 17.4935 1.7529 16.8145 1.3455 16.1478C0.913399 15.4194 0.468954 14.6046 0.826979 13.7404C1.11093 13.049 1.87636 12.691 2.58007 12.9256C3.33315 13.1478 3.66649 13.8762 3.98747 14.5429C4.03686 14.6663 4.09858 14.7898 4.16031 14.9009C4.66648 15.9009 5.16031 16.9009 5.65414 17.9009C5.69118 17.9997 5.76525 18.1355 5.85167 18.296C5.92574 18.4441 6.01216 18.6169 6.09858 18.8021C6.14797 18.9009 6.185 18.9873 6.23439 19.0737C6.28377 19.1725 6.33315 19.2713 6.35784 19.3453C6.59241 18.7774 6.81463 18.2095 7.0492 17.6416C7.28377 17.0737 7.51834 16.5058 7.74056 15.9379C7.74056 15.9009 7.80229 15.7898 7.87636 15.6046C7.99982 15.333 8.12327 15.0614 8.23439 14.7898C8.54303 14.049 8.90105 13.1602 9.71587 12.9132C10.3085 12.7404 10.9381 12.9626 11.2961 13.4688C11.4813 13.7157 11.543 13.9997 11.5554 14.2836C11.5677 14.9132 11.2591 15.5799 10.9998 16.1478C10.9381 16.2836 10.8764 16.4194 10.827 16.5552L10.7899 16.6293C10.7159 16.7898 10.5183 17.2219 10.185 17.9503C10.0615 18.2095 9.95044 18.4688 9.82698 18.7281C9.7776 18.8515 9.70352 18.9997 9.64179 19.1355Z" fill="black"/>
</g>
</svg>
