<svg width="85" height="36" viewBox="0 0 85 36" fill="none" xmlns="http://www.w3.org/2000/svg">
<g clip-path="url(#clip0_10717_13618)">
<mask id="mask0_10717_13618" style="mask-type:luminance" maskUnits="userSpaceOnUse" x="0" y="0" width="85" height="36">
<path d="M0 0H84.515V36H0V0Z" fill="white"/>
</mask>
<g mask="url(#mask0_10717_13618)">
<path d="M20.778 13.43H10.916V16.357H17.91C17.565 20.461 14.15 22.211 10.928 22.211C6.805 22.211 3.208 18.967 3.208 14.42C3.208 9.99004 6.637 6.57904 10.938 6.57904C14.255 6.57904 16.21 8.69404 16.21 8.69404L18.259 6.57204C18.259 6.57204 15.629 3.64404 10.832 3.64404C4.725 3.64404 0 8.80004 0 14.367C0 19.824 4.445 25.144 10.988 25.144C16.744 25.144 20.957 21.202 20.957 15.372C20.957 14.142 20.778 13.43 20.778 13.43Z" fill="#4285F4"/>
<path d="M28.8533 11.312C24.8063 11.312 21.9062 14.475 21.9062 18.165C21.9062 21.909 24.7192 25.131 28.9002 25.131C32.6862 25.131 35.7873 22.238 35.7873 18.245C35.7873 13.669 32.1803 11.312 28.8533 11.312ZM28.8932 14.026C30.8832 14.026 32.7692 15.635 32.7692 18.227C32.7692 20.765 30.8913 22.419 28.8843 22.419C26.6793 22.419 24.9393 20.653 24.9393 18.207C24.9393 15.813 26.6572 14.026 28.8932 14.026Z" fill="#EA4335"/>
<path d="M43.9616 11.312C39.9156 11.312 37.0156 14.475 37.0156 18.165C37.0156 21.909 39.8286 25.131 44.0096 25.131C47.7946 25.131 50.8956 22.238 50.8956 18.245C50.8956 13.669 47.2886 11.312 43.9616 11.312ZM44.0016 14.026C45.9916 14.026 47.8776 15.635 47.8776 18.227C47.8776 20.765 46.0006 22.419 43.9926 22.419C41.7876 22.419 40.0476 20.653 40.0476 18.207C40.0476 15.813 41.7646 14.026 44.0016 14.026Z" fill="#FBBC05"/>
<path d="M58.7824 11.3188C55.0684 11.3188 52.1484 14.5718 52.1484 18.2228C52.1484 22.3828 55.5334 25.1408 58.7184 25.1408C60.6884 25.1408 61.7354 24.3588 62.5084 23.4608V24.8238C62.5084 27.2078 61.0604 28.6358 58.8754 28.6358C56.7654 28.6358 55.7064 27.0658 55.3384 26.1758L52.6824 27.2858C53.6254 29.2778 55.5214 31.3558 58.8974 31.3558C62.5904 31.3558 65.4054 29.0288 65.4054 24.1508V11.7338H62.5084V12.9038C61.6184 11.9438 60.3994 11.3188 58.7824 11.3188ZM59.0514 14.0278C60.8724 14.0278 62.7414 15.5818 62.7414 18.2378C62.7414 20.9368 60.8764 22.4248 59.0114 22.4248C57.0314 22.4248 55.1884 20.8168 55.1884 18.2638C55.1884 15.6108 57.1024 14.0278 59.0514 14.0278Z" fill="#4285F4"/>
<path d="M78.2897 11.3022C74.7857 11.3022 71.8438 14.0902 71.8438 18.2032C71.8438 22.5562 75.1237 25.1372 78.6257 25.1372C81.5497 25.1372 83.3437 23.5372 84.4147 22.1052L82.0257 20.5152C81.4057 21.4772 80.3697 22.4172 78.6407 22.4172C76.6977 22.4172 75.8047 21.3542 75.2507 20.3232L84.5167 16.4782L84.0368 15.3522C83.1408 13.1452 81.0527 11.3022 78.2897 11.3022ZM78.4097 13.9602C79.6727 13.9602 80.5807 14.6312 80.9667 15.4362L74.7797 18.0222C74.5127 16.0202 76.4097 13.9602 78.4097 13.9602Z" fill="#EA4335"/>
<path d="M67.4219 24.7269H70.4659V4.35889H67.4219V24.7269Z" fill="#34A853"/>
</g>
</g>
<defs>
<clipPath id="clip0_10717_13618">
<rect width="85" height="36" fill="white"/>
</clipPath>
</defs>
</svg>
