<svg width="93" height="36" viewBox="0 0 93 36" fill="none" xmlns="http://www.w3.org/2000/svg">
<g clip-path="url(#clip0_10826_18751)">
<g clip-path="url(#clip1_10826_18751)">
<path d="M20.8152 23.7226C20.2234 23.3463 19.5221 22.9002 18.8084 22.4444C18.5053 22.2509 18.1993 22.0546 17.9033 21.8648C17.1133 21.3585 16.2964 20.8348 15.4867 20.3297C15.3099 20.2211 15.1075 20.161 14.9 20.1556C13.3757 20.148 11.8667 20.148 10.4075 20.148H10.2415C9.38406 20.148 8.49732 20.148 7.62538 20.1467C7.10317 20.159 6.5905 20.0055 6.16102 19.7082C5.76245 19.4135 5.48174 18.9867 5.36914 18.504C5.3193 18.298 5.29437 18.0867 5.29489 17.8748C5.28734 15.4413 5.28718 12.9731 5.2941 10.5385C5.28382 10.0105 5.45204 9.49448 5.77153 9.07398C6.0915 8.6748 6.54405 8.40365 7.04696 8.30979C7.20593 8.28316 7.36682 8.26974 7.528 8.26968C7.55852 8.26968 7.58935 8.26968 7.61971 8.27109H8.36896C9.4808 8.27109 10.6103 8.27219 11.7027 8.27345H11.7556C12.8544 8.27455 13.9904 8.27565 15.1086 8.27565C17.5883 8.27565 19.4951 8.27015 21.2907 8.25772H21.3096C21.6235 8.25195 21.9354 8.3091 22.2269 8.42578C22.5185 8.54247 22.7837 8.71633 23.0069 8.93713C23.2227 9.16201 23.3912 9.42781 23.5027 9.71885C23.6141 10.0099 23.6662 10.3203 23.6558 10.6318C23.6173 13.2291 23.6179 15.5492 23.6578 17.7247C23.6717 18.052 23.6198 18.3789 23.5053 18.6858C23.3907 18.9928 23.2158 19.2736 22.9909 19.5119C22.793 19.7135 22.5566 19.8733 22.2957 19.9818C22.0349 20.0903 21.7549 20.1453 21.4724 20.1436C21.42 20.1436 21.3665 20.1417 21.3137 20.1381H21.2695C21.1189 20.1381 20.9663 20.1453 20.8158 20.1598V23.7226H20.8152ZM14.5508 9.57406C14.5014 9.66388 14.4543 9.74489 14.4128 9.81631C14.3362 9.94122 14.2679 10.071 14.2083 10.2049C13.8902 10.9697 13.5827 11.74 13.3239 12.3928C13.2966 12.4848 13.2411 12.5659 13.1653 12.6247C13.0895 12.6834 12.9971 12.717 12.9013 12.7205C12.1961 12.7782 11.6567 12.8298 11.1525 12.888C10.8945 12.9178 10.6334 12.9621 10.3817 13.0051C10.2687 13.0242 10.152 13.0442 10.0367 13.0626L10.0084 13.1959C10.1368 13.3598 10.2743 13.5164 10.4201 13.6651C10.9258 14.1309 11.4474 14.597 11.9519 15.0477L12.1305 15.2072C12.2102 15.2691 12.2693 15.3537 12.3002 15.4498C12.3311 15.5459 12.3322 15.649 12.3035 15.7458C12.1341 16.4891 11.9732 17.246 11.8236 17.9953C11.7956 18.1571 11.7783 18.3206 11.7718 18.4847C11.7657 18.5805 11.7594 18.6794 11.7495 18.7908C11.8426 18.7486 11.9274 18.7121 12.0021 18.6807C12.1312 18.6308 12.2563 18.571 12.3762 18.5018L12.5574 18.3898H12.5583C13.0647 18.0768 13.5884 17.7532 14.0834 17.4058C14.2271 17.2806 14.4108 17.2108 14.6014 17.2091C14.792 17.2074 14.977 17.2739 15.1229 17.3966C15.5901 17.7197 16.0865 18.0171 16.5668 18.305L16.5685 18.3061C16.6603 18.3611 16.752 18.4161 16.8437 18.4713C16.9646 18.5395 17.0903 18.5989 17.2198 18.649C17.2951 18.6805 17.3804 18.7164 17.4746 18.7592C17.4647 18.6528 17.4589 18.5584 17.4524 18.4673C17.4462 18.31 17.4286 18.1534 17.3999 17.9986C17.2426 17.2592 17.0696 16.5249 16.9025 15.815C16.8626 15.6904 16.8613 15.5567 16.899 15.4314C16.9366 15.306 17.0113 15.1951 17.1133 15.1131C17.7068 14.5902 18.2877 14.0444 18.7856 13.5737C18.8816 13.4773 18.9695 13.3732 19.0485 13.2624C19.0935 13.2031 19.1402 13.1418 19.193 13.0763C19.1273 13.0552 19.0694 13.0338 19.0183 13.015C18.9358 12.9798 18.8493 12.9551 18.7607 12.9413L18.7095 12.936C17.9363 12.8558 17.1364 12.773 16.3489 12.715C16.2233 12.7155 16.101 12.6755 16 12.6007C15.8991 12.526 15.825 12.4206 15.7889 12.3003C15.4993 11.5803 15.1982 10.8567 14.8937 10.1493C14.8358 10.0262 14.7678 9.90801 14.6905 9.79602C14.6488 9.73026 14.6005 9.65633 14.5508 9.57406Z" fill="#613983"/>
<path d="M14.6363 21.4349C12.3318 21.4454 10.0272 21.4457 7.72242 21.4359C7.39968 21.4404 7.07745 21.4087 6.76176 21.3415C5.98909 21.1727 5.29851 20.742 4.807 20.1224C4.3155 19.5028 4.05327 18.7323 4.06475 17.9415C4.05436 16.4567 4.0627 14.9712 4.0627 13.4394H4.0638C3.51496 13.4394 3.00167 13.4333 2.48854 13.4407C2.20448 13.4375 1.92258 13.4903 1.65895 13.5962C1.39531 13.702 1.15511 13.8587 0.952059 14.0574C0.749007 14.256 0.587086 14.4928 0.475545 14.754C0.364003 15.0153 0.305028 15.296 0.301987 15.58V15.6411C0.295171 17.7032 0.295171 19.7652 0.301987 21.8271C0.295107 22.1075 0.343528 22.3866 0.444488 22.6483C0.545447 22.91 0.696967 23.1493 0.890396 23.3524C1.08382 23.5556 1.31537 23.7187 1.57183 23.8323C1.82828 23.946 2.1046 24.008 2.38503 24.0149H2.45708C2.66551 24.0201 2.87425 24.0149 3.12594 24.0149V27.7217C3.26752 27.6142 3.35545 27.5486 3.44056 27.4804C4.80015 26.3972 6.15456 25.3088 7.52312 24.237C7.68737 24.1141 7.88546 24.0447 8.09052 24.0382C9.83913 24.0225 11.5879 24.0335 13.3365 24.0278C14.5578 24.0239 15.4468 23.2885 15.6175 22.1529C15.63 22.0692 15.6346 21.9268 15.5906 21.9012C15.2865 21.723 15.046 21.4331 14.6363 21.4349Z" fill="#613983"/>
</g>
<path d="M82.6074 26.4003V13.7523H84.6984V15.5883L84.4944 15.1293C84.8117 14.6307 85.2424 14.2453 85.7864 13.9733C86.3304 13.69 86.9594 13.5483 87.6734 13.5483C88.5461 13.5483 89.3337 13.7637 90.0364 14.1943C90.7391 14.625 91.2944 15.203 91.7024 15.9283C92.1217 16.6537 92.3314 17.4697 92.3314 18.3763C92.3314 19.2717 92.1274 20.0877 91.7194 20.8243C91.3114 21.561 90.7561 22.1447 90.0534 22.5753C89.3507 22.9947 88.5517 23.2043 87.6564 23.2043C86.9877 23.2043 86.3701 23.074 85.8034 22.8133C85.2481 22.5413 84.8061 22.156 84.4774 21.6573L84.8344 21.2153V26.4003H82.6074ZM87.4014 21.1643C87.9114 21.1643 88.3647 21.0453 88.7614 20.8073C89.1581 20.5693 89.4641 20.2407 89.6794 19.8213C89.9061 19.402 90.0194 18.9203 90.0194 18.3763C90.0194 17.8323 89.9061 17.3563 89.6794 16.9483C89.4641 16.529 89.1581 16.2003 88.7614 15.9623C88.3647 15.713 87.9114 15.5883 87.4014 15.5883C86.9141 15.5883 86.4721 15.7073 86.0754 15.9453C85.6901 16.1833 85.3841 16.5177 85.1574 16.9483C84.9421 17.3677 84.8344 17.8437 84.8344 18.3763C84.8344 18.9203 84.9421 19.402 85.1574 19.8213C85.3841 20.2407 85.6901 20.5693 86.0754 20.8073C86.4721 21.0453 86.9141 21.1643 87.4014 21.1643Z" fill="black"/>
<path d="M75.4713 23.2043C74.4966 23.2043 73.6296 23.0003 72.8703 22.5923C72.1223 22.1843 71.5329 21.6233 71.1023 20.9093C70.6716 20.1953 70.4563 19.385 70.4563 18.4783V10.3353H72.7683V18.3593C72.7683 18.8807 72.8816 19.351 73.1083 19.7703C73.3463 20.1897 73.6693 20.5183 74.0773 20.7563C74.4853 20.983 74.9499 21.0963 75.4713 21.0963C76.0039 21.0963 76.4686 20.983 76.8653 20.7563C77.2733 20.5183 77.5906 20.1897 77.8173 19.7703C78.0553 19.351 78.1743 18.8807 78.1743 18.3593V10.3353H80.4863V18.4783C80.4863 19.385 80.2709 20.1953 79.8403 20.9093C79.4096 21.6233 78.8146 22.1843 78.0553 22.5923C77.3073 23.0003 76.4459 23.2043 75.4713 23.2043Z" fill="black"/>
<path d="M58.9834 26.4003V13.7523H61.0744V15.5883L60.8704 15.1293C61.1877 14.6307 61.6184 14.2453 62.1624 13.9733C62.7064 13.69 63.3354 13.5483 64.0494 13.5483C64.922 13.5483 65.7097 13.7637 66.4124 14.1943C67.115 14.625 67.6704 15.203 68.0784 15.9283C68.4977 16.6537 68.7074 17.4697 68.7074 18.3763C68.7074 19.2717 68.5034 20.0877 68.0954 20.8243C67.6874 21.561 67.132 22.1447 66.4294 22.5753C65.7267 22.9947 64.9277 23.2043 64.0324 23.2043C63.3637 23.2043 62.746 23.074 62.1794 22.8133C61.624 22.5413 61.182 22.156 60.8534 21.6573L61.2104 21.2153V26.4003H58.9834ZM63.7774 21.1643C64.2874 21.1643 64.7407 21.0453 65.1374 20.8073C65.534 20.5693 65.84 20.2407 66.0554 19.8213C66.282 19.402 66.3954 18.9203 66.3954 18.3763C66.3954 17.8323 66.282 17.3563 66.0554 16.9483C65.84 16.529 65.534 16.2003 65.1374 15.9623C64.7407 15.713 64.2874 15.5883 63.7774 15.5883C63.29 15.5883 62.848 15.7073 62.4514 15.9453C62.066 16.1833 61.76 16.5177 61.5334 16.9483C61.318 17.3677 61.2104 17.8437 61.2104 18.3763C61.2104 18.9203 61.318 19.402 61.5334 19.8213C61.76 20.2407 62.066 20.5693 62.4514 20.8073C62.848 21.0453 63.29 21.1643 63.7774 21.1643Z" fill="black"/>
<path d="M51.927 23.2043C51.281 23.2043 50.72 23.0967 50.244 22.8813C49.768 22.666 49.3997 22.36 49.139 21.9633C48.8784 21.5553 48.748 21.085 48.748 20.5523C48.748 20.0423 48.8614 19.589 49.088 19.1923C49.3147 18.7843 49.666 18.4443 50.142 18.1723C50.618 17.9003 51.2187 17.7077 51.944 17.5943L54.97 17.1013V18.8013L52.369 19.2433C51.927 19.3227 51.5984 19.4643 51.383 19.6683C51.1677 19.8723 51.06 20.1387 51.06 20.4673C51.06 20.7847 51.179 21.0397 51.417 21.2323C51.6664 21.4137 51.9724 21.5043 52.335 21.5043C52.7997 21.5043 53.2077 21.408 53.559 21.2153C53.9217 21.0113 54.1994 20.7337 54.392 20.3823C54.596 20.031 54.698 19.6457 54.698 19.2263V16.8463C54.698 16.4497 54.5394 16.121 54.222 15.8603C53.916 15.5883 53.508 15.4523 52.998 15.4523C52.522 15.4523 52.097 15.5827 51.723 15.8433C51.3604 16.0927 51.094 16.427 50.924 16.8463L49.105 15.9623C49.2864 15.475 49.5697 15.0557 49.955 14.7043C50.3517 14.3417 50.8164 14.0583 51.349 13.8543C51.8817 13.6503 52.4597 13.5483 53.083 13.5483C53.8424 13.5483 54.511 13.69 55.089 13.9733C55.667 14.2453 56.1147 14.6307 56.432 15.1293C56.7607 15.6167 56.925 16.189 56.925 16.8463V23.0003H54.817V21.4193L55.293 21.3853C55.055 21.782 54.7717 22.1163 54.443 22.3883C54.1144 22.649 53.7404 22.853 53.321 23.0003C52.9017 23.1363 52.437 23.2043 51.927 23.2043Z" fill="black"/>
<path d="M39.0449 23.0003V13.7523H41.1359V15.5713L40.9659 15.2483C41.1812 14.693 41.5326 14.2737 42.0199 13.9903C42.5186 13.6957 43.0966 13.5483 43.7539 13.5483C44.4339 13.5483 45.0346 13.6957 45.5559 13.9903C46.0886 14.285 46.5022 14.6987 46.7969 15.2313C47.0916 15.7527 47.2389 16.359 47.2389 17.0503V23.0003H45.0119V17.5773C45.0119 17.1693 44.9326 16.818 44.7739 16.5233C44.6152 16.2287 44.3942 16.002 44.1109 15.8433C43.8389 15.6733 43.5159 15.5883 43.1419 15.5883C42.7792 15.5883 42.4562 15.6733 42.1729 15.8433C41.8896 16.002 41.6686 16.2287 41.5099 16.5233C41.3512 16.818 41.2719 17.1693 41.2719 17.5773V23.0003H39.0449Z" fill="black"/>
<path d="M32.7471 23.2043C31.9424 23.2043 31.1944 23.057 30.5031 22.7623C29.8231 22.4677 29.2337 22.0597 28.7351 21.5383C28.2477 21.0057 27.8907 20.388 27.6641 19.6853L29.5851 18.8523C29.8911 19.5777 30.3331 20.15 30.9111 20.5693C31.4891 20.9773 32.1407 21.1813 32.8661 21.1813C33.2741 21.1813 33.6254 21.119 33.9201 20.9943C34.2261 20.8583 34.4584 20.677 34.6171 20.4503C34.7871 20.2237 34.8721 19.9517 34.8721 19.6343C34.8721 19.2603 34.7587 18.9543 34.5321 18.7163C34.3167 18.467 33.9881 18.2743 33.5461 18.1383L31.1151 17.3563C30.1291 17.0503 29.3867 16.5913 28.8881 15.9793C28.3894 15.3673 28.1401 14.6477 28.1401 13.8203C28.1401 13.095 28.3157 12.4547 28.6671 11.8993C29.0297 11.344 29.5284 10.9133 30.1631 10.6073C30.8091 10.29 31.5457 10.1313 32.3731 10.1313C33.1324 10.1313 33.8294 10.2673 34.4641 10.5393C35.0987 10.8 35.6427 11.1683 36.0961 11.6443C36.5607 12.109 36.9064 12.6587 37.1331 13.2933L35.2291 14.1433C34.9797 13.5087 34.6057 13.0213 34.1071 12.6813C33.6084 12.33 33.0304 12.1543 32.3731 12.1543C31.9877 12.1543 31.6477 12.2223 31.3531 12.3583C31.0584 12.483 30.8261 12.6643 30.6561 12.9023C30.4974 13.129 30.4181 13.401 30.4181 13.7183C30.4181 14.0697 30.5314 14.3813 30.7581 14.6533C30.9847 14.914 31.3304 15.118 31.7951 15.2653L34.1241 15.9963C35.1327 16.325 35.8864 16.7783 36.3851 17.3563C36.8951 17.9343 37.1501 18.6483 37.1501 19.4983C37.1501 20.2237 36.9631 20.864 36.5891 21.4193C36.2151 21.9747 35.6994 22.411 35.0421 22.7283C34.3847 23.0457 33.6197 23.2043 32.7471 23.2043Z" fill="black"/>
</g>
<defs>
<clipPath id="clip0_10826_18751">
<rect width="93" height="36" fill="white"/>
</clipPath>
<clipPath id="clip1_10826_18751">
<rect width="26" height="23.4527" fill="white" transform="translate(-1 6.96094)"/>
</clipPath>
</defs>
</svg>
