<svg width="110" height="36" viewBox="0 0 110 36" fill="none" xmlns="http://www.w3.org/2000/svg">
<g clip-path="url(#clip0_10717_13668)">
<g clip-path="url(#clip1_10717_13668)">
<path d="M4.64002 19.3749C5.16599 16.8814 5.67941 14.4574 6.18684 12.0322C6.2724 11.6759 6.3308 11.3137 6.36156 10.9485C6.39433 10.4381 6.23681 9.9337 5.91942 9.53265C5.60203 9.1316 5.14729 8.86238 4.64302 8.77701C4.12762 8.67714 3.59358 8.78252 3.15475 9.07068C2.71591 9.35884 2.40697 9.80699 2.29378 10.3196C1.52367 13.8572 0.766751 17.3984 0.0564795 20.9486C-0.228347 22.3715 0.763755 23.4342 2.33329 23.4785C5.58666 23.5707 8.84 23.658 12.094 23.7029C12.7317 23.7319 13.3684 23.624 13.9609 23.3864C14.3421 23.1762 14.6415 22.8439 14.8111 22.4431C14.9807 22.0422 15.0107 21.5959 14.8962 21.176C14.7875 20.7204 14.5274 20.3152 14.1585 20.0267C13.7895 19.7382 13.3336 19.5835 12.8653 19.5879C10.7542 19.5227 8.64254 19.4832 6.53087 19.4305C5.91215 19.4155 5.29285 19.394 4.64002 19.3749Z" fill="#00E9FF"/>
<path d="M11.886 15.671C9.33757 15.671 6.85971 15.671 4.38243 15.662C4.01619 15.6718 3.64971 15.6538 3.28619 15.6081C2.77989 15.5347 2.31882 15.2761 1.99211 14.8824C1.66539 14.4887 1.49625 13.9879 1.51739 13.4767C1.52658 12.9518 1.7404 12.4513 2.11328 12.0817C2.48617 11.7122 2.98862 11.5029 3.51357 11.4985C7.13375 11.4787 10.7539 11.4722 14.3753 11.5128C15.8264 11.529 16.6605 12.7198 16.3781 14.2654C15.7935 17.4667 15.2053 20.668 14.5746 23.8603C14.4705 24.4902 14.2328 25.0904 13.8774 25.6208C13.5929 25.9502 13.2058 26.1745 12.7784 26.2574C12.351 26.3403 11.9082 26.2771 11.521 26.0779C11.0979 25.8772 10.7555 25.5388 10.5497 25.1181C10.3439 24.6975 10.287 24.2194 10.3883 23.7622C10.7623 21.6834 11.1608 19.6095 11.5474 17.5331C11.6623 16.924 11.77 16.3136 11.886 15.671Z" fill="#4179FF"/>
<mask id="mask0_10717_13668" style="mask-type:luminance" maskUnits="userSpaceOnUse" x="9" y="18" width="7" height="7">
<path d="M11.1576 18.8838L9.94531 24.0328L14.5594 24.0406L15.6616 19.5312L11.1576 18.8838Z" fill="white"/>
</mask>
<g mask="url(#mask0_10717_13668)">
<path d="M4.64783 19.3759C5.17381 16.8824 5.68723 14.4584 6.19465 12.0332C6.28021 11.6769 6.33862 11.3146 6.36937 10.9495C6.40215 10.4391 6.24462 9.93467 5.92723 9.53363C5.60984 9.13258 5.1551 8.86336 4.65083 8.77799C4.13543 8.67812 3.60139 8.7835 3.16256 9.07166C2.72373 9.35982 2.41479 9.80796 2.30159 10.3206C1.53148 13.8582 0.774564 17.3994 0.064292 20.9495C-0.220535 22.3725 0.771568 23.4352 2.34111 23.4795C5.59448 23.5716 8.84781 23.659 12.1018 23.7039C12.7396 23.7329 13.3762 23.6249 13.9687 23.3874C14.3499 23.1771 14.6493 22.8449 14.8189 22.444C14.9886 22.0432 15.0185 21.5969 14.904 21.1769C14.7953 20.7214 14.5352 20.3162 14.1663 20.0277C13.7974 19.7392 13.3414 19.5845 12.8731 19.5889C10.762 19.5236 8.65035 19.4841 6.53868 19.4315C5.91996 19.4165 5.30066 19.395 4.64783 19.3759Z" fill="#00E9FF"/>
</g>
<path d="M21.1367 14.7596H19.8203V12.7419H21.1966V9.96484H23.6739V12.7419H25.9914V14.7596H23.6739V18.8753C23.6739 20.5507 24.9902 20.7937 25.6915 20.7937C25.8457 20.7955 25.9996 20.7821 26.1511 20.7536V22.9712C25.8939 23.0128 25.6337 23.0328 25.3732 23.031C23.9545 23.031 21.1379 22.6121 21.1379 19.1954L21.1367 14.7596Z" fill="#1E2531"/>
<path d="M32.6872 16.5381H33.0067V16.4609C33.0067 15.0026 32.4275 14.4629 31.129 14.4629C30.6694 14.4629 29.7701 14.5826 29.7701 15.1427V15.6812H27.4125V14.6041C27.4125 12.7067 30.0896 12.5068 31.1488 12.5068C34.5451 12.5068 35.5438 14.2846 35.5438 16.5626V20.3581C35.5375 20.4174 35.5445 20.4773 35.5644 20.5334C35.5842 20.5896 35.6163 20.6407 35.6584 20.6828C35.7005 20.725 35.7516 20.7572 35.8077 20.7771C35.8639 20.797 35.9238 20.8041 35.983 20.7979H36.7819V22.9359H34.5044C33.5656 22.9359 33.206 22.4165 33.206 21.8169C33.206 21.5572 33.2257 21.3777 33.2257 21.3777H33.1856C32.8967 21.9385 32.4538 22.4053 31.9089 22.7232C31.364 23.0412 30.7398 23.1972 30.1094 23.1729C28.2915 23.1729 26.6328 22.036 26.6328 19.9961C26.634 16.7978 31.0291 16.5381 32.6872 16.5381ZM30.7293 21.1929C32.0876 21.1929 33.0468 19.7567 33.0468 18.5163V18.2769H32.607C31.2906 18.2769 29.1908 18.4565 29.1908 19.8752C29.195 20.0664 29.2394 20.2545 29.3212 20.4274C29.4031 20.6002 29.5204 20.7538 29.6657 20.8782C29.8109 21.0026 29.9808 21.0949 30.1642 21.1491C30.3476 21.2033 30.5398 21.2182 30.7293 21.1929Z" fill="#1E2531"/>
<path d="M41.5219 12.5029C43.8795 12.5029 44.6587 13.939 44.6587 13.939H44.6988V13.6787C44.6988 13.2192 45.0183 12.7399 45.8177 12.7399H48.1747V14.8976H47.3968C47.3408 14.8904 47.2838 14.8954 47.2299 14.9124C47.1761 14.9294 47.1265 14.9578 47.0847 14.9958C47.0429 15.0339 47.0099 15.0806 46.9879 15.1326C46.966 15.1847 46.9557 15.2409 46.9576 15.2973V22.3097C46.9576 25.806 44.2404 27.1242 41.5836 27.1242C40.3265 27.1149 39.0887 26.814 37.9676 26.2452L38.7455 24.2473C39.6224 24.6803 40.5848 24.9123 41.5627 24.9264C43.1011 24.9264 44.4397 24.2682 44.4397 22.4288V21.9501C44.4397 21.7107 44.46 21.4115 44.46 21.4115H44.4199C44.1019 21.8583 43.6732 22.2147 43.1758 22.4455C42.6784 22.6763 42.1294 22.7737 41.583 22.728C38.6659 22.728 37.0078 20.371 37.0078 17.5736C37.0078 14.7762 38.5851 12.5029 41.5219 12.5029ZM44.4989 17.5975C44.4989 15.28 43.3399 14.6607 41.9618 14.6607C40.424 14.6607 39.5844 15.7796 39.5844 17.4976C39.5844 19.2753 40.482 20.5942 42.1221 20.5942C43.3398 20.5942 44.4989 19.8953 44.4989 17.5981V17.5975Z" fill="#1E2531"/>
<path d="M53.5974 12.5029C56.5139 12.5029 58.1121 14.6409 58.1121 17.3378C58.1121 17.637 58.0523 18.2766 58.0523 18.2766H51.0202C51.0704 19.042 51.4186 19.7571 51.99 20.2688C52.5614 20.7804 53.3105 21.0478 54.0767 21.0136C55.1308 20.9712 56.1388 20.5701 56.9339 19.8767L57.9924 21.6353C56.8598 22.629 55.4039 23.1759 53.8972 23.1738C53.1809 23.2087 52.4651 23.0957 51.7944 22.8419C51.1237 22.588 50.5125 22.1986 49.9989 21.6981C49.4853 21.1976 49.0804 20.5967 48.8093 19.9327C48.5382 19.2688 48.4068 18.5562 48.4233 17.8392C48.4233 14.7007 50.5409 12.5029 53.5974 12.5029ZM55.5152 16.5186C55.5258 16.2572 55.4845 15.9963 55.3936 15.751C55.3027 15.5057 55.1641 15.2808 54.9857 15.0895C54.8074 14.8981 54.5929 14.744 54.3546 14.6361C54.1162 14.5282 53.8589 14.4686 53.5974 14.4608C53.0017 14.4399 52.419 14.6376 51.959 15.0166C51.4991 15.3957 51.1937 15.9299 51.1004 16.5186H55.5152Z" fill="#1E2531"/>
<path d="M59.7777 15.3391C59.7857 15.2794 59.7799 15.2188 59.7606 15.1618C59.7413 15.1048 59.7091 15.053 59.6666 15.0105C59.624 14.9679 59.5722 14.9357 59.5152 14.9165C59.4582 14.8972 59.3976 14.8913 59.3379 14.8993H58.5391V12.7415H60.8763C61.7739 12.7415 62.2149 13.1604 62.2149 13.8785V14.1776C62.2149 14.3973 62.1945 14.6174 62.1945 14.6174H62.2346C62.5394 13.9979 63.0075 13.4733 63.5884 13.1001C64.1693 12.727 64.841 12.5194 65.5311 12.4998C66.1944 12.4452 66.8558 12.6253 67.3999 13.0087C67.9439 13.392 68.3361 13.9541 68.508 14.5971H68.5481C68.8822 13.9645 69.3824 13.435 69.995 13.0654C70.6075 12.6959 71.3093 12.5003 72.0247 12.4998C74.1424 12.4998 75.3612 13.6965 75.3612 16.3755V20.3511C75.3549 20.4104 75.362 20.4703 75.3818 20.5264C75.4017 20.5826 75.4338 20.6337 75.4759 20.6758C75.518 20.718 75.569 20.7502 75.6251 20.7701C75.6813 20.79 75.7412 20.7971 75.8004 20.7909H76.5784V22.9289H74.1813C73.2239 22.9289 72.8224 22.5292 72.8224 21.57V16.8548C72.8224 15.6957 72.6027 14.8173 71.4239 14.8173C70.1673 14.8173 69.2668 15.8764 68.9868 17.1546C68.8699 17.5772 68.816 18.0147 68.827 18.4531V22.9283H66.2898V16.8548C66.2898 15.7562 66.1301 14.8173 64.9136 14.8173C63.6349 14.8173 62.7756 15.8764 62.456 17.1749C62.35 17.5929 62.2964 18.0224 62.2963 18.4536V22.9289H59.7789L59.7777 15.3391Z" fill="#1E2531"/>
<path d="M77.7386 11.3411C77.7465 11.2815 77.7405 11.2209 77.7212 11.164C77.7019 11.1071 77.6697 11.0554 77.6272 11.0129C77.5847 10.9704 77.5329 10.9383 77.4759 10.919C77.419 10.8998 77.3584 10.8939 77.2988 10.9019H76.5V8.74414H78.9174C79.8562 8.74414 80.2757 9.16302 80.2757 10.1025V13.059C80.2757 13.5587 80.2363 13.9177 80.2363 13.9177H80.2757C80.6322 13.4514 81.0966 13.0787 81.6291 12.8316C82.1615 12.5846 82.746 12.4706 83.3322 12.4995C86.0895 12.4995 87.8476 14.677 87.8476 17.8335C87.8476 21.0701 85.87 23.168 83.1725 23.168C82.5881 23.1906 82.0069 23.0718 81.4782 22.8218C80.9496 22.5718 80.489 22.1979 80.1357 21.7319H80.0956C80.1234 21.9572 80.1368 22.184 80.1357 22.4111V22.9304H77.7386V11.3411ZM82.7333 21.0306C84.1095 21.0306 85.2907 19.8937 85.2907 17.8742C85.2907 15.9366 84.2519 14.6776 82.7536 14.6776C81.4372 14.6776 80.1968 15.635 80.1968 17.8945C80.1962 19.4748 81.0351 21.0348 82.7333 21.0348V21.0306Z" fill="#1E2531"/>
<path d="M93.5151 12.5029C96.4322 12.5029 98.0304 14.6409 98.0304 17.3378C98.0304 17.637 97.9706 18.2766 97.9706 18.2766H90.9421C90.9923 19.042 91.3405 19.7571 91.9119 20.2688C92.4832 20.7804 93.2324 21.0478 93.9986 21.0136C95.0527 20.9711 96.0607 20.57 96.8558 19.8767L97.9143 21.6353C96.7816 22.6289 95.3258 23.1758 93.819 23.1738C93.1028 23.2087 92.3869 23.0957 91.7162 22.8419C91.0456 22.588 90.4344 22.1986 89.9208 21.6981C89.4072 21.1976 89.0023 20.5967 88.7312 19.9327C88.4601 19.2688 88.3287 18.5562 88.3451 17.8392C88.3427 14.7007 90.4634 12.5029 93.5151 12.5029ZM95.4329 16.5186C95.4435 16.2572 95.4022 15.9963 95.3113 15.751C95.2205 15.5057 95.0818 15.2808 94.9034 15.0895C94.7251 14.8981 94.5105 14.744 94.2722 14.6361C94.0339 14.5282 93.7766 14.4686 93.5151 14.4608C92.9195 14.44 92.3367 14.6378 91.8768 15.0168C91.4169 15.3958 91.1114 15.93 91.018 16.5186H95.4329Z" fill="#1E2531"/>
<path d="M103.307 12.5023C105.524 12.5023 106.243 13.741 106.243 13.741H106.283C106.283 13.741 106.263 13.4813 106.263 13.1426V11.3475C106.271 11.2879 106.265 11.2273 106.246 11.1704C106.226 11.1134 106.194 11.0617 106.152 11.0192C106.109 10.9767 106.058 10.9446 106.001 10.9254C105.944 10.9061 105.883 10.9003 105.824 10.9082H105.024V8.75049H107.442C108.381 8.75049 108.801 9.16936 108.801 10.1088V20.3578C108.794 20.417 108.801 20.4769 108.821 20.5331C108.841 20.5893 108.873 20.6403 108.915 20.6825C108.957 20.7247 109.008 20.7569 109.064 20.7768C109.121 20.7967 109.181 20.8038 109.24 20.7976H110.018V22.9356H107.68C106.761 22.9356 106.424 22.4958 106.424 21.8968V21.5133H106.384C106.053 22.0502 105.583 22.4877 105.024 22.7797C104.464 23.0717 103.837 23.2072 103.207 23.1719C100.45 23.1719 98.6719 20.9945 98.6719 17.8374C98.6719 14.5996 100.61 12.5023 103.307 12.5023ZM106.323 17.8165C106.323 16.238 105.504 14.6798 103.806 14.6798C102.408 14.6798 101.248 15.8167 101.248 17.8362C101.248 19.7744 102.266 21.0327 103.766 21.0327C105.085 21.0345 106.323 20.0736 106.323 17.8165Z" fill="#1E2531"/>
</g>
</g>
<defs>
<clipPath id="clip0_10717_13668">
<rect width="110" height="36" fill="white"/>
</clipPath>
<clipPath id="clip1_10717_13668">
<rect width="110" height="18.3797" fill="white" transform="translate(0 8.74707)"/>
</clipPath>
</defs>
</svg>
