<svg xmlns="http://www.w3.org/2000/svg" width="379.005" height="86.649" viewBox="0 0 379.005 86.649">
  <g id="Layer_1-2" transform="translate(0)">
    <path id="Path_34" data-name="Path 34" d="M174.026,45.144l11.53-.091-6.065-17.831h10.488q1.974,5.762,5.149,15.315,2.953,8.915,3.791,11.706H154.757q.837-2.789,3.791-11.706,3.174-9.553,5.149-15.315h10.488l-6.065,17.831h2.4l3.506.091Zm8.079-31.205a8.69,8.69,0,0,1,3.767,2.639,50.007,50.007,0,0,1,2.843,6.884l-10.614.091-.253-.7a1.04,1.04,0,0,0-.442-.485l-.379-.121q-.379,0-.158-.061t-.158-.061l-.379.121a1.046,1.046,0,0,0-.443.485l-.253.7-10.614-.091a49.933,49.933,0,0,1,2.843-6.884,8.69,8.69,0,0,1,3.767-2.639,13.078,13.078,0,0,1,4.7-.91H177.6a15.055,15.055,0,0,1,4.509,1.031Z" transform="translate(-74.661 -6.227)" fill="#fff"/>
    <path id="Path_35" data-name="Path 35" d="M245.455,23.789v-1.7a11.774,11.774,0,0,1,3.032-7.521,11.916,11.916,0,0,1,6.444-1.455,11.593,11.593,0,0,1,9.824,5.489,29.346,29.346,0,0,1,2.811,5.277l-10.993-.091Zm9.509,30.538h-9.509V27.307h9.477ZM268.7,52.993a11.535,11.535,0,0,1-4.738-6.156q-.316-.94-5.876-19.53h3.664l6.665.031Q272.053,41.894,273,43.8a2.238,2.238,0,0,0,1.042.91,1.1,1.1,0,0,0,1.042-.182q.505-.364.569-1.7V27.307h9.54V46.049a7.813,7.813,0,0,1-3.364,6.49,7.3,7.3,0,0,1-6.176,1.7,12.133,12.133,0,0,1-6.95-1.243Zm6.95-29.568V13.114h9.54V23.425h-9.54Z" transform="translate(-118.418 -6.313)" fill="#fff"/>
    <path id="Path_36" data-name="Path 36" d="M335.56,23.792l-6.824-9.947h11.025l6.728,9.947H335.56Zm28.177,3.882-8.245,12.039V54.694h-9.509V39.713L338.15,27.674h10.993l.758,1.213a.922.922,0,0,0,.9.607.935.935,0,0,0,.9-.515l.916-1.3h11.119Zm-1.864-13.829H372.9l-6.823,9.947h-10.93Z" transform="translate(-158.596 -6.679)" fill="#fff"/>
    <path id="Path_37" data-name="Path 37" d="M455.934,13.142v8.916l-17.974-.031H419.985V13.142ZM442.6,54.355h-9.287V27.335H442.6Z" transform="translate(-202.618 -6.34)" fill="#fff"/>
    <path id="Path_38" data-name="Path 38" d="M506.116,23.453h-9.287V13.142h9.287V23.453Zm0,30.9h-9.272V40.738l-.016-13.4h9.287Z" transform="translate(-239.691 -6.34)" fill="#fff"/>
    <path id="Path_39" data-name="Path 39" d="M521.364,23.789v-1.7A11.774,11.774,0,0,1,524.4,14.57a11.917,11.917,0,0,1,6.444-1.455,11.592,11.592,0,0,1,9.824,5.489,29.379,29.379,0,0,1,2.811,5.277l-10.993-.091Zm9.508,30.538h-9.508V27.307h9.477ZM551.058,39.8V27.307h9.54q0,22.684-3.364,25.231a12.475,12.475,0,0,1-6.46,1.759,16.255,16.255,0,0,1-6.16-1.3,11.538,11.538,0,0,1-4.738-6.156q-.316-.94-5.876-19.53h3.664l6.666.031q3.632,14.556,4.58,16.467a2.236,2.236,0,0,0,1.042.91q.537.182,1.106-1.638V39.8Zm11.435-16.012q-1.074-2.425-1.832,0h-9.477V21.454a7.793,7.793,0,0,1,3.538-6.914,11.18,11.18,0,0,1,5.875-1.425,17.749,17.749,0,0,1,3.6.318,6.767,6.767,0,0,1,3.032,1.653,12.765,12.765,0,0,1,4.028,5.64l.9,3.063h-9.666Zm9,30.538-7.14-24.412-.789-2.608,9.65.031,8.008,26.99H571.5Z" transform="translate(-251.527 -6.313)" fill="#fff"/>
    <path id="Path_40" data-name="Path 40" d="M669.875,21.755H656.291a3.469,3.469,0,0,0-2.48,1.3l-.489.394H643.4q-.063-2.668,2.654-6.338a10.652,10.652,0,0,1,8.671-3.912l24.624-.061v8.612Zm9.508,32.388H655a10.674,10.674,0,0,1-8.687-3.882,12.915,12.915,0,0,1-2.906-8.37V27.335h9.414v1.82h26.535v8.977H652.817V41.77a5.277,5.277,0,0,0,1.232,2.471,3.23,3.23,0,0,0,2.527,1.016h22.807v8.885Z" transform="translate(-310.403 -6.341)" fill="#fff"/>
    <path id="Path_41" data-name="Path 41" d="M197.989,110.13H183.428a4.222,4.222,0,0,0-2.658,1.041l-.525.314H169.612q-.068-2.13,2.845-5.06,3.454-3.123,9.3-3.123l26.4-.049v6.877H197.989ZM179.7,135.989H169.612v-21.4H179.7v1.453h28.479V123.2H179.7v12.784Z" transform="translate(-81.827 -49.813)" fill="#fff"/>
    <path id="Path_42" data-name="Path 42" d="M263.918,111.485h-9.956v-8.232h9.956Zm0,24.673h-9.939V125.287l-.017-10.7h9.956v21.574Z" transform="translate(-122.522 -49.813)" fill="#fff"/>
    <path id="Path_43" data-name="Path 43" d="M323.137,103.252v7.119l-19.268-.024H284.6v-7.095h38.537Zm-14.29,32.905h-9.956V114.583h9.956Z" transform="translate(-137.303 -49.813)" fill="#fff"/>
    <path id="Path_44" data-name="Path 44" d="M369,111.753V110.4a8.4,8.4,0,0,1,3.124-6,15.29,15.29,0,0,1,6.638-1.162,13.031,13.031,0,0,1,10.121,4.383,22.184,22.184,0,0,1,2.9,4.213l-11.325-.073Zm9.8,24.382H369V114.561h9.762l.033,21.574Zm14.156-1.066a9.961,9.961,0,0,1-4.882-4.915q-.326-.75-6.052-15.593h3.775l6.866.024q3.742,11.623,4.719,13.147a2.246,2.246,0,0,0,1.073.727,1.4,1.4,0,0,0,1.074-.145q.521-.29.586-1.355v-12.4h9.827v14.964q0,3.148-3.465,5.181a9.15,9.15,0,0,1-6.362,1.356A15.686,15.686,0,0,1,392.953,135.069Zm7.159-23.607V103.23h9.827v8.232Z" transform="translate(-178.022 -49.791)" fill="#fff"/>
    <path id="Path_45" data-name="Path 45" d="M487.99,110.13H473.428a4.222,4.222,0,0,0-2.658,1.041l-.525.314H459.612q-.068-2.13,2.844-5.06,3.454-3.123,9.3-3.123l24.466-.049v6.877h-8.228Zm8.262,25.859H472.04q-5.875,0-9.312-3.1a8.832,8.832,0,0,1-3.116-6.683V114.585H469.7v1.453h26.515V123.2H469.7v2.906a3.947,3.947,0,0,0,1.321,1.973,4.129,4.129,0,0,0,2.709.811h22.518v7.094Z" transform="translate(-221.735 -49.813)" fill="#fff"/>
    <path id="Path_46" data-name="Path 46" d="M561.592,114.32s14.511,4.405,17.925,5.774c2.607,1.045,5.132,4.235,5.132,6.977a9.173,9.173,0,0,1-3.076,6.977c-2.287,2.1-5.352,2.122-9.194,2.122l-26.074-.073v-7.051s26.325.074,27.175.074a1.394,1.394,0,0,0,1.326-1.555,1.9,1.9,0,0,0-1.326-1.9c-.872-.19-22.006-6.321-25.3-8.045a10.116,10.116,0,0,1-3.691-3.26l17.105-.037Zm-5.015-4.467c-1.07.065-1.623,1.37-1.623,1.37H544.138a7.461,7.461,0,0,1,2.525-5.635c2.3-2.1,5.91-2.64,9.8-2.64l28-.049v6.953H556.577Z" transform="translate(-262.514 -49.643)" fill="#fff"/>
    <path id="Path_47" data-name="Path 47" d="M653.178,114.32s14.511,4.405,17.925,5.774c2.607,1.045,5.132,4.235,5.132,6.977a9.173,9.173,0,0,1-3.076,6.977c-2.287,2.1-5.352,2.122-9.194,2.122l-26.074-.073v-7.051s26.325.074,27.175.074a1.394,1.394,0,0,0,1.325-1.555,1.9,1.9,0,0,0-1.325-1.9c-.873-.19-22.006-6.321-25.3-8.045a10.122,10.122,0,0,1-3.691-3.26l17.105-.037Zm-5.015-4.467c-1.07.065-1.623,1.37-1.623,1.37H635.724a7.46,7.46,0,0,1,2.525-5.635c2.3-2.1,5.909-2.64,9.8-2.64l28-.049v6.953H648.163Z" transform="translate(-306.698 -49.643)" fill="#fff"/>
    <path id="Path_48" data-name="Path 48" d="M721.454,151.429a3.811,3.811,0,1,1-.017,0Zm-.017.6a3.253,3.253,0,0,0,.017,6.5,3.253,3.253,0,0,0,0-6.5h-.017Zm-.716,5.473h-.681v-4.279a7.622,7.622,0,0,1,1.21-.1,2.248,2.248,0,0,1,1.33.324,1.024,1.024,0,0,1,.392.887,1.065,1.065,0,0,1-.835,1.04v.034c.376.068.631.409.716,1.04a3.533,3.533,0,0,0,.272,1.057h-.716a3.166,3.166,0,0,1-.29-1.09.8.8,0,0,0-.921-.75h-.478V157.5Zm0-2.369h.495c.563,0,1.04-.2,1.04-.733,0-.375-.272-.75-1.04-.75a3.326,3.326,0,0,0-.495.034Z" transform="translate(-346.217 -73.056)" fill="#fff"/>
    <path id="Path_49" data-name="Path 49" d="M83.274,23.4S100.418,0,106.641,0c17.613,13.3,21.019,21.757,16.557,21.757s-13.613-7.683-17.026-11.742c-4.165.089-22.9,13.386-22.9,13.386Z" transform="translate(-40.175)" fill="#fff"/>
    <path id="Path_50" data-name="Path 50" d="M41.4,47.7S25.813,72.165,19.6,72.568C1.164,60.435-2.782,52.219,1.671,51.93s14.082,6.785,17.751,10.614C23.573,62.185,41.4,47.7,41.4,47.7Z" transform="translate(0 -23.014)" fill="#fff"/>
    <path id="Path_51" data-name="Path 51" d="M54.6,28c-5.989,0-7.4-8.216-7.4-11.269s2.936-9.864,7.4-9.864,9.577,8.219,9.577,13.973c0,4.11-6.961,7.159-9.577,7.159Z" transform="translate(-22.772 -3.315)" fill="#fff"/>
    <path id="Path_52" data-name="Path 52" d="M107.9,69.894c0-7.536-17.682-24.68-25.432-24.68-16.359,0,24.258,16.322,24.258,27.359,0,1.688-21.84,14.677-21.84,21.605,0,8.337,25.48,14.284,29.473,14.284s8.349-7.121,1.292-10.643c-8.184-4.085-16.569-3.875-20.2-7.045,4.227-3.288,12.447-15.522,12.447-20.88Z" transform="translate(-37.913 -21.813)" fill="#fff"/>
  </g>
</svg>
