<svg xmlns="http://www.w3.org/2000/svg" width="269.02" height="95.877" viewBox="0 0 269.02 95.877">
  <path id="Path_31" data-name="Path 31" d="M165.175,457.213q-12.024-.478-19.7-6.586a39.351,39.351,0,0,1-4.093-4.1,25.577,25.577,0,0,1-4.436-7.983c-2.9-8.691-1.408-20.1,4.271-32.612,4.863-10.715,12.367-21.343,25.458-36.062,1.928-2.166,7.671-8.5,7.708-8.5.014,0-.3.542-.693,1.2a77.153,77.153,0,0,0-7.9,18.232c-2.549,9.329-2.241,17.335.9,23.543a23,23,0,0,0,10.061,10.029c7.314,3.584,18.023,3.88,31.1.867.9-.209,45.517-12.052,99.148-26.32S404.513,362.994,404.52,363s-124.6,53.336-189.29,81c-10.245,4.38-12.984,5.486-17.8,7.177C185.118,455.5,174.09,457.567,165.175,457.213Z" transform="translate(-135.5 -361.375)" fill="#fff"/>
</svg>
