<svg xmlns="http://www.w3.org/2000/svg" width="294.734" height="93.708" viewBox="0 0 294.734 93.708">
  <g id="Group_3900" data-name="Group 3900" transform="translate(0 0.003)">
    <path id="Path_32" data-name="Path 32" d="M1678.358,2509.483v-15.24h3.342v15.24Zm20.429,0-7.378-9.685v9.69h-3.3v-15.244h3.082l7.118,9.385v-9.385h3.3v15.24Zm14.843-12.148v12.148h-3.342v-12.148h-4.623v-3.092h12.589v3.092Zm8.669,12.148v-15.24h11.462v2.98H1725.6v3.033h7.161v2.98H1725.6v3.26h8.25v2.98Zm26.324,0-3.275-4.874h-2.625v4.878h-3.342v-15.244h6.93c3.583,0,5.731,1.894,5.731,5.028v.043a4.733,4.733,0,0,1-3.256,4.724l3.713,5.444Zm.067-10.038c0-1.449-1-2.178-2.625-2.178h-3.323v4.376h3.371c1.628,0,2.562-.87,2.562-2.154Zm19.543,10.038-7.359-9.689v9.689h-3.3v-15.24h3.082l7.118,9.385v-9.385h3.3v15.24Zm19.5,0-1.387-3.42h-6.439l-1.387,3.42h-3.41l6.511-15.351h3.082l6.511,15.351Zm-4.614-11.317-2.018,4.941h4.036Zm16.855-.826v12.148h-3.342v-12.153h-4.624v-3.092H1804.6v3.092Zm9.025,12.148v-15.244h3.342v15.24Zm16.634.261a7.8,7.8,0,0,1-8.052-7.839v-.044a8.077,8.077,0,0,1,16.148-.043v.043a7.868,7.868,0,0,1-8.091,7.893Zm4.6-7.883a4.626,4.626,0,0,0-4.457-4.789l-.143,0a4.554,4.554,0,0,0-4.561,4.748v.043a4.626,4.626,0,0,0,4.457,4.789l.142,0a4.555,4.555,0,0,0,4.561-4.748Zm19.615,7.618-7.359-9.689v9.689h-3.284v-15.24h3.082l7.118,9.385v-9.385h3.3v15.24Zm19.5,0-1.387-3.42h-6.41l-1.387,3.42h-3.41l6.511-15.351h3.082l6.511,15.351Zm-4.575-11.317-2.018,4.941h4.036Zm11.862,11.322v-15.244h3.342v12.192h7.575v3.048Z" transform="translate(-1625.913 -2416.054)"/>
    <path id="Path_33" data-name="Path 33" d="M157.355,29.52a13.179,13.179,0,0,0-5.741-1.507,8.269,8.269,0,0,0-6.853,3.864V62.945H132.64V19.4h11.105l.693,4.56c.482-.792,3.371-5.5,9.1-5.5a12.247,12.247,0,0,1,3.814.662V29.52Zm28.765-10.395a12.253,12.253,0,0,0-3.814-.662c-5.736,0-8.606,4.7-9.1,5.5l-.693-4.56H161.405V62.95h12.122V31.877a8.237,8.237,0,0,1,6.853-3.864,13.18,13.18,0,0,1,5.741,1.507ZM125.214,31.9V62.95H114.089l-.694-4.54a15.084,15.084,0,0,1-11.688,5.478c-6.935,0-11.722-5.313-11.722-12.467,0-15.409,18.117-17.577,23.116-18.085V32.1c0-2.521-2.109-5.139-7.705-5.139a20.2,20.2,0,0,0-11.289,3.864v-8.98a34.238,34.238,0,0,1,15.146-3.381C120.4,18.454,125.214,23.559,125.214,31.9Zm-12.122,9.946c-3.853,0-10.889,1.328-10.889,7.424,0,3.091,2.109,5.313,4.753,5.313,3.439,0,6.135-2.473,6.135-8.042ZM46.57,6.489l10.9,23.456-4.277,9.178L35.012,0,21.161,6.474,32.05,29.9c-.852,1.826-2.22,4.8-4.435,9.525-4.98,10.68-8.832,13.67-15.657,13.67a17.013,17.013,0,0,1-5.5-1.019L0,65.955A27.861,27.861,0,0,0,10.316,68.1c8.076,0,14.01-5.265,19.167-16.365l6.357-13.67L47.4,62.965H64.254l-7.3-15.7,4.277-9.178,11.558,24.9H89.643L60.42,0ZM288.584,19.405V5l-12.122,5.671v8.738h-3.882v7.574h3.886V62.955h12.122V26.974h6.145V19.4Zm-97.927,43.55h12.122V19.4H190.657ZM262.843,4.992l-12.122,5.671V19.4h-3.886v7.574h3.886V62.95h12.122V26.974h6.15V19.4h-6.15ZM244,37.591v7.163c0,10.38-5.057,19.138-17.477,19.138S209.049,55.2,209.049,44.755V37.6c0-10.424,5.057-19.138,17.477-19.138S244,27.216,244,37.6Zm-12.218-1.724c0-5.207-1.262-8.9-5.259-8.9s-5.259,3.7-5.259,8.9V46.493c0,5.207,1.238,8.9,5.259,8.9s5.259-3.7,5.259-8.9Z"/>
  </g>
</svg>
