<svg width="559" height="559" viewBox="0 0 559 559" fill="none" xmlns="http://www.w3.org/2000/svg">
<g>
<path opacity="0.35" d="M357.365 339.793C357.053 339.253 356.637 338.778 356.142 338.396C355.647 338.015 355.081 337.736 354.478 337.573C353.875 337.411 353.244 337.369 352.625 337.449C352.006 337.53 351.408 337.733 350.866 338.044C350.324 338.356 349.849 338.772 349.469 339.268C349.088 339.763 348.808 340.329 348.645 340.932L341.215 368.471C340.566 370.894 338.981 372.96 336.811 374.217C334.639 375.473 332.059 375.815 329.635 375.17L182.569 335.784C177.516 334.386 174.491 329.133 175.813 324.089L194.367 254.909C194.668 253.697 194.482 252.416 193.849 251.341C193.214 250.266 192.183 249.483 190.978 249.161C189.773 248.84 188.489 249.003 187.403 249.62C186.317 250.236 185.517 251.253 185.176 252.454L166.612 321.653C165.351 326.527 166.054 331.702 168.571 336.062C171.088 340.423 175.215 343.621 180.066 344.967L327.19 384.372C328.808 384.801 330.444 385 332.042 385C336.229 385.004 340.301 383.624 343.624 381.076C346.945 378.528 349.333 374.952 350.415 370.907L357.836 343.407C357.999 342.802 358.041 342.173 357.96 341.554C357.879 340.933 357.677 340.335 357.365 339.793Z" fill="#7E7E7E"/>
<path opacity="0.35" d="M393.962 294.194V194.999C393.962 184.521 385.442 176 374.965 176H222.997C212.52 176 204 184.521 204 194.999V309C204 319.479 212.52 328 222.997 328H374.965C385.442 328 393.962 319.479 393.962 309V295.282C393.967 295.231 393.985 295.182 393.988 295.131C394.01 294.817 394.002 294.503 393.962 294.194ZM384.463 309C384.463 314.235 380.199 318.5 374.965 318.5H222.997C219.67 318.5 216.74 316.773 215.042 314.173L257.626 271.58C258.533 270.72 259.735 270.242 260.983 270.242C262.233 270.242 263.435 270.72 264.341 271.58L281.371 288.613C281.83 289.089 282.388 289.459 283.004 289.699C283.622 289.939 284.283 290.041 284.943 290C285.602 289.972 286.249 289.807 286.842 289.514C287.434 289.222 287.958 288.808 288.381 288.3L328.681 239.935C329.139 239.414 329.698 238.994 330.326 238.699C330.954 238.404 331.636 238.243 332.328 238.225C333.014 238.22 333.693 238.366 334.317 238.652C334.939 238.937 335.493 239.356 335.938 239.878L384.463 296.506V309ZM384.463 281.908L343.147 233.694C341.809 232.134 340.149 230.883 338.281 230.024C336.414 229.167 334.383 228.724 332.328 228.725H332.224C330.152 228.741 328.108 229.208 326.235 230.094C324.362 230.979 322.704 232.263 321.377 233.855L284.411 278.22L271.056 264.863C265.681 259.486 256.286 259.486 250.911 264.863L213.498 302.284V194.999C213.498 189.765 217.763 185.5 222.997 185.5H374.965C380.199 185.5 384.463 189.765 384.463 194.999V281.908Z" fill="#7E7E7E"/>
<path opacity="0.35" d="M251.001 204C240.521 204 232 212.521 232 222.999C232 233.479 240.521 242 251.001 242C261.479 242 270 233.479 270 222.999C270 212.521 261.479 204 251.001 204ZM251.001 232.5C245.765 232.5 241.5 228.235 241.5 222.999C241.5 217.765 245.765 213.5 251.001 213.5C256.235 213.5 260.5 217.765 260.5 222.999C260.5 228.235 256.235 232.5 251.001 232.5Z" fill="#7E7E7E"/>
</g>
<rect width="559" height="559" fill="none"/>
</svg>
