<svg xmlns="http://www.w3.org/2000/svg" xmlns:xlink="http://www.w3.org/1999/xlink" viewBox="0 0 863.31 528.91"><defs><style>.cls-1{opacity:0.54;}.cls-2{fill:#ffe3bc;}.cls-3{fill:#bbf2dd;}.cls-4{fill:#fee0e4;}.cls-5{fill:#e0ddf0;}.cls-6{fill:#d0e6f9;}.cls-7{fill:#87c0fd;}.cls-8{fill:#ffc7c8;}.cls-9{fill:#ffe7be;}.cls-10{fill:#d6ffff;}.cls-11{fill:#f0f6ff;}.cls-12{fill:#cba1e3;}.cls-13{fill:#bc7fdd;}.cls-14{fill:#9851c0;}.cls-15{fill:#d0afe3;}.cls-16{fill:#b483d0;}.cls-17{fill:#c896e3;}.cls-18{fill:#ac69d1;}.cls-19{fill:#b05ddd;}.cls-20{fill:#9cbeef;}.cls-21{fill:url(#linear-gradient);}</style><linearGradient id="linear-gradient" x1="407.99" y1="266.34" x2="579.99" y2="438.34" gradientUnits="userSpaceOnUse"><stop offset="0" stop-color="#9851c0"/><stop offset="1" stop-color="#fff" stop-opacity="0"/></linearGradient></defs><title>Upgrade popup</title><g id="Layer_2" data-name="Layer 2"><g id="Layer_1-2" data-name="Layer 1"><g class="cls-1"><path class="cls-2" d="M8,41.87a1.47,1.47,0,0,1-.44-1l-.47-14.7a1.5,1.5,0,1,1,3-.09l.47,14.7a1.5,1.5,0,0,1-1.45,1.54A1.45,1.45,0,0,1,8,41.87Z"/><path class="cls-2" d="M.44,34.76a1.5,1.5,0,0,1,1-2.56l14.7-.47a1.5,1.5,0,0,1,.1,3l-14.7.47A1.52,1.52,0,0,1,.44,34.76Z"/></g><g class="cls-1"><path class="cls-3" d="M794.84,174.11a1.5,1.5,0,0,1-1-.4l-10.72-10.06a1.5,1.5,0,1,1,2-2.19l10.73,10.06a1.5,1.5,0,0,1-1,2.59Z"/><path class="cls-3" d="M784.44,174.45a1.51,1.51,0,0,1-1-.41,1.49,1.49,0,0,1-.07-2.12l10.06-10.73a1.5,1.5,0,0,1,2.19,2.06L785.54,174A1.5,1.5,0,0,1,784.44,174.45Z"/></g><g class="cls-1"><path class="cls-4" d="M784.23,36.58a1.47,1.47,0,0,1-1,.44l-14.69.58a1.5,1.5,0,0,1-.12-3L783.1,34a1.5,1.5,0,0,1,1.13,2.55Z"/><path class="cls-4" d="M777.17,44.22a1.47,1.47,0,0,1-1,.44,1.49,1.49,0,0,1-1.55-1.44L774,28.53a1.5,1.5,0,1,1,3-.12l.57,14.7A1.49,1.49,0,0,1,777.17,44.22Z"/></g><g class="cls-1"><path class="cls-5" d="M243.93,13.39a1.5,1.5,0,0,1-1-.4L232.18,2.93a1.5,1.5,0,0,1,2-2.19L245,10.8a1.5,1.5,0,0,1-1,2.59Z"/><path class="cls-5" d="M233.53,13.73a1.51,1.51,0,0,1-1-.41,1.49,1.49,0,0,1-.07-2.12L242.5.47a1.5,1.5,0,0,1,2.19,2.06L234.63,13.25A1.5,1.5,0,0,1,233.53,13.73Z"/></g><g class="cls-1"><path class="cls-6" d="M103.81,271.61a1.51,1.51,0,0,1-1-.41L92.06,261.14a1.5,1.5,0,0,1,2-2.19L104.84,269a1.5,1.5,0,0,1-1,2.6Z"/><path class="cls-6" d="M93.42,271.94a1.49,1.49,0,0,1-1.1-2.52l10.06-10.73a1.5,1.5,0,0,1,2.19,2.05L94.51,271.47A1.51,1.51,0,0,1,93.42,271.94Z"/></g><g class="cls-1"><path class="cls-7" d="M608,39.13a.94.94,0,0,1-.81-.46,1,1,0,0,1,0-.94l9.18-15.92a.93.93,0,0,1,.81-.47h0a.94.94,0,0,1,.81.47l9.2,15.91a.91.91,0,0,1,0,.93.94.94,0,0,1-.81.47Zm9.18-15-7.56,13.12h15.14l-3.79-6.55h0Z"/></g><g class="cls-1"><path class="cls-8" d="M256,179.58a1.15,1.15,0,0,1-.82-.34l-16.08-16.05a1.19,1.19,0,0,1-.3-1.12,1.17,1.17,0,0,1,.82-.82l21.94-5.9a1.18,1.18,0,0,1,1.12.3,1.16,1.16,0,0,1,.3,1.12l-5.87,21.95a1.16,1.16,0,0,1-.81.82A1,1,0,0,1,256,179.58ZM242.13,163l13.25,13.23,2.41-9h0l2.42-9.05Z"/></g><g class="cls-1"><path class="cls-7" d="M42,195a9.68,9.68,0,1,1,9.68-9.68A9.69,9.69,0,0,1,42,195Zm0-17.07a7.39,7.39,0,1,0,7.39,7.39A7.4,7.4,0,0,0,42,177.91Z"/></g><g class="cls-1"><path class="cls-9" d="M684,160.37a9.68,9.68,0,1,1,9.68-9.68A9.69,9.69,0,0,1,684,160.37Zm0-17.07a7.39,7.39,0,1,0,7.39,7.39A7.4,7.4,0,0,0,684,143.3Z"/></g><g class="cls-1"><path class="cls-10" d="M714.61,64.39a1.5,1.5,0,0,1-1.5-1.5,9.7,9.7,0,0,0-19.39,0,1.5,1.5,0,0,1-3,0,12.7,12.7,0,0,1,25.39,0A1.5,1.5,0,0,1,714.61,64.39Z"/></g><g class="cls-1"><path class="cls-8" d="M129.64,32.84a12.64,12.64,0,1,1,0-25.28,1.5,1.5,0,0,1,0,3,9.64,9.64,0,1,0,0,19.28,1.5,1.5,0,0,1,0,3Z"/></g><g class="cls-1"><path class="cls-8" d="M21.64,407.82a12.64,12.64,0,1,1,0-25.28,1.5,1.5,0,0,1,0,3,9.64,9.64,0,1,0,0,19.28,1.5,1.5,0,0,1,0,3Z"/></g><g class="cls-1"><path class="cls-2" d="M731.33,356.86H709.07a1.5,1.5,0,0,1-1.5-1.5V333.1a1.5,1.5,0,0,1,1.5-1.5h22.26a1.5,1.5,0,0,1,1.5,1.5v22.26A1.5,1.5,0,0,1,731.33,356.86Zm-20.76-3h19.26V334.6H710.57Z"/></g><g class="cls-1"><path class="cls-5" d="M167.71,384.68H145.44a1.5,1.5,0,0,1-1.5-1.5V360.92a1.5,1.5,0,0,1,1.5-1.5h22.27a1.5,1.5,0,0,1,1.5,1.5v22.26A1.5,1.5,0,0,1,167.71,384.68Zm-20.77-3h19.27V362.42H146.94Z"/></g><g class="cls-1"><path class="cls-3" d="M796.69,279.31c-3.18,0-4.59-2.61-5.72-4.71-1.31-2.42-2.23-3.91-4.51-3.91a1.5,1.5,0,0,1,0-3c4.19,0,5.9,3.17,7.15,5.49s1.82,3.13,3.08,3.13a1.5,1.5,0,0,1,0,3Z"/><path class="cls-3" d="M817.14,279.31c-3.18,0-4.59-2.61-5.72-4.71-1.31-2.42-2.23-3.91-4.51-3.91a1.5,1.5,0,0,1,0-3c4.19,0,5.9,3.17,7.15,5.49s1.82,3.13,3.08,3.13a1.5,1.5,0,0,1,0,3Z"/><path class="cls-3" d="M796.69,279.31a1.5,1.5,0,0,1,0-3c1.25,0,1.9-1,3.07-3.13s3-5.49,7.15-5.49a1.5,1.5,0,0,1,0,3c-2.28,0-3.2,1.49-4.51,3.91C801.27,276.7,799.86,279.31,796.69,279.31Z"/><path class="cls-3" d="M817.14,279.31a1.5,1.5,0,0,1,0-3c1.25,0,1.9-1,3.07-3.13s3-5.49,7.15-5.49a1.5,1.5,0,0,1,0,3c-2.28,0-3.2,1.49-4.51,3.91C821.72,276.7,820.31,279.31,817.14,279.31Z"/></g><g class="cls-1"><path class="cls-3" d="M18.38,329c-2.23,2.25-5.08,1.42-7.36.75-2.65-.78-4.35-1.17-6,.45a1.5,1.5,0,1,1-2.13-2.11c2.95-3,6.41-2,8.93-1.22s3.51.91,4.39,0A1.5,1.5,0,1,1,18.38,329Z"/><path class="cls-3" d="M32.77,314.49c-2.24,2.25-5.08,1.42-7.37.75-2.64-.78-4.35-1.17-5.95.45a1.5,1.5,0,1,1-2.13-2.11c2.94-3,6.4-2,8.93-1.22,2.37.7,3.5.91,4.39,0a1.5,1.5,0,1,1,2.13,2.12Z"/><path class="cls-3" d="M18.38,329a1.5,1.5,0,1,1-2.13-2.12c.88-.89.66-2-.06-4.38-.76-2.52-1.81-6,1.13-8.94a1.5,1.5,0,1,1,2.13,2.11c-1.6,1.62-1.19,3.31-.39,5.95C19.75,323.92,20.62,326.76,18.38,329Z"/><path class="cls-3" d="M32.77,314.49a1.5,1.5,0,1,1-2.13-2.12c.88-.89.66-2-.06-4.38-.77-2.52-1.82-6,1.13-8.95h0a1.5,1.5,0,1,1,2.13,2.12h0c-1.61,1.62-1.2,3.31-.39,5.95C34.14,309.39,35,312.23,32.77,314.49Z"/></g><g class="cls-1"><path class="cls-8" d="M16.45,105.23a1.59,1.59,0,0,1,.27-2c2.88-2.86,6.29-1.91,8.8-1.22s3.51.86,4.38,0a1.5,1.5,0,0,1,2.31.18,1.59,1.59,0,0,1-.25,2c-2.19,2.15-5,1.37-7.25.74-2.66-.74-4.36-1.11-5.95.53A1.49,1.49,0,0,1,16.45,105.23Z"/><path class="cls-8" d="M30.63,90.51a1.62,1.62,0,0,1,.28-2c2.88-2.86,6.29-1.91,8.79-1.21s3.52.86,4.39,0a1.5,1.5,0,0,1,2.31.18,1.58,1.58,0,0,1-.26,2c-2.18,2.16-5,1.38-7.24.75-2.66-.74-4.37-1.11-5.95.53A1.5,1.5,0,0,1,30.63,90.51Z"/><path class="cls-8" d="M30.17,104.26a1.5,1.5,0,0,1-.27-2.3c.88-.91.64-2-.12-4.39s-1.86-5.85.89-8.83a1.6,1.6,0,0,1,2-.35A1.5,1.5,0,0,1,33,90.7c-1.58,1.64-1.15,3.33-.31,6,.72,2.23,1.6,5-.47,7.27A1.6,1.6,0,0,1,30.17,104.26Z"/><path class="cls-8" d="M44.36,89.54a1.51,1.51,0,0,1-.27-2.31c.87-.9.63-2-.12-4.38S42.1,77,44.86,74a1.6,1.6,0,0,1,2-.35A1.51,1.51,0,0,1,47.14,76c-1.58,1.64-1.15,3.34-.31,6,.71,2.24,1.6,5-.48,7.27A1.57,1.57,0,0,1,44.36,89.54Z"/></g><g class="cls-1"><path class="cls-8" d="M845,104.3a1.5,1.5,0,0,1-2.1-.29c-2.52-3.34-1-6.62.07-9,1-2.24,1.39-3.33.64-4.34A1.5,1.5,0,1,1,846,88.84c1.91,2.54.68,5.23-.31,7.4-1.14,2.51-1.77,4.14-.4,6A1.5,1.5,0,0,1,845,104.3Z"/><path class="cls-8" d="M832.64,88a1.5,1.5,0,0,1-2.1-.29c-2.52-3.34-1-6.62.07-9s1.4-3.34.64-4.34a1.5,1.5,0,1,1,2.39-1.81c1.92,2.53.69,5.23-.3,7.39-1.15,2.51-1.78,4.14-.4,6A1.5,1.5,0,0,1,832.64,88Z"/><path class="cls-8" d="M845.69,90.94a1.5,1.5,0,0,1-2.1-.29c-.76-1-1.91-.94-4.36-.56-2.6.4-6.16,1-8.69-2.39a1.5,1.5,0,0,1,2.4-1.81c1.37,1.82,3.11,1.65,5.84,1.23,2.35-.36,5.28-.81,7.2,1.72A1.5,1.5,0,0,1,845.69,90.94Z"/><path class="cls-8" d="M833.35,74.64a1.5,1.5,0,0,1-2.1-.29c-.76-1-1.91-.94-4.35-.57-2.61.4-6.17,1-8.69-2.39a1.5,1.5,0,1,1,2.39-1.81c1.37,1.82,3.11,1.66,5.84,1.24,2.35-.37,5.28-.82,7.2,1.72A1.5,1.5,0,0,1,833.35,74.64Z"/></g><g class="cls-1"><path class="cls-7" d="M362.93,20.2H337.71a1.5,1.5,0,0,1,0-3h25.22a1.5,1.5,0,0,1,0,3Z"/></g><g class="cls-1"><path class="cls-7" d="M844,348.24a1.5,1.5,0,0,1-1.06-2.56l17.84-17.83a1.5,1.5,0,0,1,2.12,2.12L845,347.81A1.5,1.5,0,0,1,844,348.24Z"/></g><g class="cls-1"><path class="cls-5" d="M159.2,149.34a5.94,5.94,0,0,1-1.32-.15,5.9,5.9,0,1,1,4.46-.76h0A5.91,5.91,0,0,1,159.2,149.34Zm2.34-2.18h0Zm-2.36-6.64a2.94,2.94,0,0,0-1.54.45,2.91,2.91,0,1,0,3.1,4.92h0a2.91,2.91,0,0,0-.91-5.29A2.82,2.82,0,0,0,159.18,140.52Z"/></g><g class="cls-1"><path class="cls-11" d="M788.07,386.26a5.94,5.94,0,0,1-1.32-.15,5.91,5.91,0,1,1,6.31-8.91,5.93,5.93,0,0,1-1.85,8.15h0A5.85,5.85,0,0,1,788.07,386.26Zm2.34-2.18h0Zm-2.36-6.64a2.85,2.85,0,0,0-1.54.45,2.91,2.91,0,0,0,.9,5.29,2.93,2.93,0,0,0,2.2-.37h0a2.91,2.91,0,0,0-.91-5.3A2.81,2.81,0,0,0,788.05,377.44Z"/></g><g class="cls-1"><path class="cls-7" d="M473.7,19.92a5.94,5.94,0,0,1-1.32-.15,5.9,5.9,0,1,1,4.46-.76h0A5.85,5.85,0,0,1,473.7,19.92ZM476,17.74h0Zm-2.36-6.64a2.91,2.91,0,0,0-2.45,4.46,2.9,2.9,0,1,0,3.1-4.38A2.82,2.82,0,0,0,473.68,11.1Z"/></g><polygon class="cls-12" points="254.38 271.93 359.5 271.93 412.97 426.86 254.38 271.93"/><polygon class="cls-13" points="359.19 271.93 466.14 271.93 412.97 426.86 359.19 271.93"/><polygon class="cls-14" points="466.14 271.93 569.43 272.23 412.97 426.86 466.14 271.93"/><polygon class="cls-15" points="254.38 271.93 313.96 198.28 359.19 271.93 254.38 271.93"/><polygon class="cls-16" points="313.96 198.28 415.72 198.28 359.19 271.93 313.96 198.28"/><polygon class="cls-17" points="415.72 198.28 359.19 271.93 466.14 271.93 415.72 198.28"/><polygon class="cls-18" points="415.72 198.28 520.23 198.28 466.14 271.93 415.72 198.28"/><polygon class="cls-19" points="520.23 198.28 466.14 271.93 569.43 272.23 520.23 198.28"/><polygon class="cls-8" points="640.82 250.56 647.5 226.54 654.07 250.56 677.14 257.6 654.05 264.34 647.5 288.2 640.78 264.34 615.65 257.6 640.82 250.56"/><polygon class="cls-5" points="556.62 171.12 561.05 155.19 565.41 171.12 580.71 175.79 565.4 180.26 561.05 196.08 556.6 180.26 539.93 175.79 556.62 171.12"/><polygon class="cls-3" points="214.23 246.26 217.83 233.32 221.37 246.26 233.79 250.05 221.36 253.68 217.83 266.53 214.21 253.68 200.68 250.05 214.23 246.26"/><polygon class="cls-20" points="253.12 337.89 257.66 321.57 262.13 337.89 277.81 342.68 262.12 347.26 257.66 363.48 253.1 347.26 236.02 342.68 253.12 337.89"/><polygon class="cls-21" points="569.43 272.23 677.89 380.7 518.5 528.91 412.97 426.86 569.43 272.23"/></g></g></svg>